<svg width="100%" height="100%" viewBox="0 0 502 261" fill="none" xmlns="http://www.w3.org/2000/svg">
<path d="M156.807 85.0386C155.404 83.6433 153.97 75.8619 152.18 75.0719C153.518 78.1394 152.546 78.9516 152.539 82.3181C152.556 84.2297 152.341 86.1359 151.899 87.9917H121.571V63.4441C121.571 61.2385 121.99 59.0544 122.804 57.0166C123.618 54.9789 124.81 53.1273 126.314 51.5676C127.818 50.008 129.603 48.7708 131.568 47.9268C133.533 47.0828 135.639 46.6484 137.765 46.6484C138.577 46.6649 139.383 46.7873 140.166 47.0129C142.772 47.7428 145.148 49.1709 147.055 51.1538C148.961 53.1366 150.332 55.6047 151.028 58.3102C153.34 67.0748 157.017 81.664 156.807 85.0386Z" fill="#2F2E41"/>
<path d="M123.351 115.235L123.366 96.1016L112.522 97.1066L116.349 109.174L114.558 139.506C113.689 139.708 112.896 140.168 112.275 140.83C111.654 141.491 111.232 142.326 111.061 143.232C110.889 144.138 110.975 145.077 111.309 145.933C111.643 146.789 112.21 147.525 112.94 148.053C113.671 148.581 114.534 148.877 115.424 148.905C116.314 148.933 117.192 148.692 117.952 148.211C118.712 147.73 119.321 147.03 119.704 146.196C120.087 145.363 120.228 144.432 120.11 143.516L123.351 115.235Z" fill="#FFB6B6"/>
<path d="M144.691 251.964L149.071 251.964L151.156 234.438H144.689L144.691 251.964Z" fill="#FFB6B6"/>
<path d="M143.202 249.722L150.128 249.293V252.37L156.712 257.087C157.038 257.32 157.282 257.654 157.411 258.042C157.54 258.429 157.546 258.849 157.429 259.241C157.311 259.632 157.076 259.974 156.758 260.217C156.439 260.46 156.054 260.591 155.659 260.591H147.414L145.993 257.547L145.438 260.591H142.329L143.202 249.722Z" fill="#2F2E41"/>
<path d="M119.359 251.964L123.74 251.964L125.824 234.438H119.358L119.359 251.964Z" fill="#FFB6B6"/>
<path d="M117.871 249.722L124.797 249.293V252.37L131.381 257.087C131.706 257.32 131.951 257.654 132.08 258.042C132.209 258.429 132.215 258.849 132.098 259.241C131.98 259.632 131.745 259.974 131.427 260.217C131.108 260.46 130.723 260.591 130.328 260.591H122.083L120.662 257.547L120.107 260.591H116.998L117.871 249.722Z" fill="#2F2E41"/>
<path d="M140.786 75.4375L131.71 75.6221L125.303 82.6357L120.167 83.4169C117.844 83.7704 115.708 84.9402 114.116 86.7308C112.525 88.5215 111.574 90.8245 111.423 93.2549L112.313 98.324H117.651L120.74 117.131C119.539 120.305 119.457 122.81 121.922 123.794L129.574 138.744L152.175 128.224C153.321 126.18 153.688 124.128 152.517 122.132L154.132 93.3406H159.565C159.565 87.9558 157.809 83.4162 152.649 82.817C150.6 82.587 148.541 82.4649 146.48 82.4511L140.786 75.4375Z" fill="#E6E6E6"/>
<path d="M152.179 128.227C152.179 128.227 130.112 132.287 121.926 123.797C121.926 123.797 121.095 125.26 119.843 127.687C119.483 128.385 118.787 128.858 118.367 129.703C117.986 130.471 117.004 131.416 116.588 132.287C116.253 132.988 116.79 133.904 116.442 134.662C112.25 143.781 107.352 156.646 108.402 165.14C109.079 170.618 110.478 183.365 111.95 197.055C112.066 198.125 111.133 199.499 111.249 200.577C111.358 201.594 112.515 202.314 112.624 203.333C112.697 204.01 111.889 204.7 111.961 205.376C112.04 206.117 113 206.844 113.078 207.583C115.096 226.487 116.944 244.135 116.944 244.135H127.265L129.213 203.827L127.621 189.134L131.358 159.419L136.519 187.658L137.183 203.551L142.637 244.874H152.179V204.87L152.891 202.792L152.179 200.127L152.891 197.255L152.179 194.128V128.227Z" fill="#2F2E41"/>
<path d="M143.572 69.9815C142.166 71.9184 140.166 73.301 137.901 73.9016C135.637 74.5022 133.242 74.2849 131.113 73.2856C128.983 72.2862 127.245 70.5644 126.184 68.4037C125.124 66.243 124.805 63.7722 125.28 61.3983C125.754 59.0243 126.994 56.8888 128.795 55.3433C130.596 53.7979 132.851 52.9347 135.188 52.8959C137.526 52.8571 139.806 53.645 141.654 55.1299C143.502 56.6148 144.807 58.7081 145.354 61.0651C145.384 61.193 145.409 61.3201 145.433 61.4521C145.722 62.9295 145.706 64.4537 145.385 65.924C145.064 67.3943 144.446 68.7773 143.572 69.9815Z" fill="#FFB6B6"/>
<path d="M141.428 63.8926C141.21 62.7566 140.658 61.7185 139.848 60.921C139.928 62.0097 139.782 63.1034 139.421 64.1289C136.715 64.3774 133.997 63.819 131.587 62.5194C129.772 61.2422 127.462 61.3529 124.771 62.5194C124.771 61.1621 125.029 59.818 125.53 58.5639C126.03 57.3098 126.765 56.1703 127.69 55.2105C128.615 54.2507 129.714 53.4894 130.923 52.97C132.132 52.4507 133.428 52.1834 134.737 52.1836H136.517C139.159 52.1841 141.694 53.2732 143.563 55.2114C145.432 57.1497 146.482 59.7784 146.482 62.5194C144.84 63.1304 143.148 63.5899 141.428 63.8926Z" fill="#2F2E41"/>
<path d="M63.5759 195.629C79.3876 195.629 92.2055 182.335 92.2055 165.936C92.2055 149.536 79.3876 136.242 63.5759 136.242C47.7642 136.242 34.9463 149.536 34.9463 165.936C34.9463 182.335 47.7642 195.629 63.5759 195.629Z" fill="#F0F0F0"/>
<path d="M137.018 157.436H61.9146C60.848 157.433 59.826 156.992 59.0717 156.21C58.3175 155.428 57.8925 154.368 57.8896 153.262V115.307C57.8924 114.201 58.3173 113.141 59.0714 112.359C59.8255 111.577 60.8475 111.136 61.914 111.133H137.017C138.084 111.136 139.106 111.576 139.86 112.358C140.614 113.141 141.039 114.201 141.042 115.307V153.261C141.04 154.367 140.615 155.427 139.861 156.21C139.107 156.992 138.085 157.433 137.018 157.436Z" fill="white"/>
<path d="M137.018 157.436H61.9146C60.848 157.433 59.826 156.992 59.0717 156.21C58.3175 155.428 57.8925 154.368 57.8896 153.262V115.307C57.8924 114.201 58.3173 113.141 59.0714 112.359C59.8255 111.577 60.8475 111.136 61.914 111.133H137.017C138.084 111.136 139.106 111.576 139.86 112.358C140.614 113.141 141.039 114.201 141.042 115.307V153.261C141.04 154.367 140.615 155.427 139.861 156.21C139.107 156.992 138.085 157.433 137.018 157.436ZM61.9146 112.297C61.1455 112.3 60.4085 112.618 59.8647 113.182C59.3209 113.746 59.0145 114.51 59.0124 115.308V153.261C59.0146 154.059 59.3212 154.823 59.8651 155.387C60.409 155.951 61.146 156.269 61.9151 156.271H137.017C137.786 156.269 138.523 155.951 139.067 155.387C139.611 154.823 139.918 154.058 139.92 153.261V115.307C139.917 114.51 139.611 113.745 139.067 113.181C138.523 112.617 137.786 112.3 137.017 112.297L61.9146 112.297Z" fill="#3F3D56"/>
<path d="M103.492 151.827C88.6804 151.827 73.2355 151.68 67.4728 151.585C66.7146 151.569 65.9926 151.246 65.4609 150.685C64.9292 150.124 64.6299 149.37 64.627 148.583V117.166C64.6272 116.884 64.7351 116.614 64.9269 116.414C65.1186 116.215 65.3788 116.103 65.6503 116.102H133.281C133.553 116.102 133.813 116.214 134.005 116.413C134.197 116.611 134.306 116.881 134.307 117.163V138.479C134.294 141.959 132.967 145.295 130.61 147.771C128.254 150.248 125.055 151.667 121.7 151.726C116.33 151.798 109.97 151.827 103.492 151.827Z" fill="#00B0FF"/>
<path d="M129.266 136.521H68.156C67.6443 136.519 67.1455 136.354 66.7273 136.048C66.309 135.743 65.9917 135.311 65.8185 134.811L58.9017 114.686C58.7684 114.298 58.7269 113.882 58.7806 113.474C58.8343 113.066 58.9817 112.677 59.2103 112.34C59.439 112.003 59.7423 111.728 60.0947 111.538C60.4472 111.347 60.8385 111.248 61.2357 111.247L137.622 111.137C137.985 111.136 138.344 111.219 138.673 111.378C139.002 111.537 139.294 111.769 139.527 112.057C139.76 112.346 139.93 112.684 140.023 113.048C140.117 113.411 140.133 113.792 140.069 114.163L140.128 114.189L139.909 114.72L139.907 114.725L131.545 134.96C131.355 135.424 131.037 135.818 130.632 136.096C130.226 136.373 129.751 136.521 129.266 136.521ZM137.625 112.301L61.2379 112.411C61.0203 112.412 60.8059 112.466 60.6128 112.571C60.4198 112.675 60.2536 112.825 60.1283 113.01C60.0031 113.195 59.9223 113.408 59.8929 113.631C59.8635 113.855 59.8862 114.083 59.9592 114.295L66.8757 134.42C66.9707 134.693 67.1447 134.93 67.3739 135.097C67.6031 135.265 67.8764 135.355 68.1568 135.356H129.266C129.532 135.356 129.792 135.275 130.013 135.124C130.235 134.972 130.409 134.756 130.513 134.502L138.875 114.266C138.963 114.052 138.999 113.818 138.979 113.585C138.959 113.353 138.884 113.13 138.76 112.935C138.636 112.74 138.468 112.58 138.27 112.47C138.072 112.359 137.85 112.301 137.625 112.301Z" fill="#3F3D56"/>
<path d="M99.3515 140.902C101.994 140.902 104.137 138.68 104.137 135.939C104.137 133.199 101.994 130.977 99.3515 130.977C96.7088 130.977 94.5664 133.199 94.5664 135.939C94.5664 138.68 96.7088 140.902 99.3515 140.902Z" fill="white"/>
<path d="M159.292 110.805L159.307 91.6719L148.463 92.6769L152.29 104.744L138.398 126.586C137.529 126.788 136.736 127.248 136.115 127.91C135.494 128.571 135.072 129.406 134.9 130.312C134.729 131.218 134.815 132.157 135.149 133.013C135.483 133.869 136.05 134.606 136.78 135.133C137.511 135.661 138.374 135.957 139.263 135.985C140.153 136.013 141.032 135.772 141.792 135.291C142.552 134.81 143.161 134.11 143.544 133.276C143.927 132.443 144.068 131.512 143.95 130.597L159.292 110.805Z" fill="#FFB6B6"/>
</svg>
