<svg width="581" height="568" viewBox="0 0 581 568" fill="none" xmlns="http://www.w3.org/2000/svg">
<g clip-path="url(#clip0_148_7116)">
<g clip-path="url(#clip1_148_7116)">
<path d="M124.923 116.074H86.9961C83.3498 116.077 79.8539 117.527 77.2756 120.105C74.6973 122.684 73.2473 126.18 73.244 129.826V170.945C72.7591 170.916 72.2742 170.872 71.7964 170.814C62.8113 169.869 54.2688 166.432 47.1323 160.892C39.9958 155.351 34.5489 147.927 31.4059 139.457C28.2629 130.987 27.5487 121.807 29.3438 112.952C31.1389 104.097 35.372 95.9202 41.5658 89.3427C47.7595 82.7651 55.6676 78.0486 64.3985 75.725C73.1293 73.4014 82.3357 73.563 90.9796 76.1917C99.6235 78.8204 107.361 83.8115 113.32 90.6025C119.279 97.3934 123.223 105.714 124.706 114.626C124.785 115.104 124.858 115.589 124.923 116.074Z" fill="#F2F2F2"/>
<path d="M572.663 114.625H86.9975C82.9677 114.629 79.1042 116.232 76.2546 119.082C73.4051 121.931 71.8023 125.795 71.7979 129.825V386.048C71.8023 390.078 73.4051 393.941 76.2546 396.791C79.1042 399.64 82.9677 401.243 86.9975 401.247H572.663C576.693 401.243 580.557 399.64 583.406 396.791C586.256 393.941 587.859 390.078 587.863 386.048V129.825C587.859 125.795 586.256 121.931 583.406 119.082C580.557 116.232 576.693 114.629 572.663 114.625ZM586.416 386.048C586.412 389.694 584.962 393.19 582.384 395.768C579.806 398.347 576.31 399.797 572.663 399.8H86.9975C83.3513 399.797 79.8553 398.347 77.277 395.768C74.6987 393.19 73.2487 389.694 73.2454 386.048V129.825C73.2487 126.178 74.6987 122.682 77.277 120.104C79.8553 117.526 83.3513 116.076 86.9975 116.073H572.663C576.31 116.076 579.806 117.526 582.384 120.104C584.962 122.682 586.412 126.178 586.416 129.825V386.048Z" fill="#3F3D56"/>
<path d="M548.777 156.159H110.882C110.69 156.159 110.506 156.082 110.37 155.947C110.234 155.811 110.158 155.627 110.158 155.435C110.158 155.243 110.234 155.059 110.37 154.923C110.506 154.787 110.69 154.711 110.882 154.711H548.777C548.969 154.711 549.154 154.787 549.289 154.923C549.425 155.059 549.501 155.243 549.501 155.435C549.501 155.627 549.425 155.811 549.289 155.947C549.154 156.082 548.969 156.159 548.777 156.159Z" fill="#3F3D56"/>
<path d="M234.651 370.123C234.459 370.123 234.275 370.046 234.139 369.911C234.003 369.775 233.927 369.591 233.927 369.399V131.271C233.927 131.079 234.003 130.895 234.139 130.759C234.275 130.623 234.459 130.547 234.651 130.547C234.843 130.547 235.027 130.623 235.162 130.759C235.298 130.895 235.374 131.079 235.374 131.271V369.399C235.374 369.591 235.298 369.775 235.162 369.911C235.027 370.046 234.843 370.123 234.651 370.123Z" fill="#3F3D56"/>
<path d="M343.944 370.123C343.752 370.123 343.567 370.046 343.432 369.911C343.296 369.775 343.22 369.591 343.22 369.399V131.271C343.22 131.079 343.296 130.895 343.432 130.759C343.567 130.623 343.752 130.547 343.944 130.547C344.135 130.547 344.32 130.623 344.455 130.759C344.591 130.895 344.667 131.079 344.667 131.271V369.399C344.667 369.591 344.591 369.775 344.455 369.911C344.32 370.046 344.135 370.123 343.944 370.123Z" fill="#3F3D56"/>
<path d="M453.236 370.123C453.045 370.123 452.86 370.046 452.725 369.911C452.589 369.775 452.513 369.591 452.513 369.399V131.271C452.513 131.079 452.589 130.895 452.725 130.759C452.86 130.623 453.045 130.547 453.236 130.547C453.428 130.547 453.613 130.623 453.748 130.759C453.884 130.895 453.96 131.079 453.96 131.271V369.399C453.96 369.591 453.884 369.775 453.748 369.911C453.613 370.046 453.428 370.123 453.236 370.123Z" fill="#3F3D56"/>
<path d="M164.381 230.849H137.934C137.07 230.848 136.242 230.504 135.632 229.894C135.021 229.283 134.678 228.455 134.677 227.592V196.382C134.678 195.519 135.021 194.691 135.632 194.08C136.242 193.469 137.07 193.126 137.934 193.125H164.381C165.245 193.126 166.073 193.469 166.683 194.08C167.294 194.691 167.637 195.519 167.638 196.382V227.592C167.637 228.455 167.294 229.283 166.683 229.894C166.073 230.504 165.245 230.848 164.381 230.849Z" fill="#00B0FF"/>
<path d="M202.018 319.872H175.571C174.707 319.871 173.879 319.528 173.269 318.917C172.658 318.307 172.314 317.479 172.313 316.615V285.406C172.314 284.542 172.658 283.714 173.269 283.103C173.879 282.493 174.707 282.149 175.571 282.148H202.018C202.882 282.149 203.709 282.493 204.32 283.103C204.931 283.714 205.274 284.542 205.275 285.406V316.615C205.274 317.479 204.931 318.307 204.32 318.917C203.709 319.528 202.882 319.871 202.018 319.872Z" fill="#00B0FF"/>
<path d="M287.426 249.669H260.979C260.115 249.668 259.287 249.325 258.677 248.714C258.066 248.104 257.723 247.276 257.722 246.412V215.202C257.723 214.339 258.066 213.511 258.677 212.9C259.287 212.29 260.115 211.946 260.979 211.945H287.426C288.29 211.946 289.118 212.29 289.728 212.9C290.339 213.511 290.682 214.339 290.683 215.202V246.412C290.682 247.276 290.339 248.104 289.728 248.714C289.118 249.325 288.29 249.668 287.426 249.669Z" fill="#00B0FF"/>
<path d="M398.168 215.669H371.721C370.857 215.668 370.029 215.325 369.419 214.714C368.808 214.104 368.465 213.276 368.464 212.412V181.202C368.465 180.339 368.808 179.511 369.419 178.9C370.029 178.29 370.857 177.946 371.721 177.945H398.168C399.032 177.946 399.86 178.29 400.47 178.9C401.081 179.511 401.424 180.339 401.425 181.202V212.412C401.424 213.276 401.081 214.104 400.47 214.714C399.86 215.325 399.032 215.668 398.168 215.669Z" fill="#00B0FF"/>
<path d="M500.222 215.669H473.775C472.911 215.668 472.083 215.325 471.473 214.714C470.862 214.104 470.519 213.276 470.518 212.412V181.202C470.519 180.339 470.862 179.511 471.473 178.9C472.083 178.29 472.911 177.946 473.775 177.945H500.222C501.086 177.946 501.913 178.29 502.524 178.9C503.135 179.511 503.478 180.339 503.479 181.202V212.412C503.478 213.276 503.135 214.104 502.524 214.714C501.913 215.325 501.086 215.668 500.222 215.669Z" fill="#00B0FF"/>
<path d="M547.268 224.349H520.821C519.957 224.348 519.129 224.004 518.518 223.394C517.908 222.783 517.564 221.955 517.563 221.092V189.882C517.564 189.019 517.908 188.191 518.518 187.58C519.129 186.969 519.957 186.626 520.821 186.625H547.268C548.132 186.626 548.959 186.969 549.57 187.58C550.181 188.191 550.524 189.019 550.525 189.882V221.092C550.524 221.955 550.181 222.783 549.57 223.394C548.959 224.004 548.132 224.348 547.268 224.349Z" fill="#E6E6E6"/>
<path d="M526.28 280.083H499.832C498.969 280.082 498.141 279.739 497.53 279.128C496.92 278.518 496.576 277.69 496.575 276.826V245.616C496.576 244.753 496.92 243.925 497.53 243.314C498.141 242.704 498.969 242.36 499.832 242.359H526.28C527.143 242.36 527.971 242.704 528.582 243.314C529.192 243.925 529.536 244.753 529.537 245.616V276.826C529.536 277.69 529.192 278.518 528.582 279.128C527.971 279.739 527.143 280.082 526.28 280.083Z" fill="#E6E6E6"/>
<path d="M436.529 268.489H410.081C409.218 268.489 408.39 268.145 407.779 267.534C407.169 266.924 406.825 266.096 406.824 265.232V234.023C406.825 233.159 407.169 232.331 407.779 231.721C408.39 231.11 409.218 230.767 410.081 230.766H436.529C437.392 230.767 438.22 231.11 438.831 231.721C439.441 232.331 439.785 233.159 439.786 234.023V265.232C439.785 266.096 439.441 266.924 438.831 267.534C438.22 268.145 437.392 268.489 436.529 268.489Z" fill="#FF6584"/>
<path d="M385.14 280.083H358.693C357.829 280.082 357.001 279.739 356.391 279.128C355.78 278.518 355.437 277.69 355.436 276.826V245.616C355.437 244.753 355.78 243.925 356.391 243.314C357.001 242.704 357.829 242.36 358.693 242.359H385.14C386.004 242.36 386.831 242.704 387.442 243.314C388.053 243.925 388.396 244.753 388.397 245.616V276.826C388.396 277.69 388.053 278.518 387.442 279.128C386.831 279.739 386.004 280.082 385.14 280.083Z" fill="#E6E6E6"/>
<path d="M274.397 329.294H247.949C247.086 329.293 246.258 328.95 245.647 328.339C245.037 327.729 244.693 326.901 244.692 326.037V294.827C244.693 293.964 245.037 293.136 245.647 292.525C246.258 291.915 247.086 291.571 247.949 291.57H274.397C275.26 291.571 276.088 291.915 276.699 292.525C277.31 293.136 277.653 293.964 277.654 294.827V326.037C277.653 326.901 277.31 327.729 276.699 328.339C276.088 328.95 275.26 329.293 274.397 329.294Z" fill="#E6E6E6"/>
<path d="M140.497 288.044H114.049C113.186 288.043 112.358 287.7 111.747 287.089C111.136 286.479 110.793 285.651 110.792 284.787V253.577C110.793 252.714 111.136 251.886 111.747 251.275C112.358 250.665 113.186 250.321 114.049 250.32H140.497C141.36 250.321 142.188 250.665 142.799 251.275C143.409 251.886 143.753 252.714 143.754 253.577V284.787C143.753 285.651 143.409 286.479 142.799 287.089C142.188 287.7 141.36 288.043 140.497 288.044Z" fill="#FF6584"/>
<path d="M215.046 230.849H188.599C187.735 230.848 186.907 230.504 186.297 229.894C185.686 229.283 185.343 228.455 185.342 227.592V196.382C185.343 195.519 185.686 194.691 186.297 194.08C186.907 193.469 187.735 193.126 188.599 193.125H215.046C215.91 193.126 216.738 193.469 217.348 194.08C217.959 194.691 218.302 195.519 218.303 196.382V227.592C218.302 228.455 217.959 229.283 217.348 229.894C216.738 230.504 215.91 230.848 215.046 230.849Z" fill="#E6E6E6"/>
<path d="M193.396 144.298H152.139C151.371 144.298 150.635 143.993 150.092 143.45C149.549 142.907 149.244 142.171 149.244 141.403C149.244 140.635 149.549 139.899 150.092 139.356C150.635 138.813 151.371 138.508 152.139 138.508H193.396C194.163 138.508 194.9 138.813 195.443 139.356C195.986 139.899 196.291 140.635 196.291 141.403C196.291 142.171 195.986 142.907 195.443 143.45C194.9 143.993 194.163 144.298 193.396 144.298Z" fill="#CCCCCC"/>
<path d="M309.925 144.298H268.669C267.901 144.298 267.164 143.993 266.621 143.45C266.078 142.907 265.773 142.171 265.773 141.403C265.773 140.635 266.078 139.899 266.621 139.356C267.164 138.813 267.901 138.508 268.669 138.508H309.925C310.693 138.508 311.429 138.813 311.972 139.356C312.515 139.899 312.82 140.635 312.82 141.403C312.82 142.171 312.515 142.907 311.972 143.45C311.429 143.993 310.693 144.298 309.925 144.298Z" fill="#CCCCCC"/>
<path d="M419.218 144.298H377.962C377.194 144.298 376.457 143.993 375.914 143.45C375.371 142.907 375.066 142.171 375.066 141.403C375.066 140.635 375.371 139.899 375.914 139.356C376.457 138.813 377.194 138.508 377.962 138.508H419.218C419.986 138.508 420.722 138.813 421.265 139.356C421.808 139.899 422.113 140.635 422.113 141.403C422.113 142.171 421.808 142.907 421.265 143.45C420.722 143.993 419.986 144.298 419.218 144.298Z" fill="#CCCCCC"/>
<path d="M521.273 144.298H480.016C479.248 144.298 478.512 143.993 477.969 143.45C477.426 142.907 477.121 142.171 477.121 141.403C477.121 140.635 477.426 139.899 477.969 139.356C478.512 138.813 479.248 138.508 480.016 138.508H521.273C522.04 138.508 522.777 138.813 523.32 139.356C523.863 139.899 524.168 140.635 524.168 141.403C524.168 142.171 523.863 142.907 523.32 143.45C522.777 143.993 522.04 144.298 521.273 144.298Z" fill="#CCCCCC"/>
<path d="M100.989 356.301C99.9297 356.198 98.9063 355.863 97.9907 355.321C97.075 354.779 96.2893 354.043 95.689 353.164C95.0886 352.286 94.6882 351.286 94.5158 350.236C94.3435 349.186 94.4035 348.111 94.6916 347.087L76.1387 329.817L85.9481 327.328L104.192 342.125C105.881 342.723 107.291 343.92 108.156 345.489C109.022 347.057 109.282 348.889 108.887 350.636C108.492 352.383 107.47 353.925 106.014 354.969C104.559 356.014 102.77 356.488 100.989 356.301Z" fill="#FFB8B8"/>
<path d="M126.607 483.946H135.481L139.702 449.719H126.605L126.607 483.946Z" fill="#FFB8B8"/>
<path d="M152.595 492.172L124.706 492.173L124.706 481.398L141.819 481.397C144.677 481.397 147.418 482.532 149.438 484.553C151.459 486.574 152.595 489.314 152.595 492.172Z" fill="#2F2E41"/>
<path d="M65.7656 477.535L74.3411 479.818L87.2254 447.829L74.5699 444.461L65.7656 477.535Z" fill="#FFB8B8"/>
<path d="M88.7607 492.195L61.8109 485.022L64.5824 474.609L81.1199 479.011C83.8814 479.746 86.2378 481.548 87.6708 484.021C89.1037 486.493 89.4958 489.434 88.7607 492.195Z" fill="#2F2E41"/>
<path d="M137.868 477.478H124.328C123.472 477.481 122.647 477.164 122.014 476.589C121.381 476.013 120.986 475.222 120.907 474.371L112.687 389.012C112.627 388.386 112.351 387.801 111.907 387.355C111.462 386.91 110.877 386.634 110.251 386.573C109.625 386.511 108.997 386.67 108.475 387.02C107.953 387.371 107.569 387.892 107.388 388.495L83.5223 468.257C83.2699 469.104 82.6999 469.822 81.9313 470.26C81.1626 470.697 80.2546 470.821 79.3967 470.606L66.8004 467.456C66.3608 467.347 65.9473 467.151 65.5836 466.881C65.2199 466.61 64.9133 466.271 64.6813 465.881C64.4494 465.492 64.2968 465.061 64.2323 464.612C64.1678 464.164 64.1926 463.707 64.3053 463.268C64.511 462.464 84.8688 382.906 85.0466 382.088C89.6592 348.093 95.1776 338.984 98.1422 334.09C98.3876 333.685 98.6131 333.313 98.8161 332.961C99.0702 332.52 100.635 328.152 101.627 325.314C101.756 324.853 101.979 324.423 102.282 324.052C102.586 323.681 102.963 323.377 103.39 323.159C115.847 316.789 130.421 321.198 134.592 322.702C135.283 322.945 135.877 323.406 136.284 324.016C148.795 342.886 142.655 452.483 141.297 474.262C141.241 475.133 140.855 475.95 140.218 476.547C139.581 477.145 138.741 477.477 137.868 477.478Z" fill="#2F2E41"/>
<path d="M102.926 261.25C112.744 261.25 120.703 253.29 120.703 243.472C120.703 233.654 112.744 225.695 102.926 225.695C93.1075 225.695 85.1484 233.654 85.1484 243.472C85.1484 253.29 93.1075 261.25 102.926 261.25Z" fill="#FFB8B8"/>
<path d="M101.043 328.751L100.915 328.627C100.676 328.396 76.9896 305.191 80.055 283.735C81.366 274.557 88.7914 268.693 101.528 266.776C106.208 266.081 110.98 267.098 114.97 269.641C118.959 272.183 121.896 276.08 123.242 280.615L135.836 323.67L101.043 328.751Z" fill="#CCCCCC"/>
<path d="M88.9206 345.252L72.0429 328.481C70.8889 327.328 70.051 325.897 69.6099 324.326C69.1689 322.755 69.1394 321.097 69.5243 319.512L77.6949 286.276C77.9397 285.28 78.3862 284.345 79.0069 283.529C79.6276 282.712 80.4093 282.032 81.3035 281.53C82.1977 281.028 83.1855 280.715 84.2057 280.61C85.2259 280.505 86.2567 280.61 87.2345 280.92C89.0981 281.52 90.6547 282.823 91.5746 284.551C92.4945 286.28 92.7055 288.299 92.1628 290.18L83.5609 319.419L97.471 334.355L88.9206 345.252Z" fill="#CCCCCC"/>
<path d="M179.447 288.016C179 288.982 178.348 289.838 177.535 290.524C176.722 291.211 175.768 291.711 174.741 291.989C173.714 292.267 172.638 292.316 171.59 292.133C170.542 291.951 169.546 291.541 168.674 290.932L146.143 302.61L147.138 292.69L167.113 280.328C168.233 278.93 169.827 277.991 171.593 277.69C173.359 277.389 175.174 277.746 176.694 278.694C178.215 279.641 179.335 281.114 179.842 282.832C180.349 284.55 180.208 286.394 179.447 288.016Z" fill="#FFB8B8"/>
<path d="M166.212 295.405L144.248 304.896C142.786 305.523 141.187 305.763 139.606 305.593C138.024 305.424 136.513 304.85 135.217 303.927L107.287 283.915C106.453 283.318 105.751 282.556 105.224 281.676C104.696 280.797 104.355 279.818 104.221 278.801C104.087 277.785 104.164 276.751 104.445 275.765C104.727 274.779 105.208 273.861 105.858 273.068C107.108 271.561 108.896 270.6 110.843 270.388C112.789 270.176 114.742 270.73 116.287 271.934L140.236 290.783L159.272 283.418L166.212 295.405Z" fill="#CCCCCC"/>
<path d="M105.874 249.178C108.067 246.43 112.164 246.282 115.177 244.47C119.123 242.096 120.754 236.79 119.482 232.364C118.211 227.938 114.461 224.488 110.161 222.838C105.861 221.189 101.078 221.168 96.5421 221.966C89.789 223.153 83.1403 226.305 79.0216 231.787C74.9029 237.269 73.8547 245.297 77.5874 251.049C79.303 253.692 81.9513 255.874 82.6362 258.95C83.5354 262.989 80.7027 266.884 77.6679 269.696C74.2106 272.9 70.244 275.583 67.215 279.194C64.1859 282.806 62.166 287.74 63.5482 292.246C64.7063 296.021 68.0762 298.803 71.7716 300.196C75.4669 301.589 79.4916 301.79 83.44 301.868C87.2741 301.943 91.3465 301.849 94.5763 299.782C98.034 297.569 99.8801 293.37 100.017 289.267C100.153 285.164 98.7819 281.145 96.9443 277.474C95.849 275.285 94.5756 273.165 93.8478 270.829C93.12 268.493 92.9939 265.842 94.1594 263.69C95.3846 261.429 97.8632 260.065 100.387 259.569C100.518 259.543 100.657 259.52 100.802 259.5C101.52 259.406 102.212 259.169 102.835 258.801C103.459 258.432 104.001 257.942 104.43 257.358C104.858 256.774 105.164 256.11 105.328 255.404C105.493 254.699 105.512 253.968 105.386 253.255C105.098 251.652 105.123 250.118 105.874 249.178Z" fill="#2F2E41"/>
<path d="M342.895 484.711H334.021L329.8 450.484L342.896 450.485L342.895 484.711Z" fill="#A0616A"/>
<path d="M327.684 482.164H344.798V492.939H316.909C316.909 491.524 317.188 490.123 317.729 488.816C318.271 487.508 319.065 486.321 320.065 485.32C321.066 484.319 322.253 483.526 323.561 482.984C324.868 482.443 326.269 482.164 327.684 482.164Z" fill="#2F2E41"/>
<path d="M407.282 474.641L399.211 478.327L381.149 448.949L393.062 443.508L407.282 474.641Z" fill="#A0616A"/>
<path d="M392.392 478.656L407.958 471.546L412.435 481.347L387.067 492.934C386.48 491.647 386.151 490.257 386.1 488.842C386.05 487.428 386.278 486.018 386.773 484.692C387.267 483.367 388.018 482.151 388.982 481.115C389.946 480.08 391.105 479.244 392.392 478.656Z" fill="#2F2E41"/>
<path d="M381.439 369.298C382.29 368.658 382.989 367.839 383.489 366.9C383.988 365.961 384.276 364.923 384.331 363.86C384.387 362.798 384.208 361.736 383.809 360.75C383.409 359.764 382.798 358.877 382.019 358.152L392.45 334.484L379.199 336.73L371.325 358.861C370.194 360.251 369.613 362.007 369.69 363.797C369.768 365.587 370.5 367.286 371.747 368.572C372.993 369.859 374.669 370.643 376.455 370.777C378.242 370.91 380.015 370.384 381.439 369.298Z" fill="#A0616A"/>
<path d="M342.33 475.69H333.853C333.031 475.687 332.24 475.375 331.638 474.815C331.036 474.255 330.667 473.489 330.604 472.669L325.981 349.22C325.947 348.747 326.016 348.272 326.184 347.828C326.353 347.385 326.616 346.983 326.955 346.652C327.295 346.321 327.703 346.068 328.15 345.911C328.598 345.753 329.074 345.696 329.546 345.742L378.572 350.948C379.367 351.026 380.105 351.393 380.647 351.979C381.189 352.565 381.497 353.33 381.512 354.129L382.54 408.583C382.545 408.879 382.603 409.171 382.709 409.447L402.82 461.599C402.975 462.001 403.049 462.431 403.037 462.863C403.024 463.294 402.926 463.719 402.748 464.113C402.57 464.506 402.316 464.86 402 465.154C401.684 465.449 401.312 465.677 400.907 465.826L392.317 468.991C391.57 469.266 390.75 469.258 390.009 468.97C389.268 468.681 388.658 468.132 388.294 467.425L363.589 419.387C363.455 419.126 363.356 418.848 363.297 418.56L359.076 398.226C358.954 397.637 358.625 397.11 358.15 396.741C357.674 396.371 357.083 396.183 356.481 396.21C355.88 396.238 355.308 396.478 354.867 396.889C354.427 397.3 354.148 397.854 354.079 398.452L345.566 472.803C345.475 473.598 345.095 474.331 344.498 474.864C343.901 475.396 343.129 475.69 342.33 475.69Z" fill="#2F2E41"/>
<path d="M346.551 252.679C356.369 252.679 364.328 244.72 364.328 234.902C364.328 225.084 356.369 217.125 346.551 217.125C336.733 217.125 328.773 225.084 328.773 234.902C328.773 244.72 336.733 252.679 346.551 252.679Z" fill="#A0616A"/>
<path d="M358.744 360.487C346.688 360.354 334.92 356.79 324.818 350.211L324.645 350.091L324.662 349.882L331.462 270.687C331.697 268 332.896 265.489 334.839 263.618C336.781 261.747 339.335 260.643 342.029 260.509C350.842 260.104 362.68 260.615 369.016 265.335C378.593 272.467 383.208 283.208 381.68 294.802C378.509 318.846 382.101 351.279 382.52 354.898L382.551 355.159L382.312 355.268C374.93 358.703 366.886 360.484 358.744 360.487Z" fill="#00B0FF"/>
<path d="M382.438 355.035C381.937 355.034 381.442 354.929 380.983 354.727C380.525 354.525 380.113 354.23 379.774 353.861L375.886 349.618C375.465 349.157 375.171 348.596 375.03 347.988C374.89 347.38 374.908 346.747 375.083 346.148L383.95 316.137L370.458 287.805C369.828 286.478 369.674 284.976 370.021 283.549C370.327 282.297 371.006 281.167 371.967 280.308C372.929 279.449 374.128 278.902 375.407 278.739C376.686 278.576 377.984 278.804 379.13 279.393C380.277 279.983 381.218 280.906 381.829 282.041L400.137 311.747C400.881 312.952 401.317 314.321 401.408 315.734C401.499 317.148 401.241 318.562 400.658 319.852L385.741 352.904C385.495 353.45 385.117 353.927 384.641 354.291C384.165 354.655 383.606 354.895 383.015 354.989C382.824 355.019 382.631 355.035 382.438 355.035Z" fill="#00B0FF"/>
<path d="M257.133 297.71C257.987 298.345 258.969 298.785 260.012 298.999C261.054 299.213 262.131 299.196 263.166 298.949C264.201 298.702 265.169 298.232 266.002 297.57C266.836 296.908 267.514 296.072 267.989 295.12L293.639 298.447L287.744 286.368L264.29 285.061C262.638 284.368 260.789 284.306 259.094 284.886C257.399 285.466 255.976 286.647 255.093 288.206C254.211 289.765 253.932 291.594 254.307 293.346C254.683 295.097 255.689 296.65 257.133 297.71Z" fill="#A0616A"/>
<path d="M313.67 304.307C313.223 304.307 312.777 304.276 312.334 304.214L271.982 298.618C271.323 298.527 270.696 298.274 270.159 297.881C269.622 297.488 269.191 296.967 268.906 296.366C268.813 296.172 268.736 295.971 268.675 295.766C268.519 295.231 268.476 294.67 268.547 294.118C268.619 293.566 268.804 293.035 269.091 292.558L272.431 287.022C272.79 286.43 273.295 285.941 273.898 285.6C274.501 285.26 275.181 285.08 275.873 285.078H275.878L311.052 285.118L337.321 261.582C338.543 260.49 340.104 259.851 341.742 259.773C343.179 259.707 344.603 260.077 345.826 260.837C347.049 261.596 348.012 262.708 348.59 264.026C349.168 265.344 349.333 266.806 349.063 268.22C348.793 269.633 348.101 270.932 347.078 271.944L320.865 301.097C319.958 302.107 318.849 302.915 317.609 303.468C316.369 304.021 315.027 304.307 313.67 304.307Z" fill="#00B0FF"/>
<path d="M348.572 250.711C350.197 246.952 351.572 241.944 348.456 239.286C346.648 237.744 344.045 237.741 341.677 237.549C335.006 237.009 328.138 233.939 324.877 228.094C321.616 222.249 323.437 213.557 329.589 210.92C333.736 209.142 338.49 210.353 342.831 211.584L355.863 215.28C359.736 216.378 363.801 217.589 366.589 220.492C371.035 225.122 370.703 232.95 367.171 238.31C363.64 243.671 358.322 249.262 352.234 251.297L348.572 250.711Z" fill="#2F2E41"/>
<path d="M528.372 493.177H-6.00092C-6.11431 493.177 -6.22664 493.155 -6.33149 493.112C-6.43634 493.069 -6.53163 493.005 -6.61192 492.925C-6.69222 492.845 -6.75592 492.75 -6.79939 492.645C-6.84286 492.541 -6.86523 492.428 -6.86523 492.315C-6.86523 492.202 -6.84286 492.089 -6.79939 491.985C-6.75592 491.88 -6.69222 491.785 -6.61192 491.705C-6.53163 491.625 -6.43634 491.561 -6.33149 491.518C-6.22664 491.475 -6.11431 491.453 -6.00092 491.453H528.372C528.485 491.453 528.598 491.475 528.703 491.518C528.807 491.561 528.903 491.625 528.983 491.705C529.063 491.785 529.127 491.88 529.17 491.985C529.214 492.089 529.236 492.202 529.236 492.315C529.236 492.428 529.214 492.541 529.17 492.645C529.127 492.75 529.063 492.845 528.983 492.925C528.903 493.005 528.807 493.069 528.703 493.112C528.598 493.155 528.485 493.177 528.372 493.177Z" fill="#3F3D56"/>
</g>
</g>
<defs>
<clipPath id="clip0_148_7116">
<rect width="581" height="567.276" fill="white"/>
</clipPath>
<clipPath id="clip1_148_7116">
<rect width="594.724" height="419.084" fill="white" transform="translate(-6.8623 74.0938)"/>
</clipPath>
</defs>
</svg>
