<svg width="15" height="15" viewBox="0 0 15 15" fill="none" xmlns="http://www.w3.org/2000/svg">
<path d="M14.0039 2.13965H1.00391C0.727344 2.13965 0.503906 2.36309 0.503906 2.63965V12.6396C0.503906 12.9162 0.727344 13.1396 1.00391 13.1396H14.0039C14.2805 13.1396 14.5039 12.9162 14.5039 12.6396V2.63965C14.5039 2.36309 14.2805 2.13965 14.0039 2.13965ZM12.7414 3.84121L7.81172 7.67715C7.68984 7.77246 7.51953 7.77246 7.39766 7.67715L2.46641 3.84121C2.44782 3.82686 2.43418 3.80706 2.42741 3.78458C2.42065 3.76209 2.42108 3.73805 2.42866 3.71583C2.43624 3.69361 2.45059 3.67431 2.46968 3.66065C2.48878 3.64699 2.51168 3.63964 2.53516 3.63965H12.6727C12.6961 3.63964 12.719 3.64699 12.7381 3.66065C12.7572 3.67431 12.7716 3.69361 12.7792 3.71583C12.7867 3.73805 12.7872 3.76209 12.7804 3.78458C12.7736 3.80706 12.76 3.82686 12.7414 3.84121Z" fill="white"/>
</svg>
