<svg width="15" height="15" viewBox="0 0 15 15" fill="none" xmlns="http://www.w3.org/2000/svg">
<path d="M11.4471 12.9771L13.1096 11.3131C13.2275 11.1957 13.321 11.0562 13.3848 10.9025C13.4487 10.7489 13.4815 10.5841 13.4814 10.4178C13.4814 10.0787 13.3486 9.75996 13.1096 9.5209L11.3189 7.73027C11.2016 7.61237 11.062 7.51883 10.9084 7.45501C10.7547 7.39119 10.59 7.35836 10.4236 7.3584C10.0846 7.3584 9.76582 7.49121 9.52676 7.73027L8.21738 9.03965C7.54182 8.73315 6.92725 8.30703 6.40332 7.78184C5.87685 7.25796 5.44918 6.64344 5.14082 5.96777L6.4502 4.6584C6.5681 4.54101 6.66164 4.40149 6.72546 4.24785C6.78928 4.0942 6.82211 3.92946 6.82207 3.76309C6.82207 3.42402 6.68926 3.10527 6.4502 2.86621L4.66113 1.07402C4.54353 0.955979 4.40375 0.862352 4.24983 0.798531C4.09591 0.73471 3.93089 0.701955 3.76426 0.702149C3.42519 0.702149 3.10645 0.834962 2.86738 1.07402L1.20645 2.73496C0.823633 3.11621 0.606445 3.64277 0.606445 4.1834C0.606445 4.29746 0.61582 4.40684 0.63457 4.51465C0.981445 6.6209 2.10176 8.70996 3.78613 10.3959C5.46895 12.0803 7.55645 13.199 9.66895 13.5506C10.3143 13.6568 10.9783 13.4428 11.4471 12.9771Z" fill="white"/>
</svg>
