<svg width="15" height="15" viewBox="0 0 15 15" fill="none" xmlns="http://www.w3.org/2000/svg">
<path d="M7.68457 0.140625C3.81895 0.140625 0.68457 3.275 0.68457 7.14062C0.68457 11.0063 3.81895 14.1406 7.68457 14.1406C11.5502 14.1406 14.6846 11.0063 14.6846 7.14062C14.6846 3.275 11.5502 0.140625 7.68457 0.140625ZM10.708 4.85469L7.41738 9.41719C7.37139 9.48138 7.31076 9.53369 7.24052 9.56977C7.17028 9.60585 7.09244 9.62468 7.01348 9.62468C6.93451 9.62468 6.85668 9.60585 6.78643 9.56977C6.71619 9.53369 6.65556 9.48138 6.60957 9.41719L4.66113 6.71719C4.60176 6.63438 4.66113 6.51875 4.7627 6.51875H5.49551C5.65488 6.51875 5.80645 6.59531 5.9002 6.72656L7.0127 8.27031L9.46895 4.86406C9.5627 4.73438 9.7127 4.65625 9.87363 4.65625H10.6064C10.708 4.65625 10.7674 4.77188 10.708 4.85469Z" fill="white"/>
</svg>
