<svg width="13" height="12" viewBox="0 0 13 12" fill="none" xmlns="http://www.w3.org/2000/svg">
<path d="M6.20444 0.307617C9.42619 0.307617 12.0378 2.9192 12.0378 6.14095C12.0378 9.3627 9.42619 11.9743 6.20444 11.9743C5.17354 11.9761 4.16078 11.7032 3.27027 11.1839L0.373436 11.9743L1.1621 9.07628C0.642329 8.18549 0.369296 7.17229 0.371103 6.14095C0.371103 2.9192 2.98269 0.307617 6.20444 0.307617ZM4.21644 3.39928L4.09977 3.40395C4.02434 3.40915 3.95064 3.42896 3.88277 3.46228C3.81952 3.49817 3.76176 3.54296 3.71127 3.59528C3.64127 3.6612 3.6016 3.71837 3.55902 3.77378C3.34326 4.05431 3.22709 4.39872 3.22885 4.75262C3.23002 5.03845 3.30469 5.3167 3.42135 5.57687C3.65994 6.10303 4.05252 6.66012 4.57052 7.17637C4.69535 7.30062 4.81785 7.42545 4.94969 7.54153C5.59335 8.10818 6.36035 8.51685 7.18969 8.73503L7.52102 8.78578C7.62894 8.79162 7.73685 8.78345 7.84535 8.7782C8.01521 8.76924 8.18106 8.72325 8.33127 8.64345C8.4076 8.60398 8.48214 8.56116 8.55469 8.51512C8.55469 8.51512 8.57938 8.49839 8.6276 8.46262C8.70635 8.40428 8.75477 8.36287 8.8201 8.29462C8.8691 8.24406 8.90994 8.18534 8.9426 8.11845C8.9881 8.02337 9.0336 7.84195 9.05227 7.69087C9.06627 7.57537 9.06219 7.51237 9.06044 7.47328C9.0581 7.41087 9.00619 7.34612 8.9496 7.3187L8.6101 7.16645C8.6101 7.16645 8.1026 6.94537 7.79227 6.8042C7.75978 6.79006 7.72499 6.78195 7.6896 6.78028C7.64969 6.77611 7.60934 6.78056 7.5713 6.79334C7.53325 6.80613 7.4984 6.82694 7.4691 6.85437C7.46619 6.8532 7.4271 6.88645 7.00535 7.39745C6.98115 7.42998 6.9478 7.45456 6.90957 7.46807C6.87134 7.48157 6.82995 7.48339 6.79069 7.47328C6.75267 7.46315 6.71543 7.45028 6.67927 7.43478C6.60694 7.40445 6.58185 7.39278 6.53227 7.37178C6.19736 7.2259 5.88736 7.02848 5.61352 6.7867C5.54002 6.72253 5.47177 6.65253 5.40177 6.58487C5.17229 6.36507 4.97229 6.11644 4.80677 5.8452L4.77235 5.78978C4.74801 5.75233 4.72804 5.71221 4.71285 5.6702C4.69069 5.58445 4.74844 5.51562 4.74844 5.51562C4.74844 5.51562 4.89019 5.36045 4.9561 5.27645C5.02027 5.19478 5.07452 5.11545 5.10952 5.05887C5.17835 4.94803 5.19994 4.83428 5.16377 4.7462C5.00044 4.3472 4.83166 3.95034 4.65744 3.55562C4.62302 3.47745 4.52094 3.42145 4.42819 3.41037C4.39669 3.40648 4.36519 3.40337 4.33369 3.40103C4.25536 3.39654 4.17682 3.39732 4.0986 3.40337L4.21644 3.39928Z" fill="white"/>
</svg>
