<svg width="198" height="180" viewBox="0 0 198 180" fill="none" xmlns="http://www.w3.org/2000/svg">
<g clip-path="url(#clip0_148_6957)">
<g clip-path="url(#clip1_148_6957)">
<g clip-path="url(#clip2_148_6957)">
<path d="M84.0396 173.839C84.7603 173.885 85.1585 172.989 84.6133 172.467L84.5591 172.252C84.5662 172.234 84.5734 172.217 84.5806 172.2C85.3094 170.462 87.7794 170.474 88.502 172.215C89.1434 173.759 89.9599 175.307 90.161 176.94C90.2511 177.661 90.2106 178.395 90.0506 179.103C91.5534 175.82 92.3442 172.235 92.3442 168.63C92.3442 167.725 92.2946 166.819 92.1933 165.915C92.1099 165.176 91.995 164.442 91.8463 163.714C91.0419 159.78 89.3003 156.034 86.7881 152.904C85.5805 152.244 84.5734 151.212 83.965 149.975C83.7465 149.529 83.5753 149.049 83.4941 148.56C83.6316 148.578 84.0124 146.485 83.9087 146.357C84.1002 146.066 84.443 145.921 84.6522 145.638C85.6926 144.227 87.1259 144.474 87.8741 146.39C89.4726 147.197 89.488 148.535 88.5072 149.822C87.8833 150.64 87.7975 151.748 87.25 152.625C87.3064 152.697 87.3649 152.767 87.4213 152.839C88.4542 154.163 89.3475 155.587 90.1007 157.083C89.8878 155.421 90.2021 153.418 90.7378 152.127C91.3476 150.656 92.4906 149.417 93.4972 148.145C94.7063 146.617 97.1856 147.284 97.3986 149.22C97.4006 149.239 97.4026 149.258 97.4046 149.277C97.2551 149.361 97.1086 149.45 96.9656 149.545C96.1495 150.085 96.4315 151.35 97.3985 151.499L97.4204 151.503C97.3663 152.041 97.2739 152.575 97.1388 153.1C98.4301 158.094 95.6422 159.913 91.6615 159.994C91.5737 160.039 91.488 160.085 91.4002 160.127C91.8035 161.263 92.1257 162.428 92.3645 163.608C92.5785 164.651 92.7272 165.706 92.8106 166.765C92.9143 168.101 92.9052 169.444 92.7926 170.778L92.7993 170.73C93.0855 169.261 93.8831 167.889 95.0412 166.938C96.7663 165.521 99.2037 164.999 101.065 163.86C101.961 163.312 103.109 164.02 102.953 165.059L102.945 165.109C102.668 165.222 102.397 165.352 102.136 165.499C101.987 165.583 101.84 165.673 101.697 165.767C100.881 166.307 101.163 167.572 102.13 167.721L102.152 167.725C102.168 167.727 102.181 167.729 102.197 167.731C101.721 168.86 101.059 169.908 100.23 170.811C99.4226 175.171 95.9547 175.584 92.2451 174.315H92.2428C91.8373 176.081 91.2447 177.807 90.4832 179.452H84.1971C84.1746 179.382 84.1543 179.31 84.134 179.24C84.7153 179.276 85.3011 179.242 85.8734 179.137C85.407 178.564 84.9406 177.987 84.4742 177.415C84.463 177.404 84.4539 177.393 84.4449 177.381C84.2084 177.088 83.9695 176.798 83.733 176.505L83.7328 176.505C83.718 175.605 83.826 174.709 84.0396 173.839Z" fill="#F2F2F2"/>
<path d="M0.547852 179.575C0.547852 179.806 0.732744 179.99 0.962985 179.99H141.644C141.874 179.99 142.059 179.806 142.059 179.575C142.059 179.345 141.874 179.16 141.644 179.16H0.962985C0.732744 179.16 0.547852 179.345 0.547852 179.575Z" fill="#CCCCCC"/>
<path d="M190.573 179.9H118.521C114.727 179.9 111.641 176.813 111.641 173.019V30.1541C111.641 26.3601 114.727 23.2734 118.521 23.2734H190.573C194.367 23.2734 197.454 26.3601 197.454 30.1541V173.019C197.454 176.813 194.367 179.9 190.573 179.9ZM118.521 23.9711C115.106 23.9711 112.338 26.7392 112.338 30.1539V173.019C112.338 176.434 115.106 179.202 118.521 179.202H190.573C193.988 179.202 196.756 176.434 196.756 173.019V75.8444C196.756 47.1956 173.532 23.9711 144.883 23.9711H118.521Z" fill="#E6E6E6"/>
<path d="M132.104 93.7792C136.728 93.7792 140.476 90.0309 140.476 85.4072C140.476 80.7834 136.728 77.0352 132.104 77.0352C127.481 77.0352 123.732 80.7834 123.732 85.4072C123.732 90.0309 127.481 93.7792 132.104 93.7792Z" fill="#E6E6E6"/>
<path d="M176.987 93.7792C181.611 93.7792 185.359 90.0309 185.359 85.4072C185.359 80.7834 181.611 77.0352 176.987 77.0352C172.364 77.0352 168.615 80.7834 168.615 85.4072C168.615 90.0309 172.364 93.7792 176.987 93.7792Z" fill="#E6E6E6"/>
<path d="M154.546 93.7792C159.17 93.7792 162.918 90.0309 162.918 85.4072C162.918 80.7834 159.17 77.0352 154.546 77.0352C149.922 77.0352 146.174 80.7834 146.174 85.4072C146.174 90.0309 149.922 93.7792 154.546 93.7792Z" fill="#E6E6E6"/>
<path d="M132.104 117.85C136.728 117.85 140.476 114.101 140.476 109.477C140.476 104.854 136.728 101.105 132.104 101.105C127.481 101.105 123.732 104.854 123.732 109.477C123.732 114.101 127.481 117.85 132.104 117.85Z" fill="#E6E6E6"/>
<path d="M176.988 117.85C181.612 117.85 185.36 114.101 185.36 109.477C185.36 104.854 181.612 101.105 176.988 101.105C172.364 101.105 168.616 104.854 168.616 109.477C168.616 114.101 172.364 117.85 176.988 117.85Z" fill="#E6E6E6"/>
<path d="M154.547 117.85C159.171 117.85 162.919 114.101 162.919 109.477C162.919 104.854 159.171 101.105 154.547 101.105C149.923 101.105 146.175 104.854 146.175 109.477C146.175 114.101 149.923 117.85 154.547 117.85Z" fill="#E6E6E6"/>
<path d="M132.104 141.92C136.728 141.92 140.476 138.172 140.476 133.548C140.476 128.924 136.728 125.176 132.104 125.176C127.481 125.176 123.732 128.924 123.732 133.548C123.732 138.172 127.481 141.92 132.104 141.92Z" fill="#E6E6E6"/>
<path d="M176.816 165.947C181.44 165.947 185.188 162.199 185.188 157.575C185.188 152.951 181.44 149.203 176.816 149.203C172.193 149.203 168.444 152.951 168.444 157.575C168.444 162.199 172.193 165.947 176.816 165.947Z" fill="#E6E6E6"/>
<path d="M143.503 165.947C154.388 165.947 163.212 162.199 163.212 157.575C163.212 152.951 154.388 149.203 143.503 149.203C132.618 149.203 123.794 152.951 123.794 157.575C123.794 162.199 132.618 165.947 143.503 165.947Z" fill="#E6E6E6"/>
<path d="M176.988 141.92C181.612 141.92 185.36 138.172 185.36 133.548C185.36 128.924 181.612 125.176 176.988 125.176C172.364 125.176 168.616 128.924 168.616 133.548C168.616 138.172 172.364 141.92 176.988 141.92Z" fill="#E6E6E6"/>
<path d="M154.547 141.92C159.171 141.92 162.919 138.172 162.919 133.548C162.919 128.924 159.171 125.176 154.547 125.176C149.923 125.176 146.175 128.924 146.175 133.548C146.175 138.172 149.923 141.92 154.547 141.92Z" fill="#00B0FF"/>
<path d="M156.192 33.0391H76.1231C73.7489 33.0391 71.8184 34.9696 71.8184 37.3438V66.7572C71.8184 69.1314 73.7489 71.062 76.1231 71.062H156.192C158.566 71.062 160.497 69.1314 160.497 66.7572V37.3438C160.497 34.9696 158.566 33.0391 156.192 33.0391Z" fill="white"/>
<path d="M156.192 33.0391H76.1231C73.7489 33.0391 71.8184 34.9696 71.8184 37.3438V66.7572C71.8184 69.1314 73.7489 71.062 76.1231 71.062H156.192C158.566 71.062 160.497 69.1314 160.497 66.7572V37.3438C160.497 34.9696 158.566 33.0391 156.192 33.0391ZM160.044 66.7572C160.044 68.8825 158.317 70.6093 156.192 70.6093H76.1231C73.9979 70.6093 72.271 68.8825 72.271 66.7572V37.3438C72.271 35.2186 73.9979 33.4917 76.1231 33.4917H156.192C158.317 33.4917 160.044 35.2186 160.044 37.3438V66.7572Z" fill="#3F3D56"/>
<path d="M151.738 50.832H80.5754C79.9011 50.832 79.3545 51.3787 79.3545 52.053C79.3545 52.7272 79.9011 53.2739 80.5754 53.2739H151.738C152.412 53.2739 152.958 52.7272 152.958 52.053C152.958 51.3787 152.412 50.832 151.738 50.832Z" fill="#00B0FF"/>
<path d="M24.2522 86.2113L23.5391 90.4582L29.8637 105.843L33.257 104.099L29.9542 89.7015L29.4795 84.207L24.2522 86.2113Z" fill="#A0616A"/>
<path d="M31.2328 62.3194C31.2328 62.3194 27.9214 60.7154 25.3519 66.1353C22.7824 71.5552 23.1006 83.4424 23.1006 83.4424C23.1006 83.4424 22.165 84.3333 22.7589 84.9571C23.3529 85.5808 23.9066 86.5707 23.3007 87.7118C22.9814 88.3131 22.2423 89.4897 23.4526 89.8239C24.6628 90.1581 30.3239 88.5792 30.3239 88.5792C30.3239 88.5792 32.4407 87.6309 31.2379 86.9923C30.0352 86.3536 31.7291 82.4904 31.7291 82.4904L33.1288 71.3307L31.2328 62.3194Z" fill="#00B0FF"/>
<path d="M33.8334 111.723C35.1625 111.315 35.6827 109.169 34.9953 106.931C34.3079 104.692 32.6732 103.208 31.3441 103.616C30.015 104.025 29.4948 106.17 30.1822 108.409C30.8696 110.647 32.5043 112.131 33.8334 111.723Z" fill="#A0616A"/>
<path d="M65.1797 177.657L68.3492 176.806L66.5765 164.176L61.8984 165.431L65.1797 177.657Z" fill="#A0616A"/>
<path d="M76.0208 174.672C76.164 174.812 76.3601 175.334 76.4119 175.528C76.5714 176.122 76.2189 176.733 75.6248 176.892L65.8087 179.526C65.4034 179.635 64.9866 179.394 64.8779 178.989L64.7682 178.58C64.7682 178.58 63.953 177.482 64.5466 175.7C64.5466 175.7 66.1072 176.552 67.4657 174.197L67.7471 173.059L72.4882 174.894L74.7575 174.575C75.254 174.505 75.6618 174.322 76.0208 174.672Z" fill="#2F2E41"/>
<path d="M34.11 177.585L37.3918 177.584L38.953 164.926L34.1094 164.926L34.11 177.585Z" fill="#A0616A"/>
<path d="M45.3536 177.511C45.4558 177.683 45.5097 178.239 45.5097 178.439C45.5097 179.054 45.0111 179.553 44.3959 179.553H34.2325C33.8129 179.553 33.4727 179.213 33.4727 178.793V178.37C33.4727 178.37 32.9699 177.098 34.005 175.531C34.005 175.531 35.2915 176.758 37.2139 174.836L37.7808 173.809L41.8843 176.81L44.1589 177.09C44.6565 177.151 45.0977 177.08 45.3536 177.511Z" fill="#2F2E41"/>
<path d="M55.9511 102.184L64.5807 139.381L68.7468 169.436L62.2001 170.328L44.048 119.145L39.882 170.328L32.4426 170.924C32.4426 170.924 26.4911 110.218 29.1693 102.779L55.9511 102.184Z" fill="#2F2E41"/>
<path d="M66.2222 58.199L69.1997 55.0878L72.619 38.8088L68.832 38.3438L63.469 52.1069L60.7725 56.9176L66.2222 58.199Z" fill="#A0616A"/>
<path d="M47.0156 74.0331C47.0156 74.0331 49.8022 79.1712 54.9744 76.1336C60.1465 73.096 65.6166 61.1366 65.6166 61.1366C65.6166 61.1366 66.7088 58.0965 67.8514 57.4935C68.4536 57.1757 70.0031 56.8329 69.1902 55.8761C68.3772 54.9193 62.531 52.8275 62.531 52.8275C62.531 52.8275 60.2473 52.4216 60.8829 53.626C61.5185 54.8304 59.4309 54.0843 59.6417 55.3589C59.8524 56.6335 57.9457 57.0728 57.9457 57.0728L47.0156 74.0331Z" fill="#00B0FF"/>
<path d="M73.7962 36.5062C74.4863 34.2685 73.9686 32.1224 72.64 31.7127C71.3114 31.3029 69.6749 32.7848 68.9848 35.0225C68.2948 37.2602 68.8124 39.4064 70.1411 39.8161C71.4697 40.2258 73.1062 38.7439 73.7962 36.5062Z" fill="#A0616A"/>
<path d="M47.3862 56.2305H39.2387L38.909 58.7993C38.909 58.7993 28.6336 61.625 28.8905 63.1664C29.1474 64.7077 30.6887 90.3961 30.6887 90.3961L29.4042 103.24C29.4042 103.24 52.5239 113.002 56.1202 101.442L54.3221 88.0842C54.3221 88.0842 58.6891 65.2214 57.6616 64.1939C56.634 63.1664 48.1568 59.0562 48.1568 59.0562L47.3862 56.2305Z" fill="#00B0FF"/>
<path d="M42.6528 56.2626C46.6916 56.2626 49.9658 52.9885 49.9658 48.9497C49.9658 44.9108 46.6916 41.6367 42.6528 41.6367C38.614 41.6367 35.3398 44.9108 35.3398 48.9497C35.3398 52.9885 38.614 56.2626 42.6528 56.2626Z" fill="#A0616A"/>
<path d="M48.0686 45.9408C49.003 45.8618 49.9374 45.7828 50.8717 45.7039C50.5506 45.5565 50.2161 45.3989 50.0021 45.1177C49.7881 44.8365 49.7438 44.3922 50.0023 44.1513C50.3044 43.8698 50.8046 44.019 51.1348 44.2669C50.953 43.3178 50.3865 42.4481 49.5917 41.8983C48.6209 41.2267 46.2192 42.0276 45.0488 41.8734C43.6984 41.6955 43.5298 40.5441 42.1794 40.3662C41.6704 40.2992 41.0976 40.2486 40.6973 40.5702C40.2534 40.9268 40.2036 41.601 39.8119 42.0144C39.2527 42.6045 38.2942 42.4304 37.4984 42.5964C36.3712 42.8317 35.5215 43.82 35.1291 44.9025C34.7366 45.9851 34.7222 47.1625 34.7122 48.314C34.701 49.6044 34.6969 51.0983 35.6303 51.9896C36.1988 52.5326 37.7477 54.3955 37.9152 55.1638C38.0341 55.7093 42.8804 56.3738 43.9308 56.3436L47.5108 55.1638C47.8627 53.6145 47.2806 50.5496 46.4441 49.1989C46.7196 49.5628 47.9935 50.6582 48.1883 50.2454C48.383 49.8327 48.2947 48.539 48.5371 48.1524C48.8432 47.6644 47.4947 45.9893 48.0686 45.9408Z" fill="#2F2E41"/>
</g>
</g>
</g>
<defs>
<clipPath id="clip0_148_6957">
<rect width="196.917" height="180" fill="white" transform="translate(0.541992)"/>
</clipPath>
<clipPath id="clip1_148_6957">
<rect width="196.917" height="156.728" fill="white" transform="translate(0.541992 23.2734)"/>
</clipPath>
<clipPath id="clip2_148_6957">
<rect width="196.906" height="156.719" fill="white" transform="translate(0.547852 23.2734)"/>
</clipPath>
</defs>
</svg>
