<svg width="266" height="170" viewBox="0 0 266 170" fill="none" xmlns="http://www.w3.org/2000/svg">
<g clip-path="url(#clip0_148_6943)">
<g clip-path="url(#clip1_148_6943)">
<g clip-path="url(#clip2_148_6943)">
<path d="M81.5132 38.7792C82.5117 35.5971 84.7822 32.6786 87.9224 31.6029C91.0627 30.5272 95.6609 32.1659 98.0217 34.5187C102.34 38.8225 103.394 53.6076 100.427 58.2798C99.8369 58.2486 97.8006 58.2255 97.2033 58.2031L96.3584 55.387V58.1753C91.6965 58.0313 86.843 58.1215 81.9868 58.2148C81.5516 54.9068 80.5147 41.9613 81.5132 38.7792Z" fill="#2F2E41"/>
<path d="M127.664 88.0126C127.245 87.9565 126.843 87.8091 126.486 87.5807C126.13 87.3524 125.828 87.0488 125.602 86.6911C125.376 86.3335 125.231 85.9306 125.177 85.5109C125.123 85.0911 125.162 84.6647 125.291 84.2617L117.062 78.0889L122.094 76.2852L129.137 82.4234C129.8 82.6849 130.343 83.1804 130.665 83.8161C130.987 84.4517 131.065 85.1833 130.883 85.8723C130.701 86.5612 130.273 87.1596 129.68 87.5541C129.087 87.9486 128.37 88.1117 127.664 88.0126Z" fill="#9E616A"/>
<path d="M94.9756 55.6584L95.7628 52.8731C95.7628 52.8731 97.7261 52.233 101.076 54.6627C104.426 57.0924 125.106 78.7806 125.106 78.7806L118.949 79.6414L100.132 66.1992L94.9756 55.6584Z" fill="#E6E6E6"/>
<path d="M223.806 162.045C236.399 155.614 246.426 142.72 246.149 128.582C234.376 138.474 219.482 143.882 204.105 143.85C198.175 143.816 191.582 143.161 186.973 146.893C184.105 149.215 182.602 152.893 182.157 156.556C181.712 160.219 182.211 163.924 182.71 167.581L182.401 168.448C196.508 169.416 211.212 168.476 223.806 162.045Z" fill="#F0F0F0"/>
<path d="M245.855 128.546C240.37 138.746 231.59 147.259 221.124 152.258C218.861 153.338 216.472 154.238 213.973 154.565C211.535 154.865 209.062 154.506 206.809 153.527C204.691 152.656 202.624 151.52 200.331 151.179C197.914 150.82 195.603 151.612 193.729 153.14C191.435 155.009 189.95 157.591 188.586 160.166C187.071 163.025 185.543 166.019 182.868 167.972C182.543 168.209 182.93 168.698 183.253 168.462C187.908 165.063 189.029 158.939 192.841 154.828C194.619 152.91 196.986 151.516 199.677 151.732C202.031 151.92 204.162 153.09 206.3 153.99C208.544 154.935 210.82 155.459 213.267 155.265C215.77 155.068 218.199 154.26 220.48 153.242C225.634 150.895 230.387 147.752 234.564 143.928C239.357 139.591 243.371 134.466 246.435 128.774C246.625 128.422 246.044 128.196 245.855 128.546Z" fill="white"/>
<path d="M224.611 150.815C225.708 152.466 227.356 153.672 229.26 154.22C231.165 154.768 233.202 154.621 235.008 153.805C235.373 153.639 235.132 153.064 234.766 153.23C233.086 153.993 231.188 154.13 229.416 153.616C227.643 153.103 226.113 151.972 225.1 150.429C224.88 150.094 224.392 150.482 224.611 150.815Z" fill="white"/>
<path d="M207.824 154.111C208.589 150.133 210.825 146.589 214.086 144.186C214.41 143.948 214.024 143.459 213.701 143.696C210.311 146.203 207.992 149.896 207.205 154.037C207.131 154.432 207.75 154.504 207.824 154.111Z" fill="white"/>
<path d="M238.604 139.249C238.046 138.698 237.634 138.018 237.404 137.27C237.175 136.521 237.135 135.727 237.288 134.958C237.367 134.565 236.748 134.494 236.669 134.885C236.504 135.735 236.549 136.612 236.801 137.439C237.053 138.267 237.504 139.021 238.114 139.634C238.167 139.697 238.241 139.737 238.323 139.747C238.404 139.756 238.486 139.735 238.552 139.686C238.616 139.635 238.658 139.56 238.668 139.478C238.677 139.396 238.654 139.314 238.604 139.249Z" fill="white"/>
<path d="M208.667 98.7969C208.61 99.0413 208.553 99.2857 208.492 99.5321C207.712 102.814 206.667 106.027 205.367 109.14C205.27 109.382 205.168 109.626 205.065 109.865C201.853 117.33 197.282 124.134 191.586 129.931C189.317 132.236 186.876 134.365 184.285 136.299C180.705 138.971 176.612 141.582 174.195 145.174C173.939 145.546 173.706 145.933 173.497 146.334L181.368 168.003C181.41 168.044 181.448 168.086 181.491 168.126L181.765 169.006C181.906 168.916 182.05 168.819 182.191 168.728C182.272 168.676 182.352 168.619 182.434 168.567C182.488 168.531 182.542 168.494 182.593 168.465C182.611 168.453 182.629 168.441 182.642 168.43C182.693 168.401 182.737 168.368 182.782 168.34C183.588 167.801 184.392 167.255 185.193 166.703C185.198 166.701 185.198 166.701 185.201 166.695C191.295 162.472 197.09 157.704 201.977 152.208C202.124 152.042 202.276 151.875 202.419 151.7C204.608 149.21 206.59 146.546 208.345 143.733C209.301 142.19 210.178 140.599 210.974 138.967C213.02 134.747 214.39 130.231 215.033 125.584C216.314 116.322 214.618 106.753 209.094 99.3578C208.953 99.1687 208.813 98.9842 208.667 98.7969Z" fill="#F0F0F0"/>
<path d="M208.407 98.9431C210.168 110.39 208.284 122.473 202.937 132.765C201.78 134.99 200.414 137.147 198.616 138.912C196.85 140.62 194.66 141.823 192.272 142.397C190.056 142.978 187.722 143.314 185.686 144.423C183.539 145.592 182.171 147.615 181.594 149.964C180.888 152.837 181.257 155.792 181.718 158.67C182.23 161.864 182.813 165.175 181.852 168.345C181.736 168.73 182.339 168.888 182.455 168.504C184.126 162.988 181.334 157.423 181.902 151.846C182.167 149.244 183.218 146.706 185.496 145.258C187.488 143.991 189.895 143.642 192.143 143.074C194.505 142.477 196.637 141.525 198.474 139.897C200.353 138.233 201.807 136.125 203.015 133.939C205.717 128.962 207.62 123.591 208.653 118.023C209.868 111.674 209.988 105.165 209.008 98.7759C208.947 98.3805 208.347 98.5503 208.407 98.9431Z" fill="white"/>
<path d="M204.852 129.513C206.721 130.17 208.764 130.141 210.614 129.432C212.465 128.723 214.003 127.379 214.954 125.64C215.145 125.287 214.606 124.974 214.415 125.327C213.532 126.947 212.099 128.199 210.375 128.856C208.65 129.513 206.748 129.532 205.011 128.91C204.633 128.775 204.476 129.379 204.852 129.513Z" fill="white"/>
<path d="M193.436 142.254C191.651 138.617 191.303 134.441 192.46 130.559C192.575 130.175 191.972 130.016 191.857 130.401C190.66 134.443 191.032 138.788 192.897 142.568C193.075 142.928 193.613 142.612 193.436 142.254Z" fill="white"/>
<path d="M209.063 111.856C208.287 111.752 207.548 111.457 206.914 110.998C206.28 110.538 205.77 109.928 205.429 109.223C205.256 108.86 204.719 109.177 204.891 109.537C205.271 110.314 205.835 110.987 206.535 111.497C207.234 112.006 208.048 112.336 208.905 112.458C208.984 112.477 209.068 112.464 209.139 112.423C209.21 112.381 209.262 112.315 209.285 112.236C209.306 112.156 209.294 112.072 209.253 112C209.211 111.929 209.143 111.877 209.063 111.856Z" fill="white"/>
<path d="M72.335 59.7863C61.547 50.6444 45.7844 46.3626 32.8457 52.0671C46.5111 59.1186 57.2418 70.7764 63.1394 84.978C65.3939 90.4632 67.3304 96.7988 72.5506 99.6132C75.7987 101.364 79.7724 101.334 83.3239 100.333C86.8756 99.3311 90.1016 97.4424 93.2831 95.5728L94.203 95.524C89.6586 82.1335 83.1231 68.9282 72.335 59.7863Z" fill="#F0F0F0"/>
<path d="M32.9274 52.3515C44.4533 53.4819 55.6927 58.3018 64.3391 66.0327C66.2084 67.7041 67.9592 69.5622 69.224 71.7416C70.4405 73.8753 71.0634 76.2959 71.028 78.7518C71.041 81.0424 70.7891 83.3869 71.3587 85.6344C71.9591 88.0034 73.5804 89.8305 75.7125 90.9711C78.3211 92.3667 81.2757 92.7417 84.1778 93.008C87.3999 93.3037 90.7515 93.5598 93.5851 95.2757C93.9285 95.4836 94.231 94.9387 93.8882 94.7311C88.9581 91.7457 82.8751 93.0719 77.6128 91.1395C75.1574 90.2378 72.9588 88.5906 72.1202 86.0246C71.3869 83.7807 71.6446 81.3628 71.6515 79.0435C71.6587 76.6081 71.2644 74.3064 70.1429 72.1232C68.9958 69.89 67.3139 67.9594 65.4956 66.2476C61.3432 62.3965 56.6111 59.2223 51.4727 56.8411C45.6233 54.091 39.3467 52.3618 32.9142 51.7283C32.516 51.6893 32.5318 52.3127 32.9274 52.3515Z" fill="white"/>
<path d="M61.6615 63.3706C62.7616 61.7223 63.2401 59.7365 63.0113 57.768C62.7825 55.7995 61.8615 53.9764 60.4126 52.6243C60.1186 52.3518 59.6812 52.796 59.9757 53.0689C61.3271 54.3255 62.1849 56.0238 62.3942 57.8573C62.6035 59.6908 62.1505 61.5387 61.1169 63.0675C60.8927 63.4 61.4386 63.7012 61.6615 63.3706Z" fill="white"/>
<path d="M71.1737 77.5885C67.2081 78.4164 63.0762 77.7191 59.6018 75.6358C59.2577 75.4292 58.9551 75.974 59.2988 76.1804C62.9183 78.3416 67.2197 79.0585 71.3445 78.1879C71.7376 78.1046 71.5647 77.5057 71.1737 77.5885Z" fill="white"/>
<path d="M45.597 54.9173C45.3042 55.6438 44.8356 56.2862 44.2332 56.7868C43.6308 57.2874 42.9135 57.6305 42.1457 57.7854C41.7517 57.8636 41.9251 58.4625 42.3165 58.3848C43.1639 58.2097 43.9557 57.8298 44.6225 57.2782C45.2892 56.7266 45.8108 56.0201 46.1416 55.2204C46.1791 55.1476 46.1874 55.0633 46.165 54.9846C46.1426 54.9059 46.091 54.8386 46.0208 54.7966C45.9485 54.7568 45.8634 54.7472 45.7841 54.7698C45.7047 54.7924 45.6375 54.8454 45.597 54.9173Z" fill="white"/>
<path d="M19.8086 98.1348C20.056 98.093 20.3034 98.0511 20.5545 98.013C23.8833 97.4676 27.2509 97.1935 30.6241 97.1935C30.8849 97.1893 31.1493 97.189 31.4096 97.1924C39.5364 97.2789 47.5765 98.8735 55.1211 101.895C58.1222 103.1 61.0273 104.532 63.8112 106.178C67.6557 108.451 71.6432 111.222 75.8892 112.067C76.3312 112.16 76.7786 112.226 77.2287 112.264L94.1899 96.6493C94.2106 96.5945 94.2351 96.5434 94.2561 96.4884L94.9618 95.8959C94.8241 95.801 94.6793 95.7055 94.5417 95.6106C94.462 95.5552 94.3787 95.5033 94.299 95.4479C94.2448 95.4121 94.1903 95.3764 94.1433 95.341C94.1253 95.329 94.1071 95.3171 94.0926 95.309C94.0457 95.2736 93.9983 95.2456 93.955 95.2141C93.147 94.6781 92.3339 94.1469 91.5157 93.6205C91.5121 93.6166 91.5121 93.6166 91.5048 93.6162C85.2596 89.6208 78.6261 86.1116 71.6708 83.7209C71.4615 83.649 71.2489 83.5731 71.0318 83.5084C67.8907 82.4481 64.6682 81.6464 61.3965 81.1112C59.6041 80.8238 57.7983 80.6274 55.986 80.5227C51.3028 80.2612 46.6076 80.7379 42.0725 81.9353C33.0322 84.3238 24.8565 89.577 20.1614 97.5241C20.0414 97.7275 19.925 97.9276 19.8086 98.1348Z" fill="#F0F0F0"/>
<path d="M20.0445 98.3156C29.9279 92.2787 41.8039 89.3602 53.362 90.3272C55.8608 90.5362 58.3775 90.9657 60.6995 91.9443C62.9554 92.9156 64.9101 94.4733 66.3605 96.4555C67.75 98.2765 68.9604 100.3 70.7683 101.752C72.674 103.282 75.0685 103.764 77.4576 103.392C80.3807 102.935 82.9656 101.456 85.4431 99.9212C88.1938 98.2173 91.024 96.4039 94.3196 96.068C94.719 96.0272 94.6324 95.41 94.2337 95.4507C88.4999 96.0352 84.4414 100.757 79.0764 102.382C76.5729 103.14 73.8258 103.149 71.6113 101.605C69.6748 100.255 68.4249 98.169 67.0339 96.313C65.5734 94.3641 63.8728 92.7638 61.663 91.6958C59.4025 90.6033 56.8973 90.0745 54.4147 89.8025C48.7807 89.2276 43.0913 89.5422 37.5549 90.7347C31.2288 92.0606 25.1761 94.4589 19.6587 97.8259C19.3173 98.0344 19.7053 98.5227 20.0445 98.3156Z" fill="white"/>
<path d="M49.6227 89.8147C49.5088 87.8362 48.6952 85.9627 47.3274 84.5287C45.9595 83.0947 44.1265 82.1936 42.1556 81.9863C41.7567 81.9457 41.6749 82.5637 42.0744 82.6044C43.91 82.794 45.6174 83.6335 46.8884 84.9715C48.1594 86.3094 48.9102 88.0576 49.0055 89.9006C49.0266 90.3011 49.6438 90.2128 49.6227 89.8147Z" fill="white"/>
<path d="M65.7784 95.4394C63.1105 98.488 59.3916 100.419 55.3632 100.847C54.9641 100.89 55.0504 101.507 55.4491 101.465C59.6403 101.011 63.5063 98.9937 66.2756 95.8151C66.5394 95.512 66.0407 95.1379 65.7784 95.4394Z" fill="white"/>
<path d="M31.7079 92.7362C31.9116 93.4925 31.9241 94.2876 31.7446 95.05C31.565 95.8124 31.1988 96.5182 30.679 97.1041C30.4116 97.4038 30.9106 97.7776 31.1763 97.4799C31.7476 96.8299 32.151 96.0498 32.3512 95.208C32.5515 94.3661 32.5426 93.4879 32.3252 92.6503C32.3114 92.5696 32.2673 92.4973 32.202 92.4479C32.1367 92.3986 32.055 92.3759 31.9736 92.3846C31.892 92.3964 31.8182 92.44 31.7685 92.5058C31.7187 92.5716 31.697 92.6544 31.7079 92.7362Z" fill="white"/>
<path d="M186.951 114.503C186.906 113.716 186.584 112.97 186.042 112.397C185.5 111.825 184.772 111.463 183.989 111.376L135.774 105.936C135.312 105.883 134.843 105.927 134.399 106.066L123.339 109.529L116.993 111.518L105.281 115.184C104.574 115.406 103.961 115.857 103.537 116.465C103.114 117.073 102.905 117.805 102.942 118.545L104.919 165.537C104.961 166.3 105.262 167.027 105.773 167.596C106.283 168.166 106.973 168.544 107.728 168.668L156.957 168.776C157.188 168.813 157.423 168.826 157.657 168.813C157.998 168.796 158.334 168.728 158.654 168.609L187.502 168.41C188.174 168.162 188.749 167.705 189.14 167.105C189.532 166.505 189.72 165.795 189.676 165.08L186.951 114.503Z" fill="white"/>
<path d="M108.19 165.781L157.42 165.887C157.491 165.899 157.565 165.892 157.634 165.867L186.478 165.669C186.563 165.639 186.635 165.582 186.685 165.506C186.734 165.431 186.757 165.342 186.751 165.252L184.03 114.674C184.023 114.576 183.982 114.483 183.915 114.412C183.848 114.341 183.758 114.295 183.66 114.283L183.336 114.245L135.443 108.847C135.421 108.844 135.399 108.843 135.377 108.845C135.341 108.846 135.305 108.851 135.271 108.862L108.294 117.31L106.153 117.978C106.065 118.007 105.989 118.063 105.937 118.139C105.884 118.215 105.858 118.306 105.862 118.398L107.839 165.388C107.844 165.483 107.882 165.575 107.946 165.646C108.009 165.718 108.096 165.765 108.19 165.781Z" fill="#00B0FF"/>
<path d="M108.295 117.31L135.272 108.862C135.306 108.851 135.342 108.846 135.378 108.845C135.4 108.843 135.422 108.844 135.444 108.847L183.337 114.245L171.803 117.998L167.485 119.401L155.202 123.395C155.166 123.405 155.129 123.412 155.091 123.417C155.068 123.415 155.044 123.413 155.015 123.412L108.295 117.31Z" fill="#2F2E41"/>
<path d="M107.727 168.671L156.956 168.777C157.187 168.814 157.422 168.825 157.656 168.81C157.997 168.795 158.334 168.728 158.655 168.611L187.5 168.413C188.172 168.165 188.747 167.707 189.138 167.107C189.53 166.506 189.718 165.796 189.675 165.081L186.949 114.503C186.915 113.911 186.724 113.338 186.397 112.843C186.352 112.778 186.307 112.712 186.257 112.652C185.918 112.208 185.472 111.859 184.96 111.637C184.651 111.502 184.323 111.414 183.988 111.376L183.931 111.369L135.775 105.935C135.579 105.915 135.382 105.909 135.185 105.918C134.917 105.936 134.652 105.987 134.397 106.069L123.338 109.528L116.993 111.52L105.279 115.186C104.8 115.335 104.361 115.591 103.995 115.935C103.966 115.958 103.938 115.983 103.914 116.01C103.896 116.028 103.879 116.048 103.864 116.068C103.55 116.396 103.307 116.785 103.148 117.21C102.99 117.635 102.919 118.088 102.942 118.542L104.915 165.537C104.957 166.301 105.259 167.028 105.77 167.598C106.281 168.168 106.971 168.546 107.727 168.671ZM103.775 118.503C103.752 118.033 103.864 117.566 104.097 117.157C104.166 117.027 104.248 116.904 104.342 116.79C104.598 116.475 104.927 116.227 105.3 116.068C105.373 116.036 105.449 116.009 105.526 115.986L125.249 109.813L134.648 106.864C134.711 106.843 134.771 106.831 134.831 106.815C134.975 106.781 135.123 106.761 135.271 106.755C135.406 106.744 135.543 106.748 135.677 106.765L183.89 112.207C183.928 112.212 183.962 112.218 184 112.223C184.442 112.288 184.857 112.473 185.201 112.759C185.471 112.975 185.692 113.247 185.849 113.555C186.007 113.863 186.098 114.201 186.116 114.547L188.838 165.129C188.871 165.665 188.73 166.197 188.437 166.647C188.145 167.096 187.715 167.44 187.212 167.627L158.363 167.825C157.955 167.975 157.516 168.017 157.087 167.948L107.858 167.846C107.293 167.751 106.777 167.467 106.394 167.04C106.012 166.614 105.786 166.07 105.753 165.497L103.775 118.503Z" fill="#3F3D56"/>
<path d="M157.807 168.904C157.697 168.909 157.589 168.871 157.507 168.798C157.425 168.724 157.375 168.621 157.368 168.511L154.655 123.021C154.648 122.91 154.686 122.802 154.76 122.719C154.833 122.636 154.937 122.585 155.048 122.579L155.051 122.579C155.161 122.573 155.269 122.611 155.351 122.685C155.433 122.758 155.483 122.861 155.49 122.971L158.203 168.461C158.209 168.572 158.172 168.681 158.098 168.764C158.025 168.847 157.921 168.897 157.81 168.904L157.807 168.904Z" fill="#3F3D56"/>
<path d="M174.824 165.827L170.101 165.795L165.619 119.127C165.619 119.127 171.293 116.807 171.541 117.201C171.693 117.437 174.807 165.538 174.824 165.827Z" fill="#3F3D56"/>
<path d="M185.445 113.158L185.104 112.879C184.753 112.59 184.326 112.41 183.874 112.361L135.662 106.919C135.396 106.89 135.127 106.905 134.865 106.963L134.685 107.008L134.648 106.287L142.644 97.4417C143.12 96.9174 143.711 96.51 144.37 96.2514C145.03 95.9927 145.74 95.8898 146.445 95.9506L179.039 98.8342C180.012 98.9171 180.934 99.3106 181.667 99.9567C182.4 100.603 182.906 101.467 183.111 102.423L185.445 113.158Z" fill="#3F3D56"/>
<path d="M112.575 148.747C112.626 148.739 112.678 148.736 112.73 148.74L127.569 149.639C127.755 149.65 127.928 149.735 128.052 149.874C128.175 150.013 128.238 150.196 128.227 150.382C128.216 150.567 128.131 150.741 127.992 150.865C127.853 150.988 127.67 151.051 127.484 151.04L112.646 150.14C112.473 150.13 112.311 150.056 112.189 149.934C112.068 149.811 111.996 149.648 111.987 149.476C111.978 149.303 112.033 149.134 112.142 148.999C112.25 148.865 112.404 148.775 112.575 148.747Z" fill="white"/>
<path d="M112.824 153.962C112.875 153.954 112.927 153.951 112.979 153.954L127.818 154.854C128.004 154.865 128.177 154.95 128.301 155.089C128.424 155.228 128.487 155.411 128.476 155.596C128.465 155.782 128.38 155.956 128.241 156.079C128.102 156.203 127.919 156.266 127.733 156.255L112.895 155.355C112.722 155.345 112.56 155.271 112.439 155.149C112.317 155.026 112.245 154.863 112.236 154.691C112.227 154.518 112.283 154.349 112.391 154.214C112.499 154.08 112.653 153.99 112.824 153.962Z" fill="white"/>
<path d="M183.796 91.72L155.173 107.304L143.413 85.7053L172.036 70.1211L183.796 91.72Z" fill="white"/>
<path d="M183.796 91.72L155.173 107.304L143.413 85.7053L172.036 70.1211L183.796 91.72ZM155.413 106.491L182.983 91.4801L171.796 70.9342L144.226 85.9451L155.413 106.491Z" fill="#E6E6E6"/>
<path d="M171.466 78.0581L150.394 89.5312L151.158 90.9361L172.231 79.463L171.466 78.0581Z" fill="#00B0FF"/>
<path d="M173.761 82.273L152.688 93.7461L153.453 95.1509L174.526 83.6778L173.761 82.273Z" fill="#00B0FF"/>
<path d="M176.055 86.4878L154.982 97.9609L155.747 99.3658L176.82 87.8927L176.055 86.4878Z" fill="#00B0FF"/>
<path d="M118.573 72.6838C118.277 72.3524 118.176 72.3186 118.071 72.3911L101.783 83.6294C101.679 83.701 101.673 83.8068 101.874 84.1963C102.407 85.0203 103.058 85.9934 103.77 87.0257L124.727 117.401C126.691 120.248 128.398 122.489 128.531 122.397L144.82 111.159C144.953 111.067 143.463 108.676 141.498 105.829L120.541 75.4542C119.831 74.4243 119.153 73.4728 118.573 72.6838Z" fill="white"/>
<path d="M120.743 75.5268C120.373 75.0076 120.02 74.5262 119.704 74.1067C119.325 73.6041 119.014 73.2058 118.778 72.9211C118.7 72.8283 118.633 72.7488 118.573 72.6838C118.277 72.3524 118.176 72.3186 118.071 72.3911L101.783 83.6294C101.679 83.701 101.673 83.8068 101.874 84.1963C101.916 84.2762 101.967 84.3701 102.028 84.478C102.209 84.7986 102.471 85.2308 102.807 85.7651C103.369 86.6547 104.109 87.7663 104.888 88.8965L124.79 117.741C125.694 119.051 126.57 120.266 127.257 121.164C128.401 122.66 128.484 122.602 128.612 122.514L144.9 111.276C145.027 111.188 145.111 111.13 144.119 109.53C143.523 108.569 142.698 107.319 141.795 106.009L121.893 77.1641C121.503 76.5984 121.113 76.0441 120.743 75.5268ZM105.122 88.7356C104.344 87.6089 103.607 86.4996 103.048 85.6146C102.713 85.0846 102.454 84.654 102.275 84.3381C102.174 84.1709 102.086 83.9964 102.012 83.816L118.165 72.671C118.307 72.8049 118.439 72.9493 118.559 73.103C118.676 73.2426 118.812 73.4108 118.966 73.6075C119.119 73.8047 119.29 74.0283 119.478 74.2782C120.107 75.1148 120.882 76.1972 121.66 77.325L141.561 106.17C143.45 108.907 144.538 110.711 144.673 111.088L128.517 122.235C128.212 121.975 126.912 120.318 125.023 117.58L105.122 88.7356Z" fill="#E4E4E4"/>
<path d="M115.09 82.0272L112.006 84.155C111.852 84.2617 111.746 84.4255 111.712 84.6103C111.678 84.7951 111.719 84.9859 111.825 85.1406L113.668 87.8116C113.775 87.966 113.939 88.0717 114.124 88.1056C114.308 88.1395 114.499 88.0988 114.654 87.9924L117.738 85.8646C117.892 85.7576 117.998 85.5938 118.031 85.4091C118.065 85.2245 118.025 85.0339 117.919 84.8791L116.076 82.208C115.969 82.0536 115.805 81.9479 115.62 81.914C115.436 81.8801 115.245 81.9208 115.09 82.0272Z" fill="#00B0FF"/>
<path d="M122.773 84.9671L112.025 92.3828C111.99 92.4068 111.96 92.4374 111.937 92.4729C111.914 92.5083 111.899 92.548 111.891 92.5895C111.883 92.6311 111.884 92.6737 111.893 92.715C111.902 92.7563 111.919 92.7955 111.943 92.8303C111.967 92.865 111.997 92.8947 112.033 92.9177C112.068 92.9406 112.108 92.9564 112.149 92.964C112.191 92.9716 112.234 92.971 112.275 92.9621C112.316 92.9533 112.355 92.9363 112.39 92.9124L123.138 85.4966C123.173 85.4726 123.203 85.442 123.226 85.4065C123.249 85.3711 123.264 85.3314 123.272 85.2899C123.28 85.2483 123.279 85.2057 123.27 85.1644C123.261 85.1231 123.244 85.0839 123.22 85.0492C123.196 85.0144 123.166 84.9847 123.13 84.9617C123.095 84.9388 123.055 84.9231 123.014 84.9154C122.972 84.9078 122.929 84.9085 122.888 84.9173C122.847 84.9262 122.808 84.9431 122.773 84.9671Z" fill="#E4E4E4"/>
<path d="M116.962 90.8069L112.879 93.6235C112.844 93.6475 112.815 93.6781 112.792 93.7136C112.769 93.7491 112.753 93.7887 112.746 93.8303C112.738 93.8718 112.739 93.9145 112.747 93.9558C112.756 93.9971 112.773 94.0362 112.797 94.071C112.821 94.1057 112.852 94.1355 112.887 94.1584C112.923 94.1813 112.962 94.1971 113.004 94.2047C113.045 94.2123 113.088 94.2117 113.129 94.2028C113.171 94.194 113.21 94.1771 113.245 94.1531L117.327 91.3365C117.397 91.288 117.445 91.2136 117.461 91.1297C117.476 91.0458 117.457 90.9592 117.409 90.889C117.361 90.8188 117.286 90.7707 117.202 90.7553C117.118 90.7399 117.032 90.7585 116.962 90.8069Z" fill="#E4E4E4"/>
<path d="M123.057 93.5741L119.973 95.7019C119.818 95.8086 119.713 95.9724 119.679 96.1572C119.645 96.342 119.686 96.5327 119.792 96.6874L121.635 99.3584C121.742 99.5129 121.906 99.6186 122.091 99.6525C122.275 99.6864 122.466 99.6457 122.621 99.5392L125.705 97.4115C125.859 97.3044 125.964 97.1407 125.998 96.956C126.032 96.7713 125.992 96.5808 125.885 96.4259L124.043 93.7549C123.936 93.6005 123.772 93.4948 123.587 93.4609C123.402 93.427 123.212 93.4677 123.057 93.5741Z" fill="#00B0FF"/>
<path d="M130.74 96.5139L119.992 103.93C119.921 103.978 119.873 104.053 119.858 104.136C119.842 104.22 119.861 104.307 119.909 104.377C119.958 104.447 120.032 104.495 120.116 104.511C120.2 104.526 120.287 104.508 120.357 104.459L131.105 97.0435C131.14 97.0195 131.17 96.9889 131.192 96.9534C131.215 96.918 131.231 96.8783 131.239 96.8368C131.246 96.7952 131.246 96.7526 131.237 96.7113C131.228 96.67 131.211 96.6308 131.187 96.596C131.163 96.5613 131.133 96.5316 131.097 96.5086C131.062 96.4857 131.022 96.4699 130.98 96.4623C130.939 96.4547 130.896 96.4553 130.855 96.4642C130.814 96.473 130.774 96.4899 130.74 96.5139Z" fill="#E4E4E4"/>
<path d="M124.93 102.354L120.848 105.17C120.778 105.219 120.73 105.293 120.714 105.377C120.699 105.461 120.717 105.548 120.766 105.618C120.814 105.688 120.889 105.736 120.973 105.752C121.057 105.767 121.143 105.748 121.213 105.7L125.296 102.883C125.33 102.859 125.36 102.829 125.383 102.793C125.406 102.758 125.422 102.718 125.429 102.677C125.437 102.635 125.436 102.592 125.428 102.551C125.419 102.51 125.402 102.471 125.378 102.436C125.354 102.401 125.323 102.371 125.288 102.348C125.252 102.326 125.213 102.31 125.171 102.302C125.129 102.295 125.087 102.295 125.046 102.304C125.004 102.313 124.965 102.33 124.93 102.354Z" fill="#E4E4E4"/>
<path d="M131.023 105.121L127.939 107.249C127.784 107.355 127.678 107.519 127.644 107.704C127.611 107.889 127.651 108.08 127.758 108.234L129.601 110.905C129.708 111.06 129.872 111.165 130.056 111.199C130.241 111.233 130.432 111.193 130.586 111.086L133.67 108.958C133.825 108.851 133.93 108.688 133.964 108.503C133.998 108.318 133.957 108.128 133.851 107.973L132.008 105.302C131.901 105.147 131.738 105.042 131.553 105.008C131.368 104.974 131.178 105.015 131.023 105.121Z" fill="#00B0FF"/>
<path d="M138.706 108.061L127.957 115.477C127.923 115.501 127.893 115.531 127.87 115.567C127.847 115.602 127.831 115.642 127.824 115.683C127.816 115.725 127.817 115.767 127.826 115.809C127.834 115.85 127.851 115.889 127.875 115.924C127.899 115.959 127.93 115.988 127.965 116.011C128.001 116.034 128.04 116.05 128.082 116.058C128.124 116.065 128.166 116.065 128.207 116.056C128.249 116.047 128.288 116.03 128.323 116.006L139.071 108.59C139.141 108.542 139.189 108.468 139.205 108.384C139.22 108.3 139.201 108.213 139.153 108.143C139.105 108.073 139.03 108.025 138.946 108.009C138.862 107.994 138.776 108.012 138.706 108.061Z" fill="#E4E4E4"/>
<path d="M132.897 113.901L128.815 116.717C128.78 116.741 128.75 116.772 128.727 116.807C128.704 116.843 128.689 116.882 128.681 116.924C128.673 116.966 128.674 117.008 128.683 117.05C128.692 117.091 128.709 117.13 128.733 117.165C128.757 117.199 128.787 117.229 128.823 117.252C128.858 117.275 128.898 117.291 128.939 117.298C128.981 117.306 129.024 117.305 129.065 117.297C129.106 117.288 129.145 117.271 129.18 117.247L133.262 114.43C133.333 114.382 133.381 114.307 133.396 114.223C133.412 114.14 133.393 114.053 133.345 113.983C133.296 113.913 133.222 113.864 133.138 113.849C133.054 113.834 132.967 113.852 132.897 113.901Z" fill="#E4E4E4"/>
<path d="M167.086 86.2447C167.022 84.6637 166.923 83.6445 166.81 83.6445H125.244C125.131 83.6445 125.033 84.6637 124.968 86.2447C124.925 87.3467 124.897 88.722 124.897 90.2109V119.172L125.066 119.193L131.9 120.083L139.022 121.017L142.276 121.44L149.235 122.349L155.016 123.104C155.043 123.107 155.068 123.107 155.092 123.11C155.129 123.104 155.166 123.098 155.2 123.089L157.475 122.349L160.099 121.496L166.988 119.255L167.157 119.199V90.2109C167.157 88.722 167.129 87.3468 167.086 86.2447Z" fill="white"/>
<path d="M167.226 85.561C167.205 85.1496 167.183 84.8181 167.159 84.5541C167.141 84.2782 167.102 84.0041 167.042 83.7344C166.974 83.4766 166.898 83.4766 166.812 83.4766H125.246C125.16 83.4766 125.083 83.4766 125.016 83.7344C124.957 84.0178 124.918 84.305 124.899 84.594C124.878 84.8519 124.856 85.1711 124.835 85.561C124.767 86.8043 124.73 88.4558 124.73 90.2118V119.148L124.899 119.173L125.068 119.194V90.2118C125.068 88.683 125.096 87.3875 125.136 86.3653C125.143 85.5101 125.212 84.6565 125.341 83.8112H166.72C166.849 84.6555 166.918 85.508 166.925 86.3622C166.962 87.3844 166.99 88.6799 166.99 90.2118V119.255L167.327 119.145V90.2118C167.327 88.4558 167.291 86.8043 167.226 85.561Z" fill="#E4E4E4"/>
<path d="M138.018 92.4727H132.717C132.585 92.4724 132.455 92.498 132.333 92.5482C132.211 92.5983 132.101 92.672 132.007 92.7649C131.914 92.8579 131.84 92.9683 131.79 93.0899C131.739 93.2114 131.713 93.3418 131.713 93.4734V98.0659C131.713 98.1978 131.739 98.3284 131.789 98.4503C131.839 98.5722 131.913 98.6829 132.006 98.7762C132.1 98.8694 132.21 98.9434 132.332 98.9937C132.454 99.0441 132.585 99.0699 132.717 99.0697H138.018C138.285 99.0696 138.54 98.9638 138.728 98.7756C138.916 98.5874 139.022 98.3321 139.022 98.0659V93.4734C139.021 93.2077 138.915 92.9531 138.727 92.7655C138.539 92.5779 138.284 92.4726 138.018 92.4727Z" fill="#00B0FF"/>
<path d="M159.889 94.25H141.408C141.288 94.25 141.172 94.2979 141.087 94.3831C141.002 94.4683 140.954 94.5838 140.954 94.7043C140.954 94.8248 141.002 94.9404 141.087 95.0256C141.172 95.1108 141.288 95.1587 141.408 95.1587H159.889C160.009 95.1587 160.125 95.1108 160.21 95.0256C160.295 94.9404 160.343 94.8248 160.343 94.7043C160.343 94.5838 160.295 94.4683 160.21 94.3831C160.125 94.2979 160.009 94.25 159.889 94.25Z" fill="#E4E4E4"/>
<path d="M148.426 96.3828H141.408C141.288 96.3828 141.172 96.4307 141.087 96.5159C141.002 96.6011 140.954 96.7167 140.954 96.8372C140.954 96.9576 141.002 97.0732 141.087 97.1584C141.172 97.2436 141.288 97.2915 141.408 97.2915H148.426C148.547 97.2915 148.662 97.2436 148.747 97.1584C148.833 97.0732 148.88 96.9576 148.88 96.8372C148.88 96.7167 148.833 96.6011 148.747 96.5159C148.662 96.4307 148.547 96.3828 148.426 96.3828Z" fill="#E4E4E4"/>
<path d="M138.018 106.066H132.717C132.451 106.067 132.195 106.172 132.007 106.361C131.819 106.549 131.713 106.804 131.713 107.07V111.663C131.713 111.929 131.819 112.184 132.007 112.372C132.195 112.561 132.451 112.666 132.717 112.667H138.018C138.284 112.666 138.539 112.56 138.727 112.372C138.916 112.184 139.022 111.929 139.022 111.663V107.07C139.022 106.804 138.916 106.549 138.727 106.361C138.539 106.173 138.284 106.067 138.018 106.066Z" fill="#00B0FF"/>
<path d="M159.888 107.844H141.408C141.287 107.844 141.171 107.892 141.086 107.977C141 108.063 140.952 108.179 140.952 108.3C140.952 108.421 141 108.536 141.086 108.622C141.171 108.707 141.287 108.755 141.408 108.755H159.888C160.009 108.755 160.125 108.707 160.211 108.622C160.296 108.536 160.344 108.421 160.344 108.3C160.344 108.179 160.296 108.063 160.211 107.977C160.125 107.892 160.009 107.844 159.888 107.844Z" fill="#E4E4E4"/>
<path d="M148.426 109.977H141.408C141.287 109.977 141.171 110.025 141.086 110.11C141 110.196 140.952 110.312 140.952 110.432C140.952 110.553 141 110.669 141.086 110.755C141.171 110.84 141.287 110.888 141.408 110.888H148.426C148.547 110.888 148.662 110.84 148.748 110.755C148.833 110.669 148.882 110.553 148.882 110.432C148.882 110.312 148.833 110.196 148.748 110.11C148.662 110.025 148.547 109.977 148.426 109.977Z" fill="#E4E4E4"/>
<path d="M138.878 120.152C138.79 120.003 138.664 119.88 138.513 119.794C138.362 119.709 138.192 119.664 138.019 119.664H132.717C132.557 119.664 132.4 119.702 132.257 119.775C132.115 119.848 131.993 119.954 131.9 120.085L139.022 121.018V120.665C139.023 120.484 138.973 120.306 138.878 120.152Z" fill="#00B0FF"/>
<path d="M159.888 121.438H142.276L149.236 122.346H157.475L160.1 121.493C160.035 121.456 159.962 121.436 159.888 121.438Z" fill="#E4E4E4"/>
<path d="M185.782 113.433C185.749 113.455 185.713 113.473 185.675 113.486L184.149 113.98L171.802 117.998L167.486 119.398L167.327 119.45L166.989 119.561L160.1 121.802L157.475 122.655L155.201 123.395C155.167 123.404 155.13 123.41 155.093 123.416C155.069 123.413 155.044 123.413 155.017 123.41L149.236 122.655L142.277 121.746L139.023 121.323L131.901 120.39L125.067 119.499L124.898 119.478L124.73 119.453L104.343 116.792L104.171 116.767C104.131 116.764 104.093 116.752 104.057 116.733C103.975 116.697 103.907 116.634 103.863 116.556C103.819 116.477 103.801 116.387 103.812 116.298C103.82 116.223 103.848 116.151 103.895 116.092C103.913 116.073 103.928 116.055 103.947 116.04C103.962 116.03 103.981 116.012 103.999 116.003C104.081 115.946 104.182 115.922 104.281 115.935L105.301 116.07L124.73 118.609L124.898 118.631L125.067 118.652L135.133 119.969L138.878 120.457L148.736 121.746L155.032 122.569L157.565 121.746L165.62 119.128L166.989 118.683L167.158 118.628L167.327 118.572L171.541 117.203L184.079 113.123L185.202 112.758L185.42 112.687C185.514 112.658 185.615 112.662 185.706 112.7C185.797 112.737 185.872 112.806 185.917 112.893C185.929 112.914 185.938 112.935 185.945 112.958C185.973 113.044 185.972 113.137 185.942 113.222C185.913 113.308 185.857 113.382 185.782 113.433Z" fill="#3F3D56"/>
<path d="M143.39 142.303C143.12 142.303 142.851 142.282 142.585 142.24L111.762 137.427C110.704 137.258 109.722 136.772 108.946 136.032C108.17 135.293 107.637 134.336 107.417 133.287L103.978 116.59L104.189 116.616L155.716 122.844L148.182 139.237C147.758 140.151 147.082 140.925 146.233 141.469C145.384 142.012 144.398 142.301 143.39 142.303Z" fill="#3F3D56"/>
<path d="M89.8864 161.649L93.6399 160.866L92.408 146.016L86.8682 147.171L89.8864 161.649Z" fill="#9E616A"/>
<path d="M88.2285 160.059L89.3506 169.176L89.3529 169.195L89.4406 169.176L92.0171 168.638L91.9686 166.025L93.7093 168.287L95.3762 167.941V167.939L98.7421 167.237L99.0146 167.182L100.053 166.965L100.774 166.815C101.043 166.758 101.294 166.633 101.503 166.453C101.711 166.272 101.87 166.042 101.965 165.783C102.059 165.524 102.086 165.245 102.044 164.973C102.001 164.701 101.89 164.444 101.72 164.227C101.59 164.062 101.431 163.923 101.249 163.818C101.226 163.806 101.203 163.793 101.18 163.781H101.178C101.143 163.763 101.108 163.746 101.072 163.73L101.009 163.702L99.908 163.238L99.9034 163.236L96.9968 162.013L94.6189 161.011L94.0902 158.469L93.4553 158.642L89.4844 159.718L88.2285 160.059Z" fill="#2F2E41"/>
<path d="M64.0918 149.521L67.0069 152.012L78.0018 141.954L73.6998 138.277L64.0918 149.521Z" fill="#9E616A"/>
<path d="M59.8604 155.484L61.8988 153.846L61.1759 156.606L66.6613 161.294C66.8214 161.432 67.0074 161.537 67.2086 161.602C67.3602 161.651 67.5181 161.678 67.6775 161.681C67.9291 161.688 68.1787 161.635 68.4065 161.528C68.6343 161.421 68.8341 161.262 68.99 161.065C69.146 160.867 69.2538 160.636 69.3049 160.39C69.3561 160.143 69.3492 159.888 69.2848 159.645L67.4887 152.876L69.1767 150.902L68.6513 150.506L65.3703 148.023L64.3325 147.238L57.793 153.714L59.8604 155.484Z" fill="#2F2E41"/>
<path d="M78.8359 90.2252L96.9065 89.5302L97.5865 71.1953L82.3171 71.6856L78.8359 90.2252Z" fill="#9E616A"/>
<path d="M92.3456 49.326C96.1463 49.326 99.2274 46.2449 99.2274 42.4443C99.2274 38.6436 96.1463 35.5625 92.3456 35.5625C88.5449 35.5625 85.4639 38.6436 85.4639 42.4443C85.4639 46.2449 88.5449 49.326 92.3456 49.326Z" fill="#9E616A"/>
<path d="M86.4082 36.4012L94.3319 32.4336C95.9518 33.1636 97.347 34.3137 98.3727 35.7646C99.3983 37.2154 100.017 38.9143 100.165 40.685L100.363 43.0507L97.0445 42.2061L96.6809 39.1811L96.1175 41.9701L94.5862 41.5805L94.6008 36.8842L93.0686 41.5772L87.5996 40.3207L86.4082 36.4012Z" fill="#2F2E41"/>
<path d="M97.2548 85.3619C97.2548 85.3619 103.275 95.8264 97.4628 111.703L89.2431 132.663L74.9614 147.116L67.2861 142.579L81.5564 130.48L75.1925 108.907C73.727 104.017 73.2752 98.8807 73.8648 93.8109C74.3234 90.0172 77.7471 87.0569 80.089 83.4766C87.9095 88.5208 96.9171 87.7093 97.2548 85.3619Z" fill="#2F2E41"/>
<path d="M89.2507 127.359L94.6094 152.251L86.8578 153.713L82.4434 132.787L89.2507 127.359Z" fill="#2F2E41"/>
<path d="M87.3023 51.625L96.1998 51.7436L99.0955 55.4206C100.479 55.7468 101.735 56.4723 102.709 57.5069C103.683 58.5414 104.332 59.8395 104.574 61.2397L104.847 62.8183C105.412 66.0843 104.812 69.445 103.152 72.3136L97.7202 77.4408L97.9557 77.8689C98.0721 78.0804 98.1063 78.3275 98.0518 78.5628C97.9973 78.798 97.8578 79.0049 97.6602 79.1436C97.8268 79.5641 97.8462 80.0287 97.7152 80.4616L97.6004 80.8411C97.6004 80.8411 100.646 81.6506 81.8574 78.8618C81.4593 78.8025 81.0913 78.6151 80.8092 78.328C80.527 78.041 80.3461 77.6698 80.2937 77.2707C80.0895 77.0654 79.955 76.8011 79.909 76.5151C79.8631 76.2292 79.908 75.9361 80.0376 75.6771L80.0758 75.6005L79.8829 75.3733C79.6682 75.1205 79.5442 74.8031 79.5306 74.4717C79.5169 74.1403 79.6144 73.8138 79.8076 73.5442L79.7583 62.7777C79.5324 61.1621 79.8879 59.5188 80.7614 58.141C81.6348 56.7632 82.9693 55.7405 84.5268 55.2554L87.3023 51.625Z" fill="#E6E6E6"/>
<path d="M112.612 97.6557C112.608 97.2325 112.51 96.8155 112.327 96.434C112.144 96.0525 111.88 95.7158 111.552 95.4476C111.225 95.1793 110.843 94.9862 110.433 94.8816C110.023 94.7771 109.595 94.7637 109.179 94.8425L104.057 85.9219L101.652 90.6959L106.885 98.4351C107.063 99.1248 107.489 99.7251 108.08 100.122C108.672 100.519 109.389 100.685 110.095 100.589C110.801 100.493 111.447 100.141 111.911 99.6008C112.375 99.0601 112.624 98.368 112.612 97.6557Z" fill="#9E616A"/>
<path d="M84.4894 61.2617L81.6288 61.703C81.6288 61.703 80.7538 63.5734 82.7563 67.1951C84.7588 70.8167 103.76 93.9896 103.76 93.9896L105.366 87.9841L94.3217 67.667L84.4894 61.2617Z" fill="#E6E6E6"/>
<path d="M264.893 169.251H1.1047C1.00794 169.25 0.915241 169.212 0.846921 169.143C0.778602 169.075 0.740234 168.982 0.740234 168.885C0.740234 168.788 0.778602 168.695 0.846921 168.627C0.915241 168.558 1.00794 168.52 1.1047 168.52H264.893C264.99 168.52 265.083 168.558 265.152 168.627C265.22 168.695 265.259 168.788 265.259 168.885C265.259 168.982 265.22 169.075 265.152 169.144C265.083 169.212 264.99 169.251 264.893 169.251Z" fill="#CCCCCC"/>
</g>
</g>
</g>
<defs>
<clipPath id="clip0_148_6943">
<rect width="264.547" height="169.25" fill="white" transform="translate(0.726562)"/>
</clipPath>
<clipPath id="clip1_148_6943">
<rect width="264.547" height="137.985" fill="white" transform="translate(0.726562 31.2656)"/>
</clipPath>
<clipPath id="clip2_148_6943">
<rect width="264.52" height="137.985" fill="white" transform="translate(0.740234 31.2656)"/>
</clipPath>
</defs>
</svg>
