<svg width="186" height="180" viewBox="0 0 186 180" fill="none" xmlns="http://www.w3.org/2000/svg">
<g clip-path="url(#clip0_148_6971)">
<g clip-path="url(#clip1_148_6971)">
<g clip-path="url(#clip2_148_6971)">
<path d="M14.6593 166.977C15.7217 167.351 16.8623 167.444 17.9714 167.249C19.0804 167.053 20.1205 166.576 20.9913 165.862C23.2091 164 23.9046 160.934 24.4702 158.095L26.1437 149.695L22.6401 152.108C20.1204 153.843 17.5441 155.633 15.7997 158.146C14.0552 160.659 13.2942 164.089 14.6954 166.808" fill="#E6E6E6"/>
<path d="M15.2005 177.731C14.7595 174.519 14.3058 171.264 14.6159 168.017C14.8906 165.134 15.7705 162.317 17.5617 160.007C18.5125 158.784 19.6694 157.735 20.9805 156.909C21.3223 156.693 21.6369 157.235 21.2966 157.45C19.028 158.884 17.2734 161.001 16.2856 163.496C15.1946 166.27 15.0194 169.295 15.2074 172.243C15.3209 174.025 15.5623 175.796 15.8047 177.565C15.8239 177.645 15.8119 177.729 15.7713 177.8C15.7307 177.872 15.6644 177.925 15.5859 177.95C15.5058 177.971 15.4205 177.961 15.3483 177.92C15.2762 177.879 15.2232 177.811 15.2007 177.731L15.2005 177.731Z" fill="#F2F2F2"/>
<path d="M18.375 172.577C18.8306 173.27 19.4569 173.834 20.1935 174.214C20.9302 174.594 21.7524 174.778 22.5809 174.749C24.7106 174.648 26.4853 173.162 28.0828 171.751L32.8088 167.578L29.6811 167.429C27.4318 167.321 25.1244 167.22 22.982 167.914C20.8396 168.609 18.8638 170.277 18.4721 172.495" fill="#E6E6E6"/>
<path d="M13.9533 179.577C16.0763 175.821 18.5386 171.646 22.9387 170.312C24.162 169.942 25.4447 169.809 26.7178 169.921C27.1191 169.956 27.0189 170.574 26.6184 170.54C24.4844 170.363 22.3545 170.926 20.5873 172.136C18.8867 173.293 17.5625 174.903 16.4419 176.609C15.7554 177.654 15.1405 178.744 14.5256 179.832C14.3291 180.18 13.7545 179.929 13.9533 179.577Z" fill="#F2F2F2"/>
<path d="M183.825 133.205H66.7813C66.4206 133.205 66.0749 133.061 65.8199 132.806C65.5648 132.551 65.4214 132.205 65.4209 131.845V23.1495C65.4214 22.7888 65.5649 22.4431 65.8199 22.188C66.0749 21.933 66.4206 21.7895 66.7813 21.7891H183.825C184.186 21.7895 184.532 21.933 184.787 22.188C185.042 22.4431 185.185 22.7888 185.186 23.1495V131.845C185.185 132.205 185.042 132.551 184.787 132.806C184.532 133.061 184.186 133.205 183.825 133.205Z" fill="white"/>
<path d="M183.825 133.205H66.7813C66.4206 133.205 66.0749 133.061 65.8199 132.806C65.5648 132.551 65.4214 132.205 65.4209 131.845V23.1495C65.4214 22.7888 65.5649 22.4431 65.8199 22.188C66.0749 21.933 66.4206 21.7895 66.7813 21.7891H183.825C184.186 21.7895 184.532 21.933 184.787 22.188C185.042 22.4431 185.185 22.7888 185.186 23.1495V131.845C185.185 132.205 185.042 132.551 184.787 132.806C184.532 133.061 184.186 133.205 183.825 133.205ZM66.7813 22.3321C66.5651 22.3326 66.358 22.4187 66.2052 22.5715C66.0523 22.7244 65.9662 22.9315 65.9658 23.1477V131.845C65.9662 132.061 66.0523 132.268 66.2052 132.421C66.358 132.573 66.5651 132.66 66.7813 132.66H183.825C184.041 132.66 184.249 132.574 184.401 132.421C184.554 132.268 184.64 132.061 184.641 131.845V23.1495C184.64 22.9333 184.554 22.7261 184.401 22.5733C184.249 22.4205 184.041 22.3344 183.825 22.3339L66.7813 22.3321Z" fill="#CACACA"/>
<path d="M122.087 50.0352C121.842 50.0356 121.608 50.1331 121.435 50.3062C121.262 50.4794 121.165 50.7141 121.165 50.9587C121.165 51.2034 121.262 51.4381 121.435 51.6112C121.608 51.7844 121.842 51.8819 122.087 51.8823H172.765C173.01 51.8819 173.245 51.7844 173.417 51.6112C173.59 51.4381 173.687 51.2034 173.687 50.9587C173.687 50.7141 173.59 50.4794 173.417 50.3062C173.245 50.1331 173.01 50.0356 172.765 50.0352H122.087Z" fill="#E4E4E4"/>
<path d="M122.086 55.5742C121.842 55.5748 121.607 55.6724 121.435 55.8455C121.262 56.0187 121.165 56.2532 121.165 56.4978C121.165 56.7424 121.262 56.9769 121.435 57.1501C121.607 57.3232 121.842 57.4208 122.086 57.4214H147.959C148.203 57.4208 148.438 57.3232 148.61 57.1501C148.783 56.9769 148.88 56.7424 148.88 56.4978C148.88 56.2532 148.783 56.0187 148.61 55.8455C148.438 55.6724 148.203 55.5748 147.959 55.5742H122.086Z" fill="#E4E4E4"/>
<path d="M77.7924 85.3789C77.5479 85.3795 77.3135 85.4771 77.1408 85.6502C76.9681 85.8233 76.8711 86.0579 76.8711 86.3025C76.8711 86.547 76.9681 86.7816 77.1408 86.9548C77.3135 87.1279 77.5479 87.2255 77.7924 87.2261H172.815C173.059 87.2255 173.293 87.1279 173.466 86.9548C173.639 86.7816 173.736 86.547 173.736 86.3025C173.736 86.0579 173.639 85.8233 173.466 85.6502C173.293 85.4771 173.059 85.3795 172.815 85.3789H77.7924Z" fill="#E4E4E4"/>
<path d="M77.7924 90.9219C77.5479 90.9225 77.3135 91.02 77.1408 91.1932C76.9681 91.3663 76.8711 91.6009 76.8711 91.8454C76.8711 92.09 76.9681 92.3246 77.1408 92.4977C77.3135 92.6709 77.5479 92.7684 77.7924 92.769H148.009C148.253 92.7684 148.487 92.6709 148.66 92.4977C148.833 92.3246 148.93 92.09 148.93 91.8454C148.93 91.6009 148.833 91.3663 148.66 91.1932C148.487 91.02 148.253 90.9225 148.009 90.9219H77.7924Z" fill="#E4E4E4"/>
<path d="M77.7924 96.3359C77.5479 96.3365 77.3135 96.4341 77.1408 96.6072C76.9681 96.7804 76.8711 97.0149 76.8711 97.2595C76.8711 97.5041 76.9681 97.7386 77.1408 97.9118C77.3135 98.0849 77.5479 98.1825 77.7924 98.1831H172.815C173.059 98.1825 173.293 98.0849 173.466 97.9118C173.639 97.7386 173.736 97.5041 173.736 97.2595C173.736 97.0149 173.639 96.7804 173.466 96.6072C173.293 96.4341 173.059 96.3365 172.815 96.3359H77.7924Z" fill="#E4E4E4"/>
<path d="M77.7924 101.879C77.5479 101.879 77.3135 101.977 77.1408 102.15C76.9681 102.323 76.8711 102.558 76.8711 102.802C76.8711 103.047 76.9681 103.282 77.1408 103.455C77.3135 103.628 77.5479 103.725 77.7924 103.726H148.009C148.253 103.725 148.487 103.628 148.66 103.455C148.833 103.282 148.93 103.047 148.93 102.802C148.93 102.558 148.833 102.323 148.66 102.15C148.487 101.977 148.253 101.879 148.009 101.879H77.7924Z" fill="#E4E4E4"/>
<path d="M77.7924 107.441C77.5479 107.442 77.3135 107.54 77.1408 107.713C76.9681 107.886 76.8711 108.12 76.8711 108.365C76.8711 108.61 76.9681 108.844 77.1408 109.017C77.3135 109.19 77.5479 109.288 77.7924 109.289H172.815C173.059 109.288 173.293 109.19 173.466 109.017C173.639 108.844 173.736 108.61 173.736 108.365C173.736 108.12 173.639 107.886 173.466 107.713C173.293 107.54 173.059 107.442 172.815 107.441H77.7924Z" fill="#E4E4E4"/>
<path d="M77.7924 112.98C77.5479 112.981 77.3135 113.079 77.1408 113.252C76.9681 113.425 76.8711 113.659 76.8711 113.904C76.8711 114.149 76.9681 114.383 77.1408 114.556C77.3135 114.729 77.5479 114.827 77.7924 114.828H148.009C148.253 114.827 148.487 114.729 148.66 114.556C148.833 114.383 148.93 114.149 148.93 113.904C148.93 113.659 148.833 113.425 148.66 113.252C148.487 113.079 148.253 112.981 148.009 112.98H77.7924Z" fill="#E4E4E4"/>
<path d="M92.8426 66.9955C90.2182 66.9955 87.6527 66.2173 85.4706 64.7593C83.2884 63.3012 81.5877 61.2289 80.5833 58.8043C79.579 56.3796 79.3162 53.7116 79.8282 51.1376C80.3402 48.5637 81.6039 46.1993 83.4597 44.3435C85.3154 42.4878 87.6798 41.224 90.2537 40.712C92.8277 40.2 95.4957 40.4628 97.9204 41.4671C100.345 42.4714 102.417 44.1721 103.875 46.3543C105.333 48.5364 106.112 51.1018 106.112 53.7263C106.108 57.2442 104.708 60.617 102.221 63.1046C99.7333 65.5921 96.3606 66.9915 92.8426 66.9955Z" fill="#00B0FF"/>
<path d="M52.5642 117.168C52.5413 116.684 52.4124 116.21 52.1867 115.781C51.961 115.352 51.644 114.978 51.2579 114.684C50.8719 114.391 50.4262 114.186 49.9523 114.083C49.4783 113.981 48.9877 113.984 48.5149 114.091L44.129 107.91L39.7227 109.659L46.0391 118.301C46.2726 119.083 46.7849 119.753 47.479 120.183C48.1731 120.612 49.0007 120.773 49.805 120.633C50.6093 120.493 51.3344 120.063 51.8429 119.425C52.3515 118.786 52.6081 117.983 52.5642 117.168Z" fill="#A0616A"/>
<path d="M44.0155 116.711L30.7441 99.4943L35.7168 83.8661C36.0812 79.937 38.5399 78.8399 38.6445 78.795L38.8041 78.7266L43.1312 90.2659L39.9541 98.7382L47.7522 111.854L44.0155 116.711Z" fill="#3F3D56"/>
<path d="M90.1035 63.638C89.6224 63.6984 89.1604 63.8634 88.75 64.1216C88.3396 64.3798 87.9908 64.7249 87.7281 65.1325C87.4655 65.5401 87.2954 66.0003 87.2299 66.4807C87.1644 66.9611 87.205 67.4501 87.3489 67.9131L81.5254 72.7639L83.6101 77.0217L91.7377 70.056C92.4996 69.7627 93.1273 69.2002 93.5021 68.475C93.8769 67.7498 93.9727 66.9123 93.7713 66.1212C93.5698 65.3301 93.0852 64.6403 92.4092 64.1827C91.7332 63.725 90.9128 63.5312 90.1035 63.638Z" fill="#A0616A"/>
<path d="M90.3079 72.1938L74.1686 86.7565L58.2027 83.0071C54.2572 82.9476 52.9732 80.5811 52.9204 80.4802L52.8398 80.3264L64.0101 75.12L72.7027 77.6326L85.1759 68.8438L90.3079 72.1938Z" fill="#3F3D56"/>
<path d="M62.3524 175.722L66.6887 175.722L68.7514 158.996L62.3516 158.996L62.3524 175.722Z" fill="#A0616A"/>
<path d="M75.0518 179.75L61.4234 179.751L61.4232 174.485L71.228 174.485C72.2421 174.485 73.2146 174.887 73.9317 175.604C74.6488 176.321 75.0516 177.294 75.0517 178.308L75.0518 179.75Z" fill="#2F2E41"/>
<path d="M45.021 175.722L49.3574 175.722L51.4203 158.996L45.0205 158.996L45.021 175.722Z" fill="#A0616A"/>
<path d="M57.7207 179.75L44.0924 179.751L44.0921 174.485L53.897 174.485C54.3991 174.485 54.8963 174.584 55.3602 174.776C55.8241 174.968 56.2456 175.249 56.6007 175.604C56.9557 175.959 57.2374 176.381 57.4295 176.845C57.6217 177.309 57.7206 177.806 57.7206 178.308L57.7207 179.75Z" fill="#2F2E41"/>
<path d="M43.4785 114.672L43.8322 139.431L44.1861 171.971L51.9673 171.264L55.8582 126.344L60.81 171.264H68.8433L69.6525 125.991L66.8229 116.087L43.4785 114.672Z" fill="#2F2E41"/>
<path d="M58.7094 117.994C50.2427 117.995 42.4493 114.163 42.3441 114.11L42.2567 114.066L41.5461 97.0152C41.3401 96.4126 37.283 84.5229 36.5959 80.7438C35.8997 76.915 45.9896 73.5547 47.2148 73.1618L47.4929 70.0817L58.7998 68.8633L60.2329 72.8044L64.2893 74.3254C64.7491 74.498 65.1297 74.8333 65.3589 75.2677C65.5881 75.7021 65.65 76.2056 65.5328 76.6826L63.2783 85.8508L68.7846 116.184L67.5991 116.235C64.7577 117.518 61.6909 117.994 58.7094 117.994Z" fill="#3F3D56"/>
<path d="M57.4942 65.9169C61.4394 63.7603 62.8893 58.8138 60.7326 54.8687C58.576 50.9235 53.6295 49.4736 49.6844 51.6302C45.7392 53.7869 44.2893 58.7333 46.4459 62.6785C48.6026 66.6237 53.549 68.0736 57.4942 65.9169Z" fill="#A0616A"/>
<path d="M46.9953 66.6547C48.5468 68.3074 51.4281 67.4202 51.6302 65.1624C51.6461 64.9871 51.6449 64.8107 51.6268 64.6356C51.5224 63.6355 50.9447 62.7276 51.083 61.6716C51.1144 61.4088 51.2123 61.1583 51.3675 60.944C52.6038 59.2884 55.506 61.6844 56.6728 60.1857C57.3883 59.2667 56.5473 57.8198 57.0963 56.7927C57.821 55.4371 59.9673 56.1058 61.3133 55.3634C62.8109 54.5374 62.7213 52.2397 61.7355 50.8421C60.5333 49.1377 58.4254 48.2282 56.3437 48.0971C54.2621 47.9661 52.1948 48.5288 50.2514 49.2861C48.0433 50.1467 45.8537 51.3359 44.4949 53.2775C42.8424 55.6386 42.6834 58.813 43.5098 61.5739C44.0126 63.2534 45.7283 65.3051 46.9953 66.6547Z" fill="#2F2E41"/>
<path d="M104.26 179.956H1.08525C1.01343 179.956 0.944549 179.927 0.893764 179.876C0.842979 179.826 0.814453 179.757 0.814453 179.685C0.814453 179.613 0.842979 179.544 0.893764 179.493C0.944549 179.443 1.01343 179.414 1.08525 179.414H104.26C104.332 179.414 104.401 179.443 104.452 179.493C104.502 179.544 104.531 179.613 104.531 179.685C104.531 179.757 104.502 179.826 104.452 179.876C104.401 179.927 104.332 179.956 104.26 179.956Z" fill="#CACACA"/>
<path d="M92.0762 58.7395C91.8369 58.7398 91.6065 58.6493 91.4314 58.4862L87.056 54.4222C86.8721 54.251 86.7637 54.0139 86.7545 53.7629C86.7454 53.5118 86.8363 53.2674 87.0072 53.0834C87.1782 52.8993 87.4152 52.7907 87.6662 52.7813C87.9173 52.7719 88.1618 52.8625 88.346 53.0333L92.052 56.4757L99.3844 49.1434C99.4723 49.0549 99.5768 48.9845 99.692 48.9365C99.8071 48.8884 99.9306 48.8635 100.055 48.8633C100.18 48.8631 100.304 48.8875 100.419 48.9351C100.534 48.9828 100.639 49.0527 100.727 49.141C100.816 49.2292 100.886 49.334 100.933 49.4493C100.981 49.5646 101.005 49.6882 101.005 49.813C101.005 49.9378 100.98 50.0613 100.932 50.1764C100.884 50.2916 100.813 50.3961 100.725 50.4839L92.7466 58.462C92.6586 58.5501 92.5541 58.62 92.4391 58.6676C92.3241 58.7152 92.2007 58.7397 92.0762 58.7395Z" fill="white"/>
</g>
</g>
</g>
<defs>
<clipPath id="clip0_148_6971">
<rect width="184.375" height="180" fill="white" transform="translate(0.8125)"/>
</clipPath>
<clipPath id="clip1_148_6971">
<rect width="184.375" height="158.21" fill="white" transform="translate(0.8125 21.7891)"/>
</clipPath>
<clipPath id="clip2_148_6971">
<rect width="184.371" height="158.21" fill="white" transform="translate(0.814453 21.7891)"/>
</clipPath>
</defs>
</svg>
