<svg width="174" height="145" viewBox="0 0 174 145" fill="none" xmlns="http://www.w3.org/2000/svg">
<g clip-path="url(#clip0_148_7259)">
<g clip-path="url(#clip1_148_7259)">
<path d="M95.5795 111.102C126.254 111.102 151.121 86.2356 151.121 55.5609C151.121 24.8863 126.254 0.0195312 95.5795 0.0195312C64.9048 0.0195312 40.0381 24.8863 40.0381 55.5609C40.0381 86.2356 64.9048 111.102 95.5795 111.102Z" fill="#F2F2F2"/>
<path d="M131.875 24.8565H30.1308C29.9127 24.8518 29.7396 24.6712 29.7442 24.453C29.7488 24.2414 29.9192 24.0709 30.1308 24.0664H131.875C132.093 24.0711 132.266 24.2517 132.262 24.4699C132.257 24.6815 132.087 24.852 131.875 24.8565Z" fill="#CACACA"/>
<path d="M97.2003 38.1719H69.0742C66.9616 38.1719 65.249 39.8845 65.249 41.9971V41.9971C65.249 44.1097 66.9616 45.8222 69.0742 45.8222H97.2003C99.3129 45.8222 101.025 44.1097 101.025 41.9971C101.025 39.8845 99.3129 38.1719 97.2003 38.1719Z" fill="white"/>
<path d="M50.9062 53.4727H115.372C117.484 53.4727 119.197 55.1853 119.197 57.2978C119.197 59.4104 117.484 61.123 115.372 61.123H50.9062C48.7936 61.123 47.0811 59.4104 47.0811 57.2978C47.0811 55.1853 48.7936 53.4727 50.9062 53.4727Z" fill="white"/>
<path d="M50.9062 68.7734H115.372C117.484 68.7734 119.197 70.486 119.197 72.5986C119.197 74.7112 117.484 76.4238 115.372 76.4238H50.9062C48.7936 76.4238 47.0811 74.7112 47.0811 72.5986C47.0811 70.486 48.7936 68.7734 50.9062 68.7734Z" fill="white"/>
<path d="M42.9169 143.851L42.7652 143.836C37.6176 143.305 32.9642 140.537 30.0413 136.267C29.2407 135.077 28.5931 133.791 28.1138 132.439L28.0677 132.31L28.2041 132.299C29.8325 132.168 31.5054 131.892 32.2485 131.76L27.4565 130.137L27.4269 129.994C27.1427 128.66 27.6993 127.286 28.8326 126.526C29.9688 125.729 31.4756 125.704 32.6382 126.462C33.16 126.795 33.7057 127.125 34.2334 127.444C36.0468 128.541 37.922 129.675 39.328 131.227C41.4599 133.628 42.3943 136.862 41.8711 140.03L42.9169 143.851Z" fill="#F2F2F2"/>
<path d="M60.3356 141.466L62.6972 141.466L63.821 132.355L60.335 132.356L60.3356 141.466Z" fill="#A0616A"/>
<path d="M60.253 143.929L67.5159 143.929V143.837C67.5158 142.276 66.2502 141.01 64.689 141.01L63.3622 140.004L60.8869 141.011L60.2529 141.011L60.253 143.929Z" fill="#2F2E41"/>
<path d="M41.4082 134.924L43.2973 136.341L49.6633 129.728L46.8749 127.637L41.4082 134.924Z" fill="#A0616A"/>
<path d="M39.8623 136.847L45.6721 141.205L45.7272 141.132C46.664 139.883 46.4112 138.111 45.1624 137.174L44.7051 135.572L42.121 134.892L41.6139 134.512L39.8623 136.847Z" fill="#2F2E41"/>
<path d="M49.2587 98.7169C49.2587 98.7169 49.3891 102.273 49.5536 105.125C49.5805 105.593 48.4847 106.101 48.5131 106.61C48.5319 106.948 48.7379 107.276 48.757 107.628C48.7772 108 48.4928 108.328 48.5131 108.713C48.5328 109.088 48.8573 109.518 48.8769 109.903C49.0875 114.038 49.8509 118.988 49.0864 120.371C48.7097 121.053 43.9072 130.501 43.9072 130.501C43.9072 130.501 46.583 134.515 47.3475 133.177C48.3572 131.41 56.1392 123.143 56.1392 121.564C56.1392 119.987 57.9396 108.17 57.9396 108.17L59.195 115.163L59.7706 116.549L59.5897 117.362L59.9617 118.46L59.9818 119.546L60.344 121.564C60.344 121.564 59.2546 137.282 59.8681 137.72C60.4835 138.159 63.4632 138.949 63.8148 138.159C64.1646 137.37 66.4412 121.755 66.4412 121.755C66.4412 121.755 66.8081 114.599 67.2057 107.948C67.2286 107.562 67.5 107.096 67.5211 106.715C67.5459 106.274 67.3739 105.7 67.3968 105.272C67.4217 104.781 67.6395 104.435 67.6606 103.965C67.823 100.332 66.9111 95.9074 66.6206 95.4716C65.7433 94.1567 64.9539 93.1055 64.9539 93.1055C64.9539 93.1055 53.1381 89.2232 49.9807 93.1681L49.2587 98.7169Z" fill="#2F2E41"/>
<path d="M61.0429 62.1438L56.3588 61.207L54.173 64.1736C50.0942 68.1841 50.0328 71.7236 50.7609 77.3972V85.3601L50.2339 90.6982C50.2339 90.6982 48.3684 94.6003 50.2925 95.5088C52.2167 96.4174 64.8554 96.3399 66.0621 95.9772C67.2688 95.6146 66.2229 95.1693 65.906 93.4791C65.3108 90.3042 65.7089 91.8357 65.7499 90.8248C66.3372 76.3242 64.9692 70.3712 64.8303 68.8064L62.4481 64.4859L61.0429 62.1438Z" fill="#3F3D56"/>
<path d="M85.7311 73.8349C85.2429 74.7598 84.0974 75.1139 83.1724 74.6258C83.0738 74.5737 82.9799 74.5131 82.892 74.4445L72.7764 80.8674L72.8055 77.3704L82.6321 71.6679C83.332 70.8832 84.5356 70.8144 85.3204 71.5143C85.977 72.1 86.1468 73.0594 85.7311 73.8349Z" fill="#A0616A"/>
<path d="M57.3462 66.193L56.1946 66.071C55.1305 65.9606 54.0864 66.4163 53.4439 67.2717C53.1978 67.5961 53.021 67.9676 52.9246 68.3632L52.9239 68.3664C52.635 69.5571 53.0881 70.8049 54.0736 71.5329L58.0512 74.4655C60.8426 78.2372 66.0887 80.7396 72.2424 82.7726L81.8075 76.8321L78.4243 72.7346L71.8635 76.2508L62.1113 68.7016L62.1057 68.697L58.394 66.3057L57.3462 66.193Z" fill="#3F3D56"/>
<path d="M59.4613 59.8425C62.478 59.8425 64.9235 57.3969 64.9235 54.3802C64.9235 51.3635 62.478 48.918 59.4613 48.918C56.4446 48.918 53.999 51.3635 53.999 54.3802C53.999 57.3969 56.4446 59.8425 59.4613 59.8425Z" fill="#A0616A"/>
<path d="M59.5875 59.8438C59.5435 59.8452 59.4994 59.8462 59.4553 59.8474C59.4364 59.8963 59.4161 59.9449 59.3926 59.9925L59.5875 59.8438Z" fill="#2F2E41"/>
<path d="M61.0859 54.5312C61.0945 54.5851 61.1076 54.6381 61.1251 54.6897C61.1179 54.6356 61.1048 54.5825 61.0859 54.5312Z" fill="#2F2E41"/>
<path d="M64.9925 49.1544C64.7676 49.8526 64.567 48.967 63.8274 49.1263C62.9376 49.3179 61.9023 49.2521 61.1737 48.7067C60.088 47.9102 58.6811 47.6957 57.4075 48.1327C56.1607 48.5737 54.072 48.8847 53.7472 50.1667C53.6343 50.6123 53.5894 51.0959 53.3157 51.4652C53.0764 51.788 52.6987 51.9721 52.3829 52.2207C51.3164 53.0598 52.1315 55.4438 52.6363 56.7034C53.141 57.9631 54.2989 58.8807 55.5719 59.3508C56.8036 59.8056 58.1405 59.8858 59.4544 59.85C59.683 59.2573 59.5842 58.5727 59.3957 57.9583C59.1915 57.2931 58.8892 56.6511 58.804 55.9605C58.7187 55.27 58.906 54.4856 59.485 54.0997C60.0172 53.745 60.8833 53.9611 61.0858 54.5345C60.9676 53.8176 61.6938 53.1239 62.4426 53.0019C63.2465 52.8709 64.0505 53.1612 64.8521 53.3056C65.6537 53.4501 65.3692 50.0753 64.9925 49.1544Z" fill="#2F2E41"/>
<path d="M95.5422 63.4186C96.0514 57.2661 91.4766 51.8657 85.324 51.3565C79.1715 50.8473 73.771 55.4221 73.2618 61.5747C72.7526 67.7272 77.3275 73.1276 83.48 73.6368C89.6326 74.146 95.033 69.5712 95.5422 63.4186Z" fill="#00B0FF"/>
<path d="M87.3381 57.837L84.4018 60.7733L81.4655 57.837C80.9902 57.3616 80.2195 57.3616 79.7442 57.837C79.2689 58.3123 79.2689 59.0829 79.7442 59.5583L82.6805 62.4946L79.7442 65.4309C79.2693 65.9067 79.27 66.6773 79.7458 67.1522C80.2209 67.6264 80.9903 67.6264 81.4655 67.1522L84.4018 64.2159L87.3381 67.1522C87.8139 67.6271 88.5845 67.6263 89.0594 67.1506C89.5337 66.6754 89.5337 65.906 89.0594 65.4309L86.1231 62.4946L89.0594 59.5583C89.5347 59.0829 89.5347 58.3123 89.0594 57.837C88.5841 57.3616 87.8134 57.3616 87.3381 57.837Z" fill="white"/>
<path d="M79.9968 53.1011C80.3263 54.0937 79.7887 55.1655 78.7961 55.495C78.6902 55.5301 78.5815 55.5558 78.4712 55.5718L76.1029 67.318L73.5996 64.8759L76.2876 53.8372C76.2059 52.7888 76.9895 51.8727 78.0379 51.791C78.9151 51.7226 79.725 52.2642 79.9968 53.1011Z" fill="#A0616A"/>
<path d="M54.8303 68.2945L53.945 69.0411C53.1286 69.7325 52.7347 70.8014 52.9071 71.8573C52.9708 72.2595 53.1165 72.6442 53.3352 72.9877L53.337 72.9904C53.9962 74.0232 55.2103 74.5601 56.418 74.3529L61.2878 73.5129C65.9421 74.1098 71.3797 72.0566 77.1069 69.0235L79.4422 58.0087L74.1432 57.6133L72.1384 64.7818L59.9394 66.5927L59.9322 66.5936L55.637 67.6164L54.8303 68.2945Z" fill="#3F3D56"/>
<path d="M82.5602 144.118L23.1375 144.186C22.9937 144.185 22.8775 144.068 22.8779 143.924C22.8784 143.781 22.9943 143.665 23.1375 143.665L82.5602 143.598C82.704 143.598 82.8202 143.715 82.8197 143.859C82.8193 144.002 82.7033 144.118 82.5602 144.118Z" fill="#CACACA"/>
<path d="M35.2925 19.855C36.3138 19.855 37.1417 19.0086 37.1417 17.9646C37.1417 16.9206 36.3138 16.0742 35.2925 16.0742C34.2713 16.0742 33.4434 16.9206 33.4434 17.9646C33.4434 19.0086 34.2713 19.855 35.2925 19.855Z" fill="#3F3D56"/>
<path d="M41.6802 19.855C42.7015 19.855 43.5294 19.0086 43.5294 17.9646C43.5294 16.9206 42.7015 16.0742 41.6802 16.0742C40.659 16.0742 39.8311 16.9206 39.8311 17.9646C39.8311 19.0086 40.659 19.855 41.6802 19.855Z" fill="#3F3D56"/>
<path d="M48.0689 19.855C49.0902 19.855 49.9181 19.0086 49.9181 17.9646C49.9181 16.9206 49.0902 16.0742 48.0689 16.0742C47.0476 16.0742 46.2197 16.9206 46.2197 17.9646C46.2197 19.0086 47.0476 19.855 48.0689 19.855Z" fill="#3F3D56"/>
<path d="M55.3522 19.4568C55.2954 19.4568 55.2387 19.4348 55.1958 19.3911L53.9481 18.1156C53.8649 18.0306 53.8649 17.8948 53.9481 17.8098L55.1958 16.5344C55.2805 16.4481 55.4191 16.4468 55.5051 16.531C55.5914 16.6155 55.5929 16.7539 55.5085 16.8402L54.4103 17.9627L55.5085 19.0853C55.5929 19.1716 55.5914 19.31 55.5051 19.3945C55.4626 19.4361 55.4074 19.4568 55.3522 19.4568Z" fill="#3F3D56"/>
<path d="M57.4492 19.457C57.394 19.457 57.3387 19.4363 57.2963 19.3946C57.2099 19.3102 57.2084 19.1718 57.2928 19.0854L58.3909 17.9628L57.2928 16.8404C57.2084 16.7541 57.2099 16.6156 57.2963 16.5312C57.3824 16.4466 57.521 16.4482 57.6055 16.5346L58.8531 17.81C58.9363 17.8949 58.9363 18.0308 58.8531 18.1157L57.6055 19.3912C57.5626 19.435 57.506 19.457 57.4492 19.457Z" fill="#3F3D56"/>
<path d="M122.724 16.293H120.404C120.139 16.293 119.925 16.5073 119.925 16.7718V19.0941C119.925 19.3587 120.139 19.573 120.404 19.573H122.724C122.988 19.573 123.205 19.3587 123.205 19.0941V16.7718C123.205 16.5073 122.988 16.293 122.724 16.293Z" fill="#3F3D56"/>
<path d="M117.039 16.293H114.719C114.455 16.293 114.24 16.5073 114.24 16.7718V19.0941C114.24 19.3587 114.455 19.573 114.719 19.573H117.039C117.304 19.573 117.52 19.3587 117.52 19.0941V16.7718C117.52 16.5073 117.304 16.293 117.039 16.293Z" fill="#3F3D56"/>
<path d="M128.081 16.4023H125.761C125.497 16.4023 125.282 16.6166 125.282 16.8812V19.2035C125.282 19.4681 125.497 19.6823 125.761 19.6823H128.081C128.346 19.6823 128.562 19.4681 128.562 19.2035V16.8812C128.562 16.6166 128.346 16.4023 128.081 16.4023Z" fill="#3F3D56"/>
<path d="M93.1104 17.2852H74.5653C74.2417 17.2852 73.9814 17.5476 73.9814 17.869C73.9814 18.1905 74.2417 18.4528 74.5653 18.4528H93.1104C93.4319 18.4528 93.6943 18.1904 93.6943 17.869C93.6943 17.5476 93.4319 17.2852 93.1104 17.2852Z" fill="#3F3D56"/>
</g>
</g>
<defs>
<clipPath id="clip0_148_7259">
<rect width="173" height="144.167" fill="white" transform="translate(0.5 0.0195312)"/>
</clipPath>
<clipPath id="clip1_148_7259">
<rect width="128.244" height="144.167" fill="white" transform="translate(22.8779 0.0195312)"/>
</clipPath>
</defs>
</svg>
