<svg width="174" height="163" viewBox="0 0 174 163" fill="none" xmlns="http://www.w3.org/2000/svg">
<g clip-path="url(#clip0_148_7264)">
<g clip-path="url(#clip1_148_7264)">
<g clip-path="url(#clip2_148_7264)">
<path d="M28.9544 139.468L27.6885 134.475C25.444 133.524 23.1476 132.7 20.8103 132.007L20.6505 134.328L20.0025 131.771C17.1038 130.943 15.1318 130.578 15.1318 130.578C15.1318 130.578 17.7949 140.707 23.3823 148.451L29.8921 149.594L24.8348 150.324C25.5376 151.169 26.2929 151.97 27.0962 152.721C35.2234 160.265 44.2756 163.726 47.3147 160.451C50.3539 157.177 46.2293 148.407 38.1021 140.864C35.5827 138.526 32.4177 136.649 29.2495 135.172L28.9544 139.468Z" fill="#F2F2F2"/>
<path d="M40.9937 134.043L42.4908 129.115C41.0612 127.14 39.5214 125.248 37.8787 123.447L36.5425 125.351L37.309 122.827C35.2556 120.62 33.756 119.289 33.756 119.289C33.756 119.289 30.8006 129.337 31.5802 138.854L36.5618 143.197L31.8548 141.207C32.0195 142.295 32.2524 143.371 32.5522 144.429C35.6101 155.088 41.5701 162.73 45.8642 161.498C50.1582 160.266 51.1605 150.627 48.1027 139.968C47.1548 136.664 45.4153 133.421 43.4668 130.519L40.9937 134.043Z" fill="#F2F2F2"/>
<path d="M115.431 52.1727H114.641V30.5403C114.641 28.896 114.317 27.2679 113.688 25.7488C113.059 24.2297 112.136 22.8494 110.974 21.6868C109.811 20.5241 108.431 19.6018 106.912 18.9726C105.392 18.3434 103.764 18.0195 102.12 18.0195H56.2874C52.9666 18.0195 49.7819 19.3387 47.4338 21.6868C45.0857 24.0349 43.7666 27.2196 43.7666 30.5403V149.219C43.7666 150.864 44.0905 152.492 44.7197 154.011C45.3489 155.53 46.2712 156.91 47.4338 158.073C48.5965 159.236 49.9768 160.158 51.4959 160.787C53.015 161.416 54.6431 161.74 56.2874 161.74H102.12C105.441 161.74 108.625 160.421 110.973 158.073C113.322 155.725 114.641 152.54 114.641 149.219V67.5711H115.43L115.431 52.1727Z" fill="#E6E6E6"/>
<path d="M102.626 21.2773H96.6434C96.9185 21.9519 97.0235 22.6838 96.9492 23.4085C96.8748 24.1332 96.6233 24.8285 96.217 25.4331C95.8106 26.0378 95.2617 26.5332 94.6187 26.8757C93.9758 27.2182 93.2584 27.3974 92.5299 27.3973H66.2729C65.5444 27.3973 64.8271 27.2181 64.1842 26.8755C63.5413 26.533 62.9925 26.0376 62.5861 25.433C62.1798 24.8283 61.9284 24.1331 61.854 23.4084C61.7797 22.6837 61.8847 21.9519 62.1598 21.2773H56.5721C54.0922 21.2773 51.7139 22.2625 49.9603 24.016C48.2068 25.7695 47.2217 28.1478 47.2217 30.6277V149.135C47.2217 151.614 48.2068 153.993 49.9603 155.746C51.7139 157.5 54.0922 158.485 56.5721 158.485H102.626C105.105 158.485 107.484 157.5 109.237 155.746C110.991 153.993 111.976 151.614 111.976 149.135V30.6275C111.976 28.1477 110.991 25.7694 109.237 24.0159C107.484 22.2624 105.105 21.2773 102.626 21.2773Z" fill="white"/>
<path d="M73.7306 68.4841C73.7304 67.6558 73.9485 66.842 74.3628 66.1247C74.7771 65.4074 75.373 64.8119 76.0906 64.3981C75.3734 63.9839 74.5597 63.7657 73.7314 63.7656C72.9032 63.7655 72.0895 63.9835 71.3721 64.3976C70.6548 64.8117 70.0591 65.4073 69.6449 66.1246C69.2307 66.8419 69.0127 67.6556 69.0127 68.4838C69.0127 69.3121 69.2307 70.1258 69.6449 70.8431C70.0591 71.5604 70.6548 72.156 71.3721 72.5701C72.0895 72.9842 72.9032 73.2022 73.7314 73.2021C74.5597 73.202 75.3734 72.9838 76.0906 72.5696C75.3731 72.1559 74.7771 71.5605 74.3628 70.8433C73.9485 70.1261 73.7305 69.3124 73.7306 68.4841Z" fill="#CCCCCC"/>
<path d="M79.6622 68.4841C79.662 67.6558 79.8801 66.842 80.2944 66.1247C80.7087 65.4074 81.3047 64.8119 82.0223 64.3981C81.305 63.9839 80.4914 63.7657 79.6631 63.7656C78.8348 63.7655 78.0211 63.9835 77.3038 64.3976C76.5864 64.8117 75.9907 65.4073 75.5765 66.1246C75.1624 66.8419 74.9443 67.6556 74.9443 68.4838C74.9443 69.3121 75.1624 70.1258 75.5765 70.8431C75.9907 71.5604 76.5864 72.156 77.3038 72.5701C78.0211 72.9842 78.8348 73.2022 79.6631 73.2021C80.4914 73.202 81.305 72.9838 82.0223 72.5696C81.3047 72.1559 80.7088 71.5605 80.2945 70.8433C79.8802 70.1261 79.6621 69.3124 79.6622 68.4841Z" fill="#CCCCCC"/>
<path d="M85.4585 73.2021C88.0643 73.2021 90.1767 71.0896 90.1767 68.4838C90.1767 65.878 88.0643 63.7656 85.4585 63.7656C82.8527 63.7656 80.7402 65.878 80.7402 68.4838C80.7402 71.0896 82.8527 73.2021 85.4585 73.2021Z" fill="#00B0FF"/>
<path d="M93.3427 83.2198H65.8439C65.5821 83.2195 65.3311 83.1154 65.146 82.9303C64.9609 82.7452 64.8568 82.4942 64.8564 82.2324V54.7335C64.8568 54.4718 64.9609 54.2208 65.146 54.0356C65.3311 53.8505 65.5821 53.7464 65.8439 53.7461H93.3427C93.6045 53.7464 93.8555 53.8505 94.0406 54.0356C94.2257 54.2208 94.3299 54.4718 94.3302 54.7335V82.2324C94.3299 82.4942 94.2257 82.7452 94.0406 82.9303C93.8555 83.1154 93.6045 83.2195 93.3427 83.2198ZM65.8439 54.1413C65.6868 54.1415 65.5362 54.2039 65.4252 54.315C65.3141 54.4261 65.2516 54.5767 65.2515 54.7337V82.2326C65.2516 82.3897 65.3141 82.5402 65.4252 82.6513C65.5362 82.7624 65.6868 82.8249 65.8439 82.825H93.3427C93.4998 82.8249 93.6504 82.7624 93.7615 82.6513C93.8725 82.5402 93.935 82.3897 93.9352 82.2326V54.7337C93.935 54.5767 93.8725 54.4261 93.7615 54.315C93.6504 54.2039 93.4998 54.1415 93.3427 54.1413H65.8439Z" fill="#CCCCCC"/>
<path d="M99.4835 104.297H57.3086V104.692H99.4835V104.297Z" fill="#CCCCCC"/>
<path d="M58.6405 101.832C59.3761 101.832 59.9724 101.235 59.9724 100.5C59.9724 99.7643 59.3761 99.168 58.6405 99.168C57.9049 99.168 57.3086 99.7643 57.3086 100.5C57.3086 101.235 57.9049 101.832 58.6405 101.832Z" fill="#00B0FF"/>
<path d="M99.4835 117.617H57.3086V118.012H99.4835V117.617Z" fill="#CCCCCC"/>
<path d="M58.6405 115.152C59.3761 115.152 59.9724 114.556 59.9724 113.82C59.9724 113.085 59.3761 112.488 58.6405 112.488C57.9049 112.488 57.3086 113.085 57.3086 113.82C57.3086 114.556 57.9049 115.152 58.6405 115.152Z" fill="#00B0FF"/>
<path d="M98.7115 132.783H85.383C85.1528 132.783 84.9321 132.691 84.7693 132.529C84.6065 132.366 84.5149 132.145 84.5146 131.915V127.243C84.5149 127.013 84.6065 126.792 84.7693 126.63C84.9321 126.467 85.1528 126.375 85.383 126.375H98.7115C98.9417 126.375 99.1624 126.467 99.3252 126.63C99.488 126.792 99.5796 127.013 99.5798 127.243V131.915C99.5796 132.145 99.488 132.366 99.3252 132.529C99.1624 132.691 98.9417 132.783 98.7115 132.783Z" fill="#00B0FF"/>
<path d="M62.9852 101.832C63.7208 101.832 64.3171 101.235 64.3171 100.5C64.3171 99.7643 63.7208 99.168 62.9852 99.168C62.2496 99.168 61.6533 99.7643 61.6533 100.5C61.6533 101.235 62.2496 101.832 62.9852 101.832Z" fill="#00B0FF"/>
<path d="M67.33 101.832C68.0655 101.832 68.6619 101.235 68.6619 100.5C68.6619 99.7643 68.0655 99.168 67.33 99.168C66.5944 99.168 65.998 99.7643 65.998 100.5C65.998 101.235 66.5944 101.832 67.33 101.832Z" fill="#00B0FF"/>
<path d="M62.9852 115.152C63.7208 115.152 64.3171 114.556 64.3171 113.82C64.3171 113.085 63.7208 112.488 62.9852 112.488C62.2496 112.488 61.6533 113.085 61.6533 113.82C61.6533 114.556 62.2496 115.152 62.9852 115.152Z" fill="#00B0FF"/>
<path d="M67.33 115.152C68.0655 115.152 68.6619 114.556 68.6619 113.82C68.6619 113.085 68.0655 112.488 67.33 112.488C66.5944 112.488 65.998 113.085 65.998 113.82C65.998 114.556 66.5944 115.152 67.33 115.152Z" fill="#00B0FF"/>
<path d="M158.331 162.185H19.7781C19.4815 162.185 19.2412 162.08 19.2412 161.95C19.2412 161.82 19.4815 161.715 19.7781 161.715H158.331C158.627 161.715 158.868 161.82 158.868 161.95C158.868 162.08 158.627 162.185 158.331 162.185Z" fill="#3F3D56"/>
<path d="M124.1 112.472C124.194 112.516 124.285 112.566 124.372 112.624L133.027 108.93L133.336 106.65L136.794 106.629L136.59 111.858L125.166 114.879C125.142 114.959 125.113 115.037 125.08 115.113C124.915 115.465 124.649 115.761 124.316 115.963C123.984 116.165 123.599 116.264 123.21 116.248C122.821 116.232 122.445 116.101 122.13 115.872C121.816 115.643 121.575 115.327 121.44 114.962C121.304 114.597 121.28 114.2 121.369 113.821C121.458 113.442 121.658 113.098 121.942 112.832C122.226 112.567 122.582 112.39 122.966 112.326C123.35 112.262 123.744 112.313 124.1 112.472Z" fill="#FFB8B8"/>
<path d="M138.052 159.86H135.686L134.561 150.734L138.052 150.735L138.052 159.86Z" fill="#FFB8B8"/>
<path d="M133.997 159.184H138.559V162.056H131.124C131.124 161.294 131.427 160.564 131.965 160.025C132.504 159.486 133.235 159.184 133.997 159.184Z" fill="#2F2E41"/>
<path d="M147.253 159.191L144.899 159.423L142.884 150.452L146.359 150.109L147.253 159.191Z" fill="#FFB8B8"/>
<path d="M143.151 158.918L147.692 158.47L147.973 161.329L140.574 162.058C140.537 161.683 140.574 161.304 140.683 160.943C140.793 160.582 140.973 160.246 141.212 159.954C141.451 159.662 141.746 159.421 142.078 159.243C142.411 159.065 142.775 158.955 143.151 158.918Z" fill="#2F2E41"/>
<path d="M138.712 96.9715C141.33 96.9715 143.452 94.8495 143.452 92.2318C143.452 89.6142 141.33 87.4922 138.712 87.4922C136.095 87.4922 133.973 89.6142 133.973 92.2318C133.973 94.8495 136.095 96.9715 138.712 96.9715Z" fill="#FFB8B8"/>
<path d="M135.157 158.015C134.954 158.016 134.757 157.944 134.601 157.814C134.445 157.683 134.341 157.502 134.306 157.302C133.081 150.504 129.078 128.277 128.983 127.662C128.98 127.648 128.979 127.633 128.98 127.619V125.962C128.979 125.901 128.998 125.842 129.033 125.793L129.562 125.053C129.587 125.017 129.62 124.988 129.659 124.967C129.697 124.946 129.739 124.934 129.783 124.932C132.798 124.791 142.67 124.377 143.147 124.973C143.627 125.571 143.457 127.386 143.418 127.744L143.42 127.781L147.856 156.147C147.891 156.374 147.835 156.604 147.701 156.79C147.567 156.975 147.365 157.1 147.139 157.138L144.369 157.595C144.162 157.628 143.951 157.586 143.773 157.476C143.595 157.367 143.462 157.197 143.399 156.998C142.542 154.26 139.669 145.049 138.673 141.485C138.667 141.463 138.653 141.443 138.633 141.43C138.613 141.417 138.59 141.412 138.567 141.415C138.544 141.419 138.522 141.43 138.507 141.448C138.492 141.466 138.484 141.489 138.484 141.512C138.534 144.909 138.654 153.577 138.695 156.571L138.7 156.894C138.702 157.112 138.622 157.323 138.475 157.485C138.329 157.647 138.127 157.748 137.91 157.769L135.239 158.012C135.211 158.014 135.184 158.015 135.157 158.015Z" fill="#2F2E41"/>
<path d="M135.703 98.8355C134.876 99.3271 134.381 100.231 134.097 101.15C133.571 102.852 133.255 104.612 133.155 106.391L132.854 111.717L129.139 125.837C132.359 128.562 134.217 127.943 138.552 125.714C142.887 123.485 143.383 126.457 143.383 126.457L144.25 114.443L145.488 101.314C145.21 100.98 144.895 100.677 144.55 100.412C143.405 99.5222 142.073 98.9035 140.654 98.6028C139.236 98.3021 137.767 98.3273 136.36 98.6766L135.703 98.8355Z" fill="#00B0FF"/>
<path d="M134.496 115.325C134.596 115.363 134.693 115.408 134.786 115.461L143.344 111.177L143.486 108.857L147.016 108.613L147.205 113.903L135.768 117.685C135.675 118.086 135.462 118.449 135.157 118.725C134.853 119.001 134.472 119.179 134.064 119.233C133.656 119.288 133.242 119.217 132.875 119.03C132.509 118.843 132.208 118.549 132.013 118.187C131.818 117.824 131.738 117.412 131.783 117.003C131.828 116.594 131.997 116.209 132.266 115.898C132.536 115.587 132.893 115.366 133.292 115.264C133.69 115.161 134.11 115.183 134.496 115.325Z" fill="#FFB8B8"/>
<path d="M145.426 101.377C147.532 102.12 147.902 110.171 147.902 110.171C145.425 108.809 142.453 111.038 142.453 111.038C142.453 111.038 141.833 108.933 141.09 106.208C140.866 105.441 140.839 104.63 141.012 103.851C141.185 103.071 141.553 102.348 142.081 101.749C142.081 101.749 143.32 100.633 145.426 101.377Z" fill="#00B0FF"/>
<path d="M142.961 93.4864C142.371 93.014 141.565 93.8727 141.565 93.8727L141.093 89.6208C141.093 89.6208 138.14 89.9745 136.25 89.5028C134.36 89.0311 134.065 91.2155 134.065 91.2155C133.968 90.3331 133.948 89.4439 134.006 88.558C134.124 87.4951 135.66 86.4321 138.376 85.7234C141.093 85.0147 142.51 88.0856 142.51 88.0856C144.4 89.0303 143.552 93.9589 142.961 93.4864Z" fill="#2F2E41"/>
</g>
</g>
</g>
<defs>
<clipPath id="clip0_148_7264">
<rect width="173" height="162.188" fill="white" transform="translate(0.5)"/>
</clipPath>
<clipPath id="clip1_148_7264">
<rect width="173" height="144.167" fill="white" transform="translate(0.5 18.0195)"/>
</clipPath>
<clipPath id="clip2_148_7264">
<rect width="143.737" height="144.167" fill="white" transform="translate(15.1318 18.0195)"/>
</clipPath>
</defs>
</svg>
