<svg width="140" height="132" viewBox="0 0 140 132" fill="none" xmlns="http://www.w3.org/2000/svg">
<g clip-path="url(#clip0_148_7252)">
<g clip-path="url(#clip1_148_7252)">
<path d="M106.218 23.1191L8.3125 51.6445L10.9057 60.545L108.811 32.0195L106.218 23.1191Z" fill="#3F3D56"/>
<path d="M20.0105 92.5275L5.58003 42.9995C5.47304 42.6323 5.51632 42.2376 5.70032 41.9023C5.88432 41.567 6.19398 41.3185 6.56118 41.2116L102.093 13.3776C102.46 13.271 102.854 13.3144 103.19 13.4983C103.525 13.6822 103.773 13.9917 103.881 14.3586L116.665 58.2369L116.269 58.3522L103.485 14.4739C103.408 14.2119 103.231 13.991 102.991 13.8596C102.752 13.7283 102.47 13.6972 102.208 13.7731L6.67643 41.6071C6.41414 41.6835 6.19296 41.861 6.06153 42.1005C5.9301 42.34 5.89919 42.6219 5.97561 42.8842L20.406 92.4122L20.0105 92.5275Z" fill="#3F3D56"/>
<path d="M95.5204 58.4406C95.2306 58.4403 94.9486 58.3462 94.7168 58.1722C94.4849 57.9983 94.3156 57.754 94.2342 57.4758L91.8138 49.1688C91.7149 48.8278 91.7553 48.4615 91.9261 48.1503C92.0969 47.8391 92.3841 47.6083 92.7248 47.5086L101.032 45.0882C101.373 44.9893 101.739 45.0297 102.05 45.2005C102.362 45.3713 102.592 45.6586 102.692 45.9994L105.112 54.3065C105.211 54.6474 105.171 55.0137 105 55.3249C104.829 55.6362 104.542 55.867 104.201 55.9667L95.8943 58.387C95.7729 58.4225 95.647 58.4406 95.5204 58.4406Z" fill="#00B0FF"/>
<path d="M19.7868 43.1528C19.762 43.0674 19.7324 42.9835 19.6982 42.9015C19.4659 42.3377 19.0335 41.8797 18.4841 41.6154C17.9346 41.3511 17.3069 41.2992 16.7215 41.4696C16.1361 41.6401 15.6343 42.0208 15.3126 42.5388C14.9909 43.0567 14.8719 43.6752 14.9785 44.2756C14.9935 44.3631 15.0135 44.4498 15.0383 44.5351C15.1887 45.0486 15.5015 45.4996 15.9297 45.8205C16.3579 46.1413 16.8785 46.3149 17.4136 46.3151C17.6472 46.3156 17.8796 46.2823 18.1037 46.2162C18.7327 46.0324 19.2631 45.6067 19.5786 45.0324C19.8941 44.4582 19.969 43.7822 19.7868 43.1528ZM17.9884 45.8206C17.4638 45.9729 16.9004 45.9109 16.4215 45.6483C15.9426 45.3857 15.5874 44.9439 15.4338 44.4198C15.4097 44.3344 15.3904 44.2477 15.3761 44.1602C15.2988 43.6656 15.4043 43.1598 15.6729 42.7373C15.9415 42.3149 16.3548 42.0047 16.8355 41.8648C17.3162 41.725 17.8313 41.765 18.2846 41.9774C18.738 42.1898 19.0984 42.56 19.2985 43.0189C19.3359 43.0995 19.3669 43.1828 19.3913 43.2682C19.5433 43.7927 19.481 44.3561 19.2179 44.8347C18.9549 45.3133 18.5126 45.6679 17.9884 45.8206Z" fill="#00B0FF"/>
<path d="M13.7243 44.9202C13.5925 44.4674 13.6051 43.9848 13.7605 43.5396C13.9159 43.0943 14.2063 42.7087 14.5913 42.4363C14.2306 42.4187 13.871 42.4876 13.5424 42.6371C13.2137 42.7867 12.9256 43.0126 12.7019 43.2961C12.4783 43.5795 12.3256 43.9123 12.2566 44.2668C12.1876 44.6212 12.2043 44.987 12.3053 45.3336C12.4063 45.6803 12.5887 45.9978 12.8372 46.2597C13.0858 46.5216 13.3934 46.7203 13.7343 46.8393C14.0752 46.9583 14.4396 46.9941 14.7971 46.9437C15.1547 46.8933 15.495 46.7583 15.7898 46.5497C15.3188 46.5267 14.8666 46.3574 14.4964 46.0653C14.1262 45.7732 13.8563 45.3729 13.7243 44.9202Z" fill="#00B0FF"/>
<path d="M77.765 55.13C77.7211 54.9724 77.6466 54.8249 77.5457 54.6961C77.4448 54.5673 77.3195 54.4596 77.177 54.3792C77.0344 54.2989 76.8775 54.2474 76.715 54.2277C76.5525 54.2081 76.3878 54.2207 76.2302 54.2648L62.553 58.0904L61.0801 58.5025H70.33L71.803 58.0904L76.9018 56.6648C77.2196 56.5755 77.489 56.3638 77.6509 56.076C77.8127 55.7882 77.8537 55.448 77.765 55.13Z" fill="#CCCCCC"/>
<path d="M68.0892 52.2726C68.0001 51.9546 67.7883 51.685 67.5005 51.5232C67.2127 51.3613 66.8723 51.3204 66.5543 51.4094L46.0315 57.1489C45.7447 57.2301 45.4964 57.4111 45.3313 57.6593C45.1662 57.9075 45.0953 58.2065 45.1312 58.5024H50.4442L51.9192 58.0903L67.226 53.8094C67.5441 53.7198 67.8136 53.5077 67.9755 53.2195C68.1373 52.9314 68.1782 52.5908 68.0892 52.2726Z" fill="#CCCCCC"/>
<path d="M120.924 58.0898H21.4196C21.0373 58.0903 20.6707 58.2423 20.4004 58.5127C20.13 58.783 19.978 59.1496 19.9775 59.5319V118.451C19.978 118.834 20.13 119.2 20.4004 119.471C20.6707 119.741 21.0373 119.893 21.4196 119.894H120.924C121.306 119.893 121.672 119.741 121.943 119.471C122.213 119.2 122.365 118.834 122.366 118.451V59.5319C122.365 59.1496 122.213 58.7831 121.943 58.5127C121.672 58.2424 121.306 58.0903 120.924 58.0898ZM121.954 118.451C121.954 118.725 121.845 118.987 121.652 119.18C121.459 119.373 121.197 119.481 120.924 119.481H21.4196C21.1465 119.481 20.8845 119.373 20.6914 119.18C20.4982 118.987 20.3897 118.725 20.3896 118.451V59.5319C20.3897 59.2588 20.4982 58.9968 20.6914 58.8037C20.8845 58.6105 21.1465 58.502 21.4196 58.5019H120.924C121.197 58.502 121.459 58.6105 121.652 58.8037C121.845 58.9968 121.954 59.2588 121.954 59.5319V118.451Z" fill="#3F3D56"/>
<path d="M31.1011 66.124C30.6121 66.124 30.1341 65.979 29.7276 65.7074C29.3211 65.4357 29.0042 65.0496 28.8171 64.5979C28.63 64.1462 28.581 63.6491 28.6764 63.1695C28.7718 62.69 29.0072 62.2495 29.353 61.9038C29.6987 61.558 30.1392 61.3226 30.6188 61.2272C31.0983 61.1318 31.5954 61.1808 32.0471 61.3679C32.4988 61.555 32.8849 61.8718 33.1566 62.2784C33.4282 62.6849 33.5732 63.1629 33.5732 63.6518C33.5724 64.3073 33.3117 64.9356 32.8483 65.3991C32.3848 65.8625 31.7565 66.1232 31.1011 66.124ZM31.1011 61.5917C30.6936 61.5917 30.2953 61.7125 29.9565 61.9389C29.6177 62.1653 29.3537 62.487 29.1978 62.8635C29.0418 63.2399 29.001 63.6541 29.0805 64.0537C29.16 64.4534 29.3562 64.8204 29.6443 65.1086C29.9324 65.3967 30.2995 65.5929 30.6991 65.6724C31.0988 65.7519 31.513 65.7111 31.8894 65.5551C32.2659 65.3992 32.5876 65.1352 32.814 64.7964C33.0403 64.4576 33.1612 64.0593 33.1612 63.6518C33.1606 63.1056 32.9433 62.582 32.5571 62.1958C32.1709 61.8096 31.6472 61.5923 31.1011 61.5917Z" fill="#00B0FF"/>
<path d="M27.2583 63.6528C27.2584 63.1813 27.4055 62.7215 27.6793 62.3375C27.953 61.9535 28.3397 61.6645 28.7855 61.5106C28.4441 61.3929 28.0796 61.3584 27.7222 61.41C27.3649 61.4617 27.025 61.598 26.731 61.8076C26.437 62.0172 26.1973 62.294 26.0319 62.6149C25.8666 62.9359 25.7803 63.2918 25.7803 63.6529C25.7803 64.0139 25.8666 64.3698 26.0319 64.6908C26.1973 65.0117 26.437 65.2885 26.731 65.4981C27.025 65.7077 27.3649 65.844 27.7222 65.8957C28.0796 65.9473 28.4441 65.9128 28.7855 65.7951C28.3397 65.6412 27.953 65.3522 27.6793 64.9682C27.4055 64.5842 27.2584 64.1244 27.2583 63.6528Z" fill="#00B0FF"/>
<path d="M41.1227 92.8604C40.6311 92.8598 40.1598 92.6643 39.8122 92.3167C39.4646 91.9691 39.2691 91.4979 39.2686 91.0063V85.444C39.2686 84.9522 39.4639 84.4806 39.8116 84.1329C40.1593 83.7852 40.6309 83.5898 41.1227 83.5898C41.6144 83.5898 42.086 83.7852 42.4337 84.1329C42.7814 84.4806 42.9768 84.9522 42.9768 85.444V91.0063C42.9762 91.4979 42.7807 91.9691 42.4331 92.3167C42.0855 92.6643 41.6142 92.8598 41.1227 92.8604Z" fill="#00B0FF"/>
<path d="M46.066 92.8604C45.5744 92.8598 45.1032 92.6643 44.7556 92.3167C44.408 91.9691 44.2125 91.4979 44.2119 91.0063V85.444C44.2119 84.9522 44.4073 84.4806 44.755 84.1329C45.1027 83.7852 45.5743 83.5898 46.066 83.5898C46.5578 83.5898 47.0294 83.7852 47.3771 84.1329C47.7248 84.4806 47.9201 84.9522 47.9201 85.444V91.0063C47.9196 91.4979 47.724 91.9691 47.3765 92.3167C47.0289 92.6643 46.5576 92.8598 46.066 92.8604Z" fill="#00B0FF"/>
<path d="M51.0104 92.8604C50.5188 92.8598 50.0475 92.6643 49.6999 92.3167C49.3523 91.9691 49.1568 91.4979 49.1562 91.0063V85.444C49.1562 84.9522 49.3516 84.4806 49.6993 84.1329C50.047 83.7852 50.5186 83.5898 51.0104 83.5898C51.5021 83.5898 51.9737 83.7852 52.3214 84.1329C52.6691 84.4806 52.8645 84.9522 52.8645 85.444V91.0063C52.8639 91.4979 52.6684 91.9691 52.3208 92.3167C51.9732 92.6643 51.5019 92.8598 51.0104 92.8604Z" fill="#00B0FF"/>
<path d="M58.6334 92.8604C58.1418 92.8598 57.6706 92.6643 57.323 92.3167C56.9754 91.9691 56.7799 91.4979 56.7793 91.0063V85.444C56.7793 84.9522 56.9746 84.4806 57.3224 84.1329C57.6701 83.7852 58.1417 83.5898 58.6334 83.5898C59.1251 83.5898 59.5967 83.7852 59.9445 84.1329C60.2922 84.4806 60.4875 84.9522 60.4875 85.444V91.0063C60.487 91.4979 60.2914 91.9691 59.9438 92.3167C59.5963 92.6643 59.125 92.8598 58.6334 92.8604Z" fill="#00B0FF"/>
<path d="M63.5777 92.8604C63.0862 92.8598 62.6149 92.6643 62.2673 92.3167C61.9197 91.9691 61.7242 91.4979 61.7236 91.0063V85.444C61.7236 84.9522 61.919 84.4806 62.2667 84.1329C62.6144 83.7852 63.086 83.5898 63.5777 83.5898C64.0695 83.5898 64.5411 83.7852 64.8888 84.1329C65.2365 84.4806 65.4319 84.9522 65.4319 85.444V91.0063C65.4313 91.4979 65.2358 91.9691 64.8882 92.3167C64.5406 92.6643 64.0693 92.8598 63.5777 92.8604Z" fill="#00B0FF"/>
<path d="M68.5221 92.8604C68.0305 92.8598 67.5592 92.6643 67.2117 92.3167C66.8641 91.9691 66.6685 91.4979 66.668 91.0063V85.444C66.668 84.9522 66.8633 84.4806 67.211 84.1329C67.5587 83.7852 68.0303 83.5898 68.5221 83.5898C69.0138 83.5898 69.4854 83.7852 69.8331 84.1329C70.1808 84.4806 70.3762 84.9522 70.3762 85.444V91.0063C70.3756 91.4979 70.1801 91.9691 69.8325 92.3167C69.4849 92.6643 69.0136 92.8598 68.5221 92.8604Z" fill="#00B0FF"/>
<path d="M76.1451 92.8604C75.6536 92.8598 75.1823 92.6643 74.8347 92.3167C74.4871 91.9691 74.2916 91.4979 74.291 91.0063V85.444C74.291 84.9522 74.4864 84.4806 74.8341 84.1329C75.1818 83.7852 75.6534 83.5898 76.1451 83.5898C76.6369 83.5898 77.1085 83.7852 77.4562 84.1329C77.8039 84.4806 77.9992 84.9522 77.9992 85.444V91.0063C77.9987 91.4979 77.8032 91.9691 77.4556 92.3167C77.108 92.6643 76.6367 92.8598 76.1451 92.8604Z" fill="#00B0FF"/>
<path d="M81.0885 92.8604C80.5969 92.8598 80.1257 92.6643 79.7781 92.3167C79.4305 91.9691 79.2349 91.4979 79.2344 91.0063V85.444C79.2344 84.9522 79.4297 84.4806 79.7774 84.1329C80.1251 83.7852 80.5967 83.5898 81.0885 83.5898C81.5802 83.5898 82.0518 83.7852 82.3995 84.1329C82.7472 84.4806 82.9426 84.9522 82.9426 85.444V91.0063C82.942 91.4979 82.7465 91.9691 82.3989 92.3167C82.0513 92.6643 81.5801 92.8598 81.0885 92.8604Z" fill="#00B0FF"/>
<path d="M86.0328 92.8604C85.5413 92.8598 85.07 92.6643 84.7224 92.3167C84.3748 91.9691 84.1793 91.4979 84.1787 91.0063V85.444C84.1787 84.9522 84.3741 84.4806 84.7218 84.1329C85.0695 83.7852 85.5411 83.5898 86.0328 83.5898C86.5246 83.5898 86.9962 83.7852 87.3439 84.1329C87.6916 84.4806 87.8869 84.9522 87.8869 85.444V91.0063C87.8864 91.4979 87.6908 91.9691 87.3433 92.3167C86.9957 92.6643 86.5244 92.8598 86.0328 92.8604Z" fill="#00B0FF"/>
<path d="M93.6549 92.8604C93.1633 92.8598 92.6921 92.6643 92.3445 92.3167C91.9969 91.9691 91.8013 91.4979 91.8008 91.0063V85.444C91.8008 84.9522 91.9961 84.4806 92.3438 84.1329C92.6916 83.7852 93.1632 83.5898 93.6549 83.5898C94.1466 83.5898 94.6182 83.7852 94.9659 84.1329C95.3137 84.4806 95.509 84.9522 95.509 85.444V91.0063C95.5084 91.4979 95.3129 91.9691 94.9653 92.3167C94.6177 92.6643 94.1465 92.8598 93.6549 92.8604Z" fill="#00B0FF"/>
<path d="M98.6002 92.8604C98.1086 92.8598 97.6374 92.6643 97.2898 92.3167C96.9422 91.9691 96.7467 91.4979 96.7461 91.0063V85.444C96.7461 84.9522 96.9414 84.4806 97.2892 84.1329C97.6369 83.7852 98.1085 83.5898 98.6002 83.5898C99.0919 83.5898 99.5635 83.7852 99.9113 84.1329C100.259 84.4806 100.454 84.9522 100.454 85.444V91.0063C100.454 91.4979 100.258 91.9691 99.9106 92.3167C99.563 92.6643 99.0918 92.8598 98.6002 92.8604Z" fill="#00B0FF"/>
<path d="M103.545 92.8604C103.053 92.8598 102.582 92.6643 102.234 92.3167C101.887 91.9691 101.691 91.4979 101.69 91.0063V85.444C101.69 84.9522 101.886 84.4806 102.233 84.1329C102.581 83.7852 103.053 83.5898 103.545 83.5898C104.036 83.5898 104.508 83.7852 104.856 84.1329C105.203 84.4806 105.399 84.9522 105.399 85.444V91.0063C105.398 91.4979 105.203 91.9691 104.855 92.3167C104.507 92.6643 104.036 92.8598 103.545 92.8604Z" fill="#00B0FF"/>
<path d="M53.6924 113.496H27.0261C26.6957 113.496 26.3788 113.364 26.1452 113.131C25.9115 112.897 25.7803 112.58 25.7803 112.25C25.7803 111.919 25.9115 111.602 26.1452 111.369C26.3788 111.135 26.6957 111.004 27.0261 111.004H53.6924C54.0228 111.004 54.3397 111.135 54.5733 111.369C54.807 111.602 54.9382 111.919 54.9382 112.25C54.9382 112.58 54.807 112.897 54.5733 113.131C54.3397 113.364 54.0228 113.496 53.6924 113.496Z" fill="#E6E6E6"/>
<path d="M45.1432 108.14H35.5759C35.2455 108.14 34.9286 108.009 34.695 107.775C34.4613 107.542 34.3301 107.225 34.3301 106.894C34.3301 106.564 34.4613 106.247 34.695 106.013C34.9286 105.78 35.2455 105.648 35.5759 105.648H45.1432C45.4736 105.648 45.7905 105.78 46.0241 106.013C46.2578 106.247 46.389 106.564 46.389 106.894C46.389 107.225 46.2578 107.542 46.0241 107.775C45.7905 108.009 45.4736 108.14 45.1432 108.14Z" fill="#E6E6E6"/>
<path d="M121.879 70.4023H20.3154V70.8144H121.879V70.4023Z" fill="#3F3D56"/>
</g>
</g>
<defs>
<clipPath id="clip0_148_7252">
<rect width="127.887" height="106.572" fill="white" transform="translate(0 13.3203)"/>
</clipPath>
<clipPath id="clip1_148_7252">
<rect width="116.844" height="106.572" fill="white" transform="translate(5.52148 13.3203)"/>
</clipPath>
</defs>
</svg>
