<svg width="173" height="163" viewBox="0 0 173 163" fill="none" xmlns="http://www.w3.org/2000/svg">
<g clip-path="url(#clip0_148_7245)">
<g clip-path="url(#clip1_148_7245)">
<g clip-path="url(#clip2_148_7245)">
<path d="M146.289 67.4353C148.106 71.0076 149.539 74.6922 153.546 74.6922C155.471 74.6922 157.317 73.9276 158.678 72.5667C160.039 71.2057 160.803 69.3599 160.803 67.4353C160.803 65.5106 160.039 63.6648 158.678 62.3038C157.317 60.9429 155.471 60.1783 153.546 60.1783C149.473 60.1273 142.908 60.786 146.289 67.4353Z" fill="#2F2E41"/>
<path d="M151.994 154.709L148.893 155.4L144.751 143.766L149.328 142.746L151.994 154.709Z" fill="#A0616A"/>
<path d="M153.454 157.538L143.454 159.767L143.426 159.64C143.312 159.129 143.3 158.601 143.39 158.085C143.48 157.569 143.671 157.076 143.952 156.634C144.233 156.192 144.598 155.81 145.027 155.509C145.456 155.208 145.939 154.995 146.45 154.881L146.451 154.881L152.558 153.52L153.454 157.538Z" fill="#2F2E41"/>
<path d="M161.207 158.865H158.029L156.518 146.609L161.207 146.61L161.207 158.865Z" fill="#A0616A"/>
<path d="M162.017 161.946L151.771 161.945V161.816C151.771 161.292 151.875 160.774 152.075 160.29C152.275 159.806 152.569 159.366 152.939 158.996C153.31 158.626 153.749 158.332 154.233 158.132C154.717 157.931 155.236 157.828 155.759 157.828H155.76L162.017 157.828L162.017 161.946Z" fill="#2F2E41"/>
<path d="M161.228 152.446H157.173C156.891 152.445 156.619 152.343 156.407 152.158C156.195 151.972 156.056 151.717 156.017 151.438L152.341 123.002C152.329 122.913 152.286 122.831 152.221 122.77C152.155 122.709 152.07 122.672 151.98 122.667C151.891 122.661 151.802 122.687 151.729 122.739C151.656 122.791 151.604 122.867 151.581 122.954L149.402 131.074L151.366 149.566C151.399 149.851 151.326 150.139 151.161 150.373C150.995 150.608 150.749 150.773 150.469 150.837L147.253 151.58C146.967 151.644 146.667 151.599 146.413 151.454C146.158 151.309 145.968 151.073 145.878 150.794L140.698 132.816C140.28 131.499 140.137 130.11 140.276 128.735L141.897 112.527L142.02 112.533L163.659 113.576L162.394 151.321C162.384 151.623 162.257 151.91 162.04 152.12C161.822 152.33 161.531 152.447 161.228 152.446Z" fill="#2F2E41"/>
<path d="M153.189 74.8328C156.705 74.8328 159.555 71.9828 159.555 68.4672C159.555 64.9516 156.705 62.1016 153.189 62.1016C149.673 62.1016 146.823 64.9516 146.823 68.4672C146.823 71.9828 149.673 74.8328 153.189 74.8328Z" fill="#A0616A"/>
<path d="M163.174 115.318C163.153 115.318 163.132 115.318 163.111 115.316L141.535 114.156C141.357 114.147 141.183 114.097 141.028 114.009C140.872 113.922 140.738 113.8 140.637 113.653C140.536 113.506 140.47 113.338 140.444 113.161C140.418 112.985 140.433 112.804 140.488 112.635L142.195 107.332C144.024 101.647 144.336 95.5832 143.102 89.7403C142.778 88.2114 142.785 86.6311 143.121 85.105C143.458 83.5789 144.116 82.1421 145.052 80.8908C145.973 79.6568 147.146 78.6335 148.494 77.8895C149.842 77.1455 151.334 76.6978 152.869 76.5765C152.974 76.5681 153.08 76.5607 153.187 76.5542C154.811 76.4582 156.436 76.7259 157.943 77.3378C159.45 77.9497 160.802 78.8903 161.899 80.091C162.997 81.2917 163.813 82.7223 164.287 84.2784C164.761 85.8344 164.882 87.4767 164.641 89.0855L163.137 99.1863L164.336 114.058C164.349 114.219 164.328 114.38 164.276 114.532C164.223 114.685 164.14 114.824 164.031 114.943C163.922 115.061 163.789 115.156 163.642 115.22C163.494 115.285 163.335 115.318 163.174 115.318Z" fill="#CCCCCC"/>
<path d="M136.625 116.663C136.94 116.45 137.205 116.17 137.401 115.843C137.596 115.516 137.718 115.15 137.756 114.771C137.795 114.392 137.75 114.009 137.625 113.649C137.5 113.289 137.297 112.961 137.032 112.688L141.186 104.41L136.407 104.976L133.194 112.75C132.765 113.227 132.526 113.844 132.522 114.486C132.517 115.127 132.749 115.748 133.171 116.23C133.594 116.713 134.179 117.023 134.816 117.103C135.452 117.183 136.096 117.026 136.625 116.663Z" fill="#A0616A"/>
<path d="M165.144 118.011C164.868 117.748 164.654 117.427 164.516 117.072C164.378 116.717 164.319 116.336 164.344 115.956C164.369 115.576 164.477 115.206 164.661 114.872C164.845 114.538 165.099 114.248 165.407 114.024L162.694 105.168L167.312 106.525L169.18 114.726C169.523 115.268 169.656 115.917 169.553 116.55C169.45 117.183 169.118 117.756 168.621 118.161C168.123 118.566 167.495 118.775 166.854 118.747C166.213 118.719 165.604 118.457 165.144 118.011Z" fill="#A0616A"/>
<path d="M164.695 113.371C164.412 113.372 164.138 113.27 163.926 113.083C163.713 112.896 163.576 112.639 163.54 112.358L161.382 96.0757L157.938 83.352C157.793 82.8142 157.771 82.2503 157.876 81.703C157.98 81.1557 158.207 80.6393 158.54 80.1928C158.874 79.7462 159.304 79.3812 159.799 79.1253C160.294 78.8694 160.84 78.7294 161.397 78.7157C162.28 78.697 163.14 78.9951 163.821 79.556C164.503 80.1168 164.961 80.9033 165.112 81.7729L170.243 111.823C170.27 111.986 170.263 112.153 170.221 112.314C170.179 112.474 170.104 112.623 170 112.752C169.896 112.881 169.765 112.986 169.617 113.061C169.47 113.135 169.308 113.177 169.142 113.184L164.745 113.37C164.728 113.371 164.711 113.371 164.695 113.371Z" fill="#CCCCCC"/>
<path d="M138.937 111.543C138.854 111.543 138.77 111.534 138.689 111.516L134.385 110.599C134.223 110.564 134.07 110.495 133.937 110.397C133.803 110.299 133.693 110.174 133.611 110.029C133.53 109.885 133.481 109.725 133.466 109.56C133.452 109.395 133.473 109.229 133.527 109.072L143.607 80.3023C143.903 79.4709 144.486 78.7727 145.252 78.3337C146.017 77.8948 146.914 77.744 147.781 77.9087C148.328 78.0154 148.843 78.2448 149.289 78.5799C149.734 78.9149 150.097 79.3467 150.351 79.8426C150.605 80.3386 150.743 80.8857 150.754 81.4428C150.765 81.9998 150.65 82.5521 150.417 83.0581L144.889 95.0432L140.047 110.72C139.974 110.958 139.827 111.166 139.628 111.315C139.428 111.463 139.186 111.543 138.937 111.543Z" fill="#CCCCCC"/>
<path d="M146.435 64.8697C147.889 65.8723 149.616 66.4059 151.382 66.3988C150.752 66.8358 150.035 67.1309 149.28 67.2639C151.628 67.7678 154.056 67.7814 156.411 67.304C156.934 67.2201 157.439 67.0466 157.903 66.7913C158.135 66.662 158.336 66.4855 158.495 66.2732C158.654 66.0609 158.766 65.8175 158.825 65.559C158.981 64.6652 158.285 63.8532 157.561 63.3059C156.453 62.4808 155.175 61.9124 153.82 61.6417C152.466 61.3709 151.068 61.4047 149.728 61.7406C148.853 61.9668 147.976 62.349 147.408 63.0517C146.839 63.7544 146.671 64.8378 147.212 65.5614L146.435 64.8697Z" fill="#2F2E41"/>
<path d="M113.217 18.0195H3.84503C3.24579 18.02 2.67124 18.2583 2.24751 18.682C1.82378 19.1058 1.58549 19.6803 1.58496 20.2795V126.884C1.58549 127.483 1.82378 128.058 2.24751 128.481C2.67124 128.905 3.24579 129.143 3.84503 129.144H13.4345V128.498H3.84503C3.41695 128.498 3.00654 128.328 2.70384 128.025C2.40114 127.722 2.23086 127.312 2.23036 126.884V20.2795C2.23086 19.8515 2.40113 19.4411 2.70384 19.1384C3.00654 18.8356 3.41695 18.6654 3.84503 18.6649H113.217C113.646 18.6648 114.057 18.8349 114.36 19.1376C114.663 19.4403 114.834 19.8511 114.835 20.2795V126.884C114.835 127.199 114.742 127.507 114.568 127.77C114.413 128.001 114.202 128.19 113.956 128.32C113.728 128.438 113.474 128.499 113.217 128.498H103.628V129.144H113.217C113.544 129.144 113.867 129.073 114.164 128.936C114.46 128.799 114.724 128.599 114.936 128.351C114.954 128.331 114.97 128.311 114.985 128.289C115.12 128.124 115.229 127.939 115.309 127.742C115.423 127.47 115.481 127.178 115.48 126.884V20.2795C115.479 19.6799 115.241 19.1051 114.816 18.6813C114.392 18.2575 113.817 18.0195 113.217 18.0195Z" fill="#3F3D56"/>
<path d="M115.156 27.0781H1.90723V27.7242H115.156V27.0781Z" fill="#3F3D56"/>
<path d="M7.39917 24.8062C8.46963 24.8062 9.3374 23.9384 9.3374 22.8679C9.3374 21.7975 8.46963 20.9297 7.39917 20.9297C6.32871 20.9297 5.46094 21.7975 5.46094 22.8679C5.46094 23.9384 6.32871 24.8062 7.39917 24.8062Z" fill="#3F3D56"/>
<path d="M12.9714 24.8062C14.0419 24.8062 14.9097 23.9384 14.9097 22.8679C14.9097 21.7975 14.0419 20.9297 12.9714 20.9297C11.901 20.9297 11.0332 21.7975 11.0332 22.8679C11.0332 23.9384 11.901 24.8062 12.9714 24.8062Z" fill="#3F3D56"/>
<path d="M18.5437 24.8062C19.6142 24.8062 20.4819 23.9384 20.4819 22.8679C20.4819 21.7975 19.6142 20.9297 18.5437 20.9297C17.4732 20.9297 16.6055 21.7975 16.6055 22.8679C16.6055 23.9384 17.4732 24.8062 18.5437 24.8062Z" fill="#3F3D56"/>
<path d="M85.8748 42.0315H31.1886C30.295 42.0315 29.438 41.6766 28.8062 41.0447C28.1743 40.4128 27.8193 39.5558 27.8193 38.6623C27.8193 37.7687 28.1743 36.9117 28.8062 36.2798C29.438 35.6479 30.295 35.293 31.1886 35.293H85.8748C86.7684 35.293 87.6253 35.6479 88.2572 36.2798C88.8891 36.9117 89.2441 37.7687 89.2441 38.6623C89.2441 39.5558 88.8891 40.4128 88.2572 41.0447C87.6253 41.6766 86.7684 42.0315 85.8748 42.0315ZM31.1886 35.8113C30.4325 35.8113 29.7074 36.1117 29.1727 36.6463C28.6381 37.181 28.3377 37.9061 28.3377 38.6623C28.3377 39.4184 28.6381 40.1435 29.1727 40.6782C29.7074 41.2128 30.4325 41.5132 31.1886 41.5132H85.8748C86.6309 41.5132 87.356 41.2128 87.8907 40.6782C88.4253 40.1435 88.7257 39.4184 88.7257 38.6623C88.7257 37.9061 88.4253 37.181 87.8907 36.6463C87.356 36.1117 86.6309 35.8113 85.8748 35.8113H31.1886Z" fill="#3F3D56"/>
<path d="M99.741 89.0995H17.323C16.1548 89.0982 15.0349 88.6336 14.2089 87.8076C13.3829 86.9816 12.9183 85.8616 12.917 84.6935V58.2576C12.9183 57.0894 13.3829 55.9695 14.2089 55.1435C15.0349 54.3175 16.1548 53.8529 17.323 53.8516H99.741C100.909 53.8529 102.029 54.3175 102.855 55.1435C103.681 55.9695 104.146 57.0894 104.147 58.2576V84.6935C104.146 85.8616 103.681 86.9816 102.855 87.8076C102.029 88.6336 100.909 89.0982 99.741 89.0995ZM17.323 54.3699C16.2923 54.3711 15.3041 54.781 14.5753 55.5099C13.8465 56.2387 13.4365 57.2268 13.4353 58.2576V84.6935C13.4365 85.7242 13.8465 86.7124 14.5753 87.4412C15.3041 88.17 16.2923 88.58 17.323 88.5812H99.741C100.772 88.58 101.76 88.17 102.489 87.4412C103.217 86.7124 103.627 85.7242 103.629 84.6935V58.2576C103.627 57.2268 103.217 56.2387 102.489 55.5099C101.76 54.781 100.772 54.3711 99.741 54.3699H17.323Z" fill="#3F3D56"/>
<path d="M69.34 70.0492H40.5715C40.0216 70.0492 39.4942 69.8307 39.1053 69.4419C38.7165 69.053 38.498 68.5257 38.498 67.9758C38.498 67.4258 38.7165 66.8985 39.1053 66.5096C39.4942 66.1208 40.0216 65.9023 40.5715 65.9023H69.34C69.8899 65.9023 70.4173 66.1208 70.8061 66.5096C71.1949 66.8985 71.4134 67.4258 71.4134 67.9758C71.4134 68.5257 71.1949 69.053 70.8061 69.4419C70.4173 69.8307 69.8899 70.0492 69.34 70.0492Z" fill="#00B0FF"/>
<path d="M96.0351 77.0453H40.5715C40.0216 77.0453 39.4942 76.8268 39.1053 76.438C38.7165 76.0491 38.498 75.5217 38.498 74.9718C38.498 74.4219 38.7165 73.8946 39.1053 73.5057C39.4942 73.1169 40.0216 72.8984 40.5715 72.8984H96.0351C96.585 72.8984 97.1124 73.1169 97.5012 73.5057C97.8901 73.8946 98.1085 74.4219 98.1085 74.9718C98.1085 75.5217 97.8901 76.0491 97.5012 76.438C97.1124 76.8268 96.585 77.0453 96.0351 77.0453Z" fill="#00B0FF"/>
<path d="M26.7304 79.2498C31.0245 79.2498 34.5056 75.7687 34.5056 71.4745C34.5056 67.1803 31.0245 63.6992 26.7304 63.6992C22.4362 63.6992 18.9551 67.1803 18.9551 71.4745C18.9551 75.7687 22.4362 79.2498 26.7304 79.2498Z" fill="#00B0FF"/>
<path d="M96.0325 85.471H88.7756C88.2257 85.471 87.6983 85.2526 87.3094 84.8637C86.9206 84.4749 86.7021 83.9475 86.7021 83.3976C86.7021 82.8477 86.9206 82.3203 87.3094 81.9315C87.6983 81.5427 88.2257 81.3242 88.7756 81.3242H96.0325C96.5824 81.3242 97.1098 81.5427 97.4986 81.9315C97.8874 82.3203 98.1059 82.8477 98.1059 83.3976C98.1059 83.9475 97.8874 84.4749 97.4986 84.8637C97.1098 85.2526 96.5824 85.471 96.0325 85.471Z" fill="white"/>
<path d="M96.0325 85.471H88.7756C88.2257 85.471 87.6983 85.2526 87.3094 84.8637C86.9206 84.4749 86.7021 83.9475 86.7021 83.3976C86.7021 82.8477 86.9206 82.3203 87.3094 81.9315C87.6983 81.5427 88.2257 81.3242 88.7756 81.3242H96.0325C96.5824 81.3242 97.1098 81.5427 97.4986 81.9315C97.8874 82.3203 98.1059 82.8477 98.1059 83.3976C98.1059 83.9475 97.8874 84.4749 97.4986 84.8637C97.1098 85.2526 96.5824 85.471 96.0325 85.471Z" fill="#CCCCCC"/>
<path d="M99.74 101.539H17.322C16.154 101.541 15.0343 102.005 14.2083 102.831C13.3824 103.657 12.9177 104.777 12.916 105.945V132.381C12.9177 133.549 13.3824 134.669 14.2083 135.495C15.0343 136.321 16.154 136.785 17.322 136.787H99.74C100.908 136.786 102.028 136.321 102.854 135.495C103.68 134.669 104.145 133.549 104.146 132.381V105.945C104.145 104.777 103.68 103.657 102.854 102.831C102.028 102.005 100.908 101.54 99.74 101.539ZM103.628 132.381C103.627 133.412 103.217 134.4 102.488 135.129C101.759 135.858 100.771 136.268 99.74 136.269H17.322C16.2913 136.267 15.3032 135.857 14.5744 135.129C13.8456 134.4 13.4356 133.412 13.4344 132.381V105.945C13.4356 104.914 13.8456 103.926 14.5744 103.197C15.3032 102.469 16.2913 102.059 17.322 102.057H99.74C100.771 102.058 101.759 102.468 102.488 103.197C103.217 103.926 103.627 104.914 103.628 105.945V132.381Z" fill="#3F3D56"/>
<path d="M69.34 117.737H40.5715C40.0216 117.737 39.4942 117.518 39.1053 117.129C38.7165 116.741 38.498 116.213 38.498 115.663C38.498 115.113 38.7165 114.586 39.1053 114.197C39.4942 113.808 40.0216 113.59 40.5715 113.59H69.34C69.8899 113.59 70.4173 113.808 70.8061 114.197C71.1949 114.586 71.4134 115.113 71.4134 115.663C71.4134 116.213 71.1949 116.741 70.8061 117.129C70.4173 117.518 69.8899 117.737 69.34 117.737Z" fill="#00B0FF"/>
<path d="M96.0351 124.737H40.5715C40.0216 124.737 39.4942 124.518 39.1053 124.129C38.7165 123.741 38.498 123.213 38.498 122.663C38.498 122.113 38.7165 121.586 39.1053 121.197C39.4942 120.808 40.0216 120.59 40.5715 120.59H96.0351C96.585 120.59 97.1124 120.808 97.5012 121.197C97.8901 121.586 98.1085 122.113 98.1085 122.663C98.1085 123.213 97.8901 123.741 97.5012 124.129C97.1124 124.518 96.585 124.737 96.0351 124.737Z" fill="#00B0FF"/>
<path d="M26.7304 126.937C31.0245 126.937 34.5056 123.456 34.5056 119.162C34.5056 114.868 31.0245 111.387 26.7304 111.387C22.4362 111.387 18.9551 114.868 18.9551 119.162C18.9551 123.456 22.4362 126.937 26.7304 126.937Z" fill="#00B0FF"/>
<path d="M96.0325 133.159H88.7756C88.2257 133.159 87.6983 132.94 87.3094 132.551C86.9206 132.162 86.7021 131.635 86.7021 131.085C86.7021 130.535 86.9206 130.008 87.3094 129.619C87.6983 129.23 88.2257 129.012 88.7756 129.012H96.0325C96.5824 129.012 97.1098 129.23 97.4986 129.619C97.8874 130.008 98.1059 130.535 98.1059 131.085C98.1059 131.635 97.8874 132.162 97.4986 132.551C97.1098 132.94 96.5824 133.159 96.0325 133.159Z" fill="#CCCCCC"/>
<path d="M171.156 162.186H134.871C134.803 162.186 134.737 162.159 134.688 162.11C134.64 162.062 134.612 161.996 134.612 161.927C134.612 161.858 134.64 161.792 134.688 161.744C134.737 161.695 134.803 161.668 134.871 161.668H171.156C171.225 161.668 171.291 161.695 171.339 161.744C171.388 161.792 171.415 161.858 171.415 161.927C171.415 161.996 171.388 162.062 171.339 162.11C171.291 162.159 171.225 162.186 171.156 162.186Z" fill="#3F3D56"/>
</g>
</g>
</g>
<defs>
<clipPath id="clip0_148_7245">
<rect width="173" height="162.188" fill="white"/>
</clipPath>
<clipPath id="clip1_148_7245">
<rect width="173" height="144.167" fill="white" transform="translate(0 18.0195)"/>
</clipPath>
<clipPath id="clip2_148_7245">
<rect width="169.831" height="144.167" fill="white" transform="translate(1.58496 18.0195)"/>
</clipPath>
</defs>
</svg>
