<svg width="173" height="162" viewBox="0 0 173 162" fill="none" xmlns="http://www.w3.org/2000/svg">
<g clip-path="url(#clip0_148_7239)">
<g clip-path="url(#clip1_148_7239)">
<path d="M112.788 78.1953C112.41 78.2498 112.024 78.2208 111.659 78.1104C111.293 78 110.956 77.8108 110.672 77.5561C110.387 77.3014 110.162 76.9875 110.012 76.6363C109.862 76.2852 109.79 75.9055 109.803 75.5238L101.137 72.1935L105.061 69.3867L112.688 72.9795C113.328 73.043 113.923 73.3391 114.359 73.8116C114.795 74.2841 115.043 74.9003 115.055 75.5433C115.067 76.1863 114.843 76.8115 114.425 77.3003C114.007 77.7891 113.425 78.1075 112.788 78.1953L112.788 78.1953Z" fill="#FFB7B7"/>
<path d="M107.835 75.804L109.188 71.0312L109.121 70.9858L96.4468 62.3761L85.4906 51.3828L79.1084 53.9327L79.5275 55.9527L79.5549 55.9775L94.1217 69.0249L94.1352 69.0314L107.835 75.804Z" fill="#E6E7E8"/>
<path d="M94.8506 86.7074L75.2354 83.9578L76.9619 71.9219H91.4028L94.8506 86.7074Z" fill="#FFB6B6"/>
<path d="M61.5215 145.645L65.5453 146.58L71.0665 131.505L65.1281 130.125L61.5215 145.645Z" fill="#FFB6B6"/>
<path d="M57.7783 152.121L60.6638 152.792L61.812 150.187L62.498 153.218L70.1511 154.996C70.518 155.082 70.9025 155.047 71.2485 154.899C71.5945 154.75 71.8839 154.494 72.0745 154.17C72.265 153.845 72.3467 153.467 72.3077 153.093C72.2687 152.718 72.1109 152.366 71.8575 152.087L66.7268 146.446L67.3668 143.692L60.8494 142.582L57.7783 152.121Z" fill="#2F2E41"/>
<path d="M86.3496 147.887H90.4804L92.4463 131.953H86.3496V147.887Z" fill="#FFB6B6"/>
<path d="M84.1689 155.045H87.1314L87.6601 152.248L89.0144 155.045H96.8715C97.2481 155.045 97.6149 154.924 97.9182 154.701C98.2216 154.478 98.4457 154.164 98.5578 153.804C98.6698 153.444 98.664 153.058 98.5412 152.702C98.4184 152.346 98.185 152.039 97.8751 151.825L91.6007 147.492V144.664L85.0011 145.058L84.1689 155.045Z" fill="#2F2E41"/>
<path d="M74.9874 81.9165L94.1702 80.3906C99.8309 93.6137 96.2315 114.723 91.8814 138.486L85.7113 139.283L85.2328 101.099L69.7655 136.622L63.335 136.293L74.9874 81.9165Z" fill="#2F2E41"/>
<path d="M86.1544 47.0927V40.6029C86.155 39.4605 85.9305 38.3293 85.4937 37.2737C85.0569 36.2181 84.4165 35.2589 83.6089 34.4509C82.8013 33.643 81.8424 33.002 80.7871 32.5647C79.7317 32.1274 78.6005 31.9023 77.4582 31.9023C76.3158 31.9023 75.1846 32.1274 74.1293 32.5647C73.0739 33.002 72.1151 33.643 71.3075 34.4509C70.4999 35.2589 69.8594 36.2181 69.4227 37.2737C68.9859 38.3293 68.7614 39.4605 68.762 40.6029C67.2293 43.7968 68.1881 45.3153 68.762 47.0927C68.7625 47.4022 68.8857 47.6989 69.1045 47.9178C69.3234 48.1367 69.6201 48.2598 69.9296 48.2604H84.9862C85.2958 48.26 85.5926 48.1369 85.8116 47.918C86.0306 47.6991 86.1539 47.4023 86.1544 47.0927Z" fill="#2F2E41"/>
<path d="M79.6034 48.1657C83.1246 48.1657 85.9792 45.3112 85.9792 41.7899C85.9792 38.2686 83.1246 35.4141 79.6034 35.4141C76.0821 35.4141 73.2275 38.2686 73.2275 41.7899C73.2275 45.3112 76.0821 48.1657 79.6034 48.1657Z" fill="#FFB7B7"/>
<path d="M88.2104 41.1251C88.2083 39.3013 87.4829 37.5528 86.1933 36.2632C84.9037 34.9736 83.1551 34.2481 81.3313 34.2461H80.0333C78.2095 34.2482 76.461 34.9736 75.1714 36.2632C73.8818 37.5528 73.1564 39.3013 73.1543 41.1251V41.255C74.1264 41.9195 75.0493 42.0167 75.8974 41.255L76.8329 38.6353L77.02 41.2549H78.4378L78.9104 39.9333L79.005 41.255C80.92 42.8859 84.5412 42.1043 88.2104 41.255L88.2104 41.1251Z" fill="#2F2E41"/>
<path d="M75.8862 75.4392L92.1196 74.8215L93.027 64.2016C93.7268 62.2578 93.7382 60.5875 93.0606 59.2408C92.4779 58.1339 91.4989 57.2877 90.3192 56.8714L86.7671 52.5812C86.3102 52.0298 85.7364 51.5867 85.0874 51.2841C84.4383 50.9815 83.7301 50.8269 83.014 50.8314L73.7841 50.8945C73.5617 50.7608 72.2123 50.0749 69.5509 51.2281C66.6644 52.4791 67.3347 56.8255 67.3419 56.8691L67.3485 56.91L67.3802 56.9378L73.5192 62.1088L75.8862 75.4392Z" fill="#E6E7E8"/>
<path d="M0.27236 155.314H163.268C163.34 155.314 163.41 155.286 163.461 155.234C163.512 155.183 163.54 155.114 163.54 155.042C163.54 154.97 163.512 154.9 163.461 154.849C163.41 154.798 163.34 154.77 163.268 154.77H0.27236C0.200126 154.77 0.130851 154.798 0.0797744 154.849C0.0286973 154.9 0 154.97 0 155.042C0 155.114 0.0286973 155.183 0.0797744 155.234C0.130851 155.286 0.200126 155.314 0.27236 155.314Z" fill="#CCCCCC"/>
<path d="M118.952 90.852C118.94 97.0387 116.614 102.997 112.431 107.556C108.249 112.115 102.512 114.944 96.3494 115.487C90.1866 116.031 84.0433 114.249 79.1274 110.493C74.2115 106.737 70.8785 101.277 69.7837 95.1883C68.6889 89.0991 69.9115 82.8207 73.2111 77.5873C76.5108 72.3539 81.6487 68.5441 87.6149 66.9069C93.5811 65.2697 99.9439 65.9235 105.453 68.7397C110.961 71.556 115.217 76.3311 117.383 82.1261C117.437 82.2716 117.49 82.4171 117.541 82.5641V82.5655C117.77 83.2113 117.971 83.8692 118.146 84.539C118.683 86.6003 118.954 88.7218 118.952 90.852Z" fill="#3F3D56"/>
<path d="M91.2757 74.0232C90.1546 73.417 88.9099 73.0747 87.6364 73.0226C86.363 72.9705 85.0944 73.2099 83.9276 73.7226C82.9002 74.1697 81.8183 74.9718 81.4756 76.4203C82.8618 75.6022 84.6562 76.8947 85.0129 78.9683L84.9296 78.9912C84.7412 80.4274 85.1618 81.9911 85.976 82.8816C86.0366 82.4798 86.1859 82.0965 86.413 81.7596C86.6402 81.4226 86.9396 81.1405 87.2894 80.9338C87.8877 80.5405 88.5495 80.2548 89.0061 79.5788C89.5474 78.7774 89.6849 77.6062 89.9 76.5378C90.115 75.4693 90.523 74.3209 91.2757 74.0232Z" fill="#00BFFF"/>
<path d="M83.5158 86.2451C83.1319 86.8217 82.6192 87.1834 82.159 87.6338C81.6278 88.117 81.2794 88.7685 81.1722 89.4785C81.114 89.9802 81.2041 90.4902 81.1916 90.9975C81.1792 91.5047 81.0101 92.0757 80.665 92.2019C80.1203 92.3987 79.7045 91.3869 79.1446 91.3162C78.6997 91.2608 78.2992 91.9607 78.4281 92.5678C78.557 93.1748 79.1626 93.4437 79.5105 93.0473C79.8251 93.5753 79.6033 94.533 79.1308 94.6952C79.0808 95.0278 79.031 95.359 78.9825 95.6916C77.7878 94.8559 76.5806 94.0064 75.5648 92.7826C74.4349 91.4331 73.7341 89.7767 73.5524 88.0261C73.4207 86.6193 73.6161 85.0103 72.9703 83.9279C72.4533 83.0616 71.5663 82.8704 70.768 82.9244C70.6225 82.9341 70.4756 82.9508 70.3301 82.9688C70.8009 81.5548 71.3988 80.1864 72.1165 78.8803C72.279 78.8105 72.4299 78.7166 72.5642 78.6017C73.3071 77.9711 73.6369 76.6946 74.2398 75.8118C74.2786 75.755 74.3188 75.6995 74.3604 75.6455C74.9771 74.8403 75.8031 74.4259 76.6014 74.0406C78.3685 73.1827 80.1868 72.3137 82.0523 72.4329L81.5215 72.4842C80.902 74.2194 80.282 75.9545 79.6615 77.6897C79.5673 77.9558 79.4721 78.2224 79.3761 78.4894C79.024 79.4762 78.6609 80.5267 78.715 81.6313C78.7469 82.2855 78.9741 82.984 79.4065 83.2085C79.8098 83.4164 80.2506 83.1614 80.64 82.9092C80.8049 82.8038 80.9685 82.6985 81.1334 82.5918C81.7252 82.2107 82.3808 81.8198 83.0058 82.0748C83.5782 82.3076 84.0009 83.0852 84.0813 83.9237C84.155 84.7387 83.9561 85.5552 83.5158 86.2451Z" fill="#00BFFF"/>
<path d="M87.037 98.0924C85.3086 97.0282 83.5802 95.964 81.8518 94.8998L81.8811 94.8242C80.8065 95.2335 80.3603 97.1438 80.5379 98.7059C80.7155 100.268 81.3177 101.665 81.6219 103.187C82.0321 105.27 81.8773 107.424 81.1735 109.427C83.4463 106.877 85.4576 104.106 87.1774 101.154C87.4177 100.782 87.6007 100.376 87.7205 99.95C87.8474 99.4957 87.8022 99.0106 87.5935 98.5875C87.452 98.3788 87.2608 98.2086 87.037 98.0924Z" fill="#00BFFF"/>
<path d="M80.2148 78.7283C80.0119 79.1641 79.9806 79.6604 80.1272 80.1182C80.2978 80.487 80.6071 80.7736 80.9879 80.9154L81.943 81.3888C82.2607 81.5462 82.6031 81.7053 82.927 81.5757C83.3177 81.4195 83.5885 80.807 83.5185 80.2385C83.4439 79.6334 83.0625 79.2173 82.7098 78.8629C82.2162 78.3669 81.7226 77.871 81.229 77.375L80.9509 77.7157C80.65 78.0092 80.4011 78.3516 80.2148 78.7283Z" fill="#00BFFF"/>
<path d="M113.831 85.1984C114.261 85.2995 114.691 85.4007 115.12 85.5019C115.046 86.953 114.326 88.2959 113.362 88.7824C112.96 88.9848 112.512 89.0596 112.179 89.438C111.879 89.7817 111.726 90.3166 111.586 90.828C111.341 91.7206 111.096 92.6131 110.85 93.5056C110.587 94.4675 110.249 95.5361 109.564 95.8825C108.977 96.1805 108.304 95.816 107.853 95.2048C107.401 94.5936 107.125 93.7718 106.857 92.9707C106.874 93.8438 106.468 94.7003 105.893 95.0038C105.316 95.3073 104.615 95.033 104.23 94.3552C103.953 93.8688 103.838 93.2271 103.566 92.7337C103.294 92.2403 102.725 91.9576 102.428 92.4205C102.233 92.7282 102.258 93.1994 102.161 93.5902C102.112 93.8497 101.983 94.0875 101.793 94.2705C101.603 94.4536 101.36 94.5728 101.099 94.6116C100.859 94.6061 100.622 94.5518 100.404 94.452C100.185 94.3521 99.9894 94.2089 99.828 94.0309C98.9793 93.1628 98.4268 92.0485 98.2494 90.8474C98.1292 90.2716 98.1444 89.6757 98.2938 89.1067C98.4642 88.5676 98.8759 88.1518 99.2847 88.2544C99.5536 87.6861 99.0228 86.9322 98.5446 86.9987C98.0651 87.0652 97.6895 87.5794 97.2959 87.9744C96.9037 88.3694 96.3549 88.6563 95.9599 88.2641C95.9687 88.4075 95.9202 88.5486 95.825 88.6563C95.7298 88.764 95.5957 88.8294 95.4522 88.8383C95.438 88.8392 95.4239 88.8395 95.4097 88.8392C95.147 88.7638 94.903 88.6345 94.6931 88.4595C93.7881 87.8954 92.6392 88.2696 91.9961 89.3368C92.398 87.6265 92.987 85.664 94.2219 85.2621C94.7264 85.0972 95.2766 85.233 95.7534 84.9475C96.5974 84.4417 96.7679 82.5304 96.0389 81.7419C96.1317 82.4875 96.1137 83.3578 95.7201 83.8679C95.3265 84.3779 94.5005 84.0453 94.5504 83.2913C94.5392 83.3974 94.4947 83.4971 94.4233 83.5764C94.3519 83.6556 94.2573 83.7102 94.153 83.7323C94.0487 83.7545 93.9401 83.7431 93.8427 83.6997C93.7453 83.6563 93.6641 83.5832 93.6107 83.4909C93.3488 83.0918 93.371 82.439 93.5567 81.9622C93.7481 81.5304 94.0227 81.1405 94.3647 80.8147C95.023 80.1092 95.691 79.3955 96.4533 78.952C97.2169 78.5085 98.0984 78.3588 98.8634 78.7995C99.2668 79.0324 99.6215 79.4204 100.033 79.6255C100.13 79.6856 100.237 79.7259 100.35 79.7444C100.462 79.7628 100.577 79.7589 100.688 79.733C100.799 79.707 100.903 79.6595 100.996 79.5931C101.088 79.5267 101.167 79.4427 101.227 79.346C101.231 79.3385 101.236 79.331 101.24 79.3234C101.547 78.7856 101.402 77.9874 101.516 77.3152C101.72 76.1275 102.908 75.5717 103.566 76.3561C103.074 76.23 102.565 76.8121 102.504 77.5175C102.442 78.223 102.798 78.9354 103.275 79.1488C104.076 79.5036 104.86 78.611 105.466 77.785C106.098 76.9202 106.731 76.0558 107.365 75.1919C107.466 75.0449 107.58 74.9067 107.704 74.7789C107.903 74.5854 108.167 74.4746 108.445 74.469C108.722 74.4633 108.991 74.5632 109.197 74.7484C109.837 75.2709 110.138 76.3423 110.663 77.0796C111.426 78.1509 112.566 78.4115 113.628 78.6194C114.419 78.7732 115.211 78.928 116.003 79.0836C116.531 80.0662 116.992 81.0835 117.382 82.1285C115.929 82.7911 114.697 83.8565 113.831 85.1984Z" fill="#00BFFF"/>
<path d="M118.146 84.54C117.984 85.0186 117.895 85.5191 117.883 86.0243C117.204 85.1955 117.096 83.6419 117.542 82.5664C117.77 83.2123 117.972 83.8701 118.146 84.54Z" fill="#00BFFF"/>
<path d="M116.391 101.874C115.797 103.08 115.106 104.236 114.326 105.329C113.827 105.116 113.29 105.497 112.823 105.855C112.336 106.229 111.749 106.593 111.249 106.252C110.738 105.903 110.573 104.926 110.735 104.151C110.921 103.437 111.247 102.766 111.694 102.178C112.11 101.557 112.555 100.912 113.132 100.671C113.712 100.43 114.456 100.771 114.625 101.594L115.035 101.581C114.805 101.265 114.926 100.61 115.235 100.495C115.591 100.361 115.9 100.85 116.111 101.283C116.205 101.478 116.301 101.675 116.391 101.874Z" fill="#00BFFF"/>
<path d="M100.679 96.0182C99.797 96.0736 99.0985 94.9881 98.6344 93.9202C98.1703 92.8523 97.7468 91.6311 96.9512 91.0875C96.4965 90.7769 95.9782 90.7343 95.4852 90.5838C95.2055 90.5132 94.9466 90.3769 94.7301 90.1863C94.5136 89.9956 94.3457 89.7562 94.2402 89.4877L93.6808 89.2617C92.8984 89.6528 92.1819 90.1637 91.5571 90.776C90.8432 91.5343 90.3985 92.5064 90.2917 93.5425C90.1848 94.6621 90.5794 95.9105 91.3166 96.3311C91.8992 96.6634 92.5774 96.4539 93.1675 96.7582C93.9047 97.1383 94.3424 98.2425 94.5081 99.3327C94.6738 100.423 94.6318 101.556 94.7503 102.659C94.8689 103.761 95.1956 104.909 95.8717 105.474C96.7177 106.181 97.9592 105.593 98.3388 104.306C98.525 103.675 98.5186 102.962 98.6579 102.307C98.9031 101.153 99.5649 100.296 100.09 99.3495C100.615 98.4028 101.028 97.1169 100.679 96.0182Z" fill="#00BFFF"/>
<path d="M91.966 84.6786C92.0482 84.7543 92.125 84.8358 92.1956 84.9224C92.2688 85.0485 92.3061 85.1921 92.3036 85.3379C92.3011 85.4836 92.2589 85.6259 92.1815 85.7494C92.2878 85.7434 92.3916 85.7154 92.4864 85.6672C92.5812 85.619 92.665 85.5516 92.7325 85.4694C92.8935 85.2861 93.035 85.0867 93.155 84.8743C93.2114 84.8015 93.2517 84.7176 93.2732 84.6281C93.2946 84.5386 93.2968 84.4456 93.2796 84.3552C93.2379 84.2363 93.1394 84.1856 93.0703 84.0962C92.9746 83.9214 92.9093 83.7316 92.8771 83.5349C92.8388 83.3505 92.7499 83.1805 92.6203 83.0439C92.4907 82.9073 92.3256 82.8096 92.1435 82.7617L92.1877 82.7702C92.1124 82.8148 92.0531 82.8819 92.0178 82.9619C91.9826 83.042 91.9734 83.1311 91.9913 83.2167C92.0181 83.3896 92.1292 83.5332 92.1181 83.7096C92.1022 83.9632 91.8488 84.0823 91.8331 84.3359C91.8306 84.4632 91.8784 84.5863 91.966 84.6786Z" fill="#00BFFF"/>
<path d="M90.4551 80.3661L90.459 80.3653C90.4861 80.3406 90.5113 80.3138 90.5342 80.2852L90.4551 80.3661Z" fill="#00BFFF"/>
<path d="M90.7196 81.5595C90.8256 81.4666 90.9039 81.3463 90.9461 81.2119C90.9883 81.0775 90.9928 80.934 90.959 80.7972C90.895 80.5088 90.6683 80.3149 90.4591 80.3682C90.3985 80.4297 90.3232 80.4748 90.2403 80.4992C90.1574 80.5236 90.0697 80.5265 89.9854 80.5077C89.8561 80.4744 89.7142 80.3887 89.602 80.4861C89.5379 80.5588 89.493 80.6465 89.4715 80.741C89.43 80.8685 89.3884 80.9959 89.3469 81.1232C89.3272 81.1688 89.3221 81.2194 89.3322 81.2681C89.3402 81.2876 89.353 81.3047 89.3695 81.3178C89.386 81.3309 89.4055 81.3395 89.4263 81.3429C89.6753 81.4163 89.9244 81.4897 90.1734 81.5631C90.2591 81.6026 90.3525 81.6228 90.4469 81.6222C90.5413 81.6215 90.6344 81.6002 90.7196 81.5595Z" fill="#00BFFF"/>
<path d="M109.519 97.9965C109.404 97.808 109.289 97.6196 109.174 97.4311C109.061 97.2129 108.906 97.0188 108.719 96.8598C108.678 96.8257 108.631 96.8001 108.581 96.7842C108.53 96.7683 108.477 96.7625 108.424 96.7672C108.371 96.7718 108.32 96.7868 108.273 96.8113C108.226 96.8358 108.185 96.8693 108.151 96.9099L108.145 96.9172L108.159 97.0249C108.467 97.3553 108.677 97.7651 108.765 98.2083C108.791 98.4009 108.782 98.6002 108.805 98.7937C108.808 98.8834 108.828 98.9717 108.864 99.0536C108.901 99.1355 108.953 99.2095 109.018 99.2711C109.2 99.3922 109.413 99.2137 109.542 98.9958C109.657 98.8169 109.709 98.6043 109.688 98.3924C109.66 98.2502 109.602 98.1155 109.519 97.9965Z" fill="#00BFFF"/>
<path d="M111.324 98.241C111.346 98.0646 111.332 97.8856 111.282 97.7149C111.274 97.4839 111.335 97.2558 111.458 97.0601C111.58 96.8754 111.672 96.6728 111.731 96.4596C111.757 96.3625 111.752 96.2601 111.718 96.1656C111.68 96.08 111.588 96.0409 111.535 96.1087L111.648 96.1817C111.495 96.1544 111.338 96.162 111.189 96.2039C111.103 96.2366 111.027 96.2894 110.966 96.3577C110.906 96.4261 110.862 96.5081 110.84 96.5967C110.821 96.7349 110.791 96.8713 110.749 97.0042C110.681 97.1431 110.55 97.1893 110.468 97.3113C110.412 97.4193 110.384 97.5396 110.386 97.6614C110.388 97.7831 110.42 97.9024 110.48 98.0086C110.583 98.1822 110.747 98.3113 110.94 98.3707C111.078 98.4203 111.261 98.4229 111.324 98.241Z" fill="#00BFFF"/>
<path d="M114.54 99.2092C114.59 99.3393 114.657 99.4623 114.739 99.5749C114.893 99.73 115.102 99.6346 115.289 99.597C115.459 99.5702 115.632 99.5898 115.792 99.6537C115.951 99.7175 116.09 99.8233 116.194 99.9598C116.121 99.5985 115.963 99.26 115.733 98.9725C115.502 98.685 115.206 98.4571 114.87 98.3077C114.432 98.1563 113.971 98.0841 113.508 98.0948L113.429 98.115C113.63 98.7017 114.263 98.6885 114.54 99.2092Z" fill="#00BFFF"/>
<path d="M100.921 100.409L100.922 100.412L100.945 100.367L100.921 100.409Z" fill="#00BFFF"/>
<path d="M100.432 101.356C100.326 101.549 100.234 101.75 100.158 101.957C100.058 102.292 99.9917 102.637 99.9601 102.986C99.9354 103.184 99.9277 103.437 100.052 103.534C100.088 103.557 100.131 103.567 100.173 103.562C100.215 103.556 100.254 103.535 100.282 103.502C100.351 103.429 100.408 103.346 100.45 103.254C100.694 102.834 100.883 102.384 101.014 101.915C101.15 101.418 101.117 100.891 100.921 100.414C100.758 100.728 100.595 101.042 100.432 101.356Z" fill="#00BFFF"/>
<path d="M95.7263 76.1996C95.8038 76.2754 95.9018 76.3268 96.0081 76.3475C96.1145 76.3683 96.2246 76.3575 96.3249 76.3164C96.5325 76.2256 96.723 76.0998 96.888 75.9444C97.0247 75.8433 97.1406 75.7169 97.2294 75.572C97.2784 75.4854 97.3098 75.39 97.3218 75.2913C97.3337 75.1925 97.3261 75.0924 97.2993 74.9966C97.2611 74.9048 97.2002 74.8243 97.1222 74.7627C97.0443 74.701 96.9519 74.6602 96.8538 74.6442C96.5774 74.5622 96.301 74.4803 96.0246 74.3983L96.2246 74.2181C96.0188 74.1077 95.7913 74.3126 95.6627 74.5663C95.5802 74.7319 95.5227 74.9089 95.4921 75.0913C95.4484 75.282 95.4467 75.4799 95.4871 75.6713C95.5276 75.8627 95.6092 76.0429 95.7263 76.1996Z" fill="#00BFFF"/>
<path d="M100.607 74.5605C100.685 74.6464 100.793 74.6994 100.908 74.7088C101.024 74.7182 101.139 74.6833 101.229 74.6111C101.308 74.5525 101.372 74.478 101.42 74.3926C101.467 74.3072 101.496 74.2127 101.505 74.1154C101.524 73.8979 101.417 73.6563 101.263 73.6375L101.298 73.434C101.003 73.3806 100.639 73.3699 100.48 73.729C100.427 73.8666 100.41 74.0158 100.433 74.1617C100.455 74.3076 100.515 74.4452 100.607 74.5605Z" fill="#00BFFF"/>
<path d="M71.4744 96.3444C71.1904 96.0893 70.9657 95.7749 70.8162 95.4235C70.6667 95.0722 70.596 94.6923 70.6091 94.3107C70.6222 93.9291 70.7188 93.5549 70.8921 93.2147C71.0654 92.8744 71.3111 92.5762 71.612 92.3411L68.6143 83.5547L73.2848 84.7679L75.4132 92.9252C75.7749 93.4571 75.9288 94.1033 75.8458 94.7411C75.7628 95.379 75.4486 95.9642 74.9628 96.3858C74.477 96.8074 73.8534 97.0361 73.2103 97.0285C72.5671 97.021 71.949 96.7776 71.4733 96.3447L71.4744 96.3444Z" fill="#FFB7B7"/>
<path d="M70.1351 91.0129L74.6667 88.9935L73.1443 73.6661L74.5621 58.2105L68.5119 54.9453L67.2299 56.5616V56.5983L66.5508 76.1423L66.5544 76.157L70.1351 91.0129Z" fill="#E6E7E8"/>
<path d="M139.555 136.687C136.993 135.509 134.229 134.121 131.264 132.523C115.927 124.254 97.0676 111.356 78.1594 96.2043C59.2513 81.0524 42.5536 65.4564 31.1421 52.29C25.5833 45.8761 21.5792 40.3833 19.2412 35.964C16.7658 31.2853 16.2665 27.9697 17.7571 26.1096C20.661 22.4859 30.1181 25.7499 37.5403 29.1261L37.269 29.7226C27.0765 25.086 20.3286 23.9485 18.2684 26.5194C15.6444 29.7938 20.5173 39.0303 31.6373 51.8608C43.0236 64.9983 59.6909 80.565 78.5692 95.6931C97.4474 110.821 116.272 123.696 131.575 131.946C146.52 140.003 156.596 142.746 159.22 139.471C161.399 136.753 158.427 129.905 150.853 120.19L151.37 119.788C156.873 126.847 162.792 136.063 159.732 139.881C158.241 141.741 154.896 141.976 149.791 140.58C146.88 139.784 143.455 138.481 139.555 136.687Z" fill="#00BFFF"/>
<path d="M41.4371 92.5083C34.3729 89.26 27.9171 85.9976 22.2628 82.8049C14.8722 78.6315 9.25539 74.8032 5.56846 71.4266C1.66499 67.8513 0.0807691 64.8963 0.859785 62.6435C2.37716 58.2549 12.3812 58.1516 20.5063 58.8378L20.4511 59.4908C9.29328 58.5485 2.55556 59.7441 1.47891 62.8578C0.107684 66.8234 7.80056 73.8858 22.585 82.2342C37.7236 90.7825 58.652 99.8443 81.5157 107.75C104.379 115.656 126.435 121.457 143.62 124.086C160.404 126.653 170.816 125.851 172.187 121.885C173.326 118.593 168.226 113.142 157.828 106.537L158.179 105.984C165.735 110.783 174.406 117.475 172.807 122.099C172.028 124.352 168.956 125.697 163.678 126.098C158.693 126.476 151.911 126.017 143.521 124.733C126.298 122.099 104.201 116.287 81.3015 108.369C66.9361 103.402 53.3277 97.9763 41.4371 92.5083Z" fill="#00BFFF"/>
<path d="M52.1554 59.1604C54.2643 59.1604 55.9739 57.4508 55.9739 55.3419C55.9739 53.233 54.2643 51.5234 52.1554 51.5234C50.0465 51.5234 48.3369 53.233 48.3369 55.3419C48.3369 57.4508 50.0465 59.1604 52.1554 59.1604Z" fill="#E6E6E6"/>
<path d="M127.421 105.765C128.711 105.765 129.758 104.718 129.758 103.427C129.758 102.136 128.711 101.09 127.421 101.09C126.13 101.09 125.083 102.136 125.083 103.427C125.083 104.718 126.13 105.765 127.421 105.765Z" fill="#FF6584"/>
<path d="M13.0988 126.285C15.2076 126.285 16.9172 124.576 16.9172 122.467C16.9172 120.358 15.2076 118.648 13.0988 118.648C10.9899 118.648 9.28027 120.358 9.28027 122.467C9.28027 124.576 10.9899 126.285 13.0988 126.285Z" fill="#E6E6E6"/>
</g>
</g>
<defs>
<clipPath id="clip0_148_7239">
<rect width="173" height="161.467" fill="white" transform="translate(0 0.535156)"/>
</clipPath>
<clipPath id="clip1_148_7239">
<rect width="173" height="130.792" fill="white" transform="translate(0 24.5234)"/>
</clipPath>
</defs>
</svg>
