<svg width="220" height="180" viewBox="0 0 220 180" fill="none" xmlns="http://www.w3.org/2000/svg">
<g clip-path="url(#clip0_148_6964)">
<g clip-path="url(#clip1_148_6964)">
<g clip-path="url(#clip2_148_6964)">
<path d="M49.0953 41.2934H35.1444C33.8032 41.2946 32.5172 41.828 31.5688 42.7764C30.6204 43.7248 30.0871 45.0107 30.0859 46.352V61.477C29.9075 61.4664 29.7291 61.4504 29.5534 61.4291C26.2483 61.0814 23.1061 59.8172 20.481 57.7793C17.8559 55.7413 15.8523 53.0104 14.6962 49.8947C13.5401 46.7789 13.2774 43.4022 13.9377 40.1451C14.598 36.888 16.1551 33.8802 18.4334 31.4607C20.7117 29.0412 23.6206 27.3063 26.8321 26.4516C30.0437 25.5969 33.4301 25.6563 36.6097 26.6233C39.7892 27.5902 42.6354 29.4261 44.8274 31.9241C47.0194 34.4221 48.4699 37.4827 49.0155 40.761C49.0447 40.9367 49.0714 41.1151 49.0953 41.2934Z" fill="#F2F2F2"/>
<path d="M213.79 40.7617H35.1438C33.6614 40.7633 32.2403 41.3529 31.1921 42.4011C30.1439 43.4493 29.5544 44.8704 29.5527 46.3527V140.601C29.5544 142.084 30.1439 143.505 31.1921 144.553C32.2403 145.601 33.6614 146.191 35.1438 146.192H213.79C215.273 146.191 216.694 145.601 217.742 144.553C218.79 143.505 219.38 142.084 219.381 140.601V46.3527C219.38 44.8704 218.79 43.4493 217.742 42.4011C216.694 41.3529 215.273 40.7633 213.79 40.7617ZM218.849 140.601C218.848 141.943 218.314 143.229 217.366 144.177C216.417 145.125 215.131 145.659 213.79 145.66H35.1438C33.8025 145.659 32.5166 145.125 31.5682 144.177C30.6198 143.229 30.0864 141.943 30.0852 140.601V46.3527C30.0864 45.0115 30.6198 43.7255 31.5682 42.7772C32.5166 41.8288 33.8025 41.2954 35.1438 41.2942H213.79C215.131 41.2954 216.417 41.8288 217.366 42.7772C218.314 43.7255 218.848 45.0115 218.849 46.3527V140.601Z" fill="#3F3D56"/>
<path d="M205.004 56.0364H43.9293C43.8587 56.0364 43.791 56.0083 43.7411 55.9584C43.6911 55.9085 43.6631 55.8408 43.6631 55.7701C43.6631 55.6995 43.6911 55.6318 43.7411 55.5819C43.791 55.532 43.8587 55.5039 43.9293 55.5039H205.004C205.075 55.5039 205.142 55.532 205.192 55.5819C205.242 55.6318 205.27 55.6995 205.27 55.7701C205.27 55.8408 205.242 55.9085 205.192 55.9584C205.142 56.0083 205.075 56.0364 205.004 56.0364Z" fill="#3F3D56"/>
<path d="M89.4567 134.742C89.3861 134.742 89.3183 134.714 89.2684 134.664C89.2185 134.614 89.1904 134.547 89.1904 134.476V46.8834C89.1904 46.8128 89.2185 46.7451 89.2684 46.6952C89.3183 46.6452 89.3861 46.6172 89.4567 46.6172C89.5273 46.6172 89.595 46.6452 89.6449 46.6952C89.6949 46.7451 89.7229 46.8128 89.7229 46.8834V134.476C89.7229 134.547 89.6949 134.614 89.6449 134.664C89.595 134.714 89.5273 134.742 89.4567 134.742Z" fill="#3F3D56"/>
<path d="M129.659 134.742C129.588 134.742 129.52 134.714 129.471 134.664C129.421 134.614 129.393 134.547 129.393 134.476V46.8834C129.393 46.8128 129.421 46.7451 129.471 46.6952C129.52 46.6452 129.588 46.6172 129.659 46.6172C129.729 46.6172 129.797 46.6452 129.847 46.6952C129.897 46.7451 129.925 46.8128 129.925 46.8834V134.476C129.925 134.547 129.897 134.614 129.847 134.664C129.797 134.714 129.729 134.742 129.659 134.742Z" fill="#3F3D56"/>
<path d="M169.861 134.742C169.79 134.742 169.723 134.714 169.673 134.664C169.623 134.614 169.595 134.547 169.595 134.476V46.8834C169.595 46.8128 169.623 46.7451 169.673 46.6952C169.723 46.6452 169.79 46.6172 169.861 46.6172C169.932 46.6172 169.999 46.6452 170.049 46.6952C170.099 46.7451 170.127 46.8128 170.127 46.8834V134.476C170.127 134.547 170.099 134.614 170.049 134.664C169.999 134.714 169.932 134.742 169.861 134.742Z" fill="#3F3D56"/>
<path d="M63.6091 83.5169H53.8807C53.5631 83.5166 53.2585 83.3902 53.0339 83.1656C52.8093 82.941 52.683 82.6365 52.6826 82.3188V70.8387C52.683 70.5211 52.8093 70.2165 53.0339 69.9919C53.2585 69.7673 53.5631 69.641 53.8807 69.6406H63.6091C63.9267 69.641 64.2312 69.7673 64.4559 69.9919C64.6805 70.2165 64.8068 70.5211 64.8072 70.8387V82.3188C64.8068 82.6365 64.6805 82.941 64.4559 83.1656C64.2312 83.3902 63.9267 83.5166 63.6091 83.5169Z" fill="#00B0FF"/>
<path d="M77.4528 116.263H67.7244C67.4068 116.263 67.1023 116.136 66.8777 115.912C66.6531 115.687 66.5267 115.383 66.5264 115.065V103.585C66.5267 103.267 66.6531 102.963 66.8777 102.738C67.1023 102.513 67.4068 102.387 67.7244 102.387H77.4528C77.7705 102.387 78.075 102.513 78.2996 102.738C78.5242 102.963 78.6505 103.267 78.6509 103.585V115.065C78.6505 115.383 78.5242 115.687 78.2996 115.912C78.075 116.136 77.7705 116.263 77.4528 116.263Z" fill="#00B0FF"/>
<path d="M108.871 90.4388H99.1424C98.8248 90.4384 98.5202 90.3121 98.2956 90.0875C98.071 89.8629 97.9447 89.5583 97.9443 89.2407V77.7606C97.9447 77.4429 98.071 77.1384 98.2956 76.9138C98.5202 76.6892 98.8248 76.5629 99.1424 76.5625H108.871C109.188 76.5629 109.493 76.6892 109.718 76.9138C109.942 77.1384 110.069 77.4429 110.069 77.7606V89.2407C110.069 89.5583 109.942 89.8629 109.718 90.0875C109.493 90.3121 109.188 90.4384 108.871 90.4388Z" fill="#00B0FF"/>
<path d="M149.605 77.9232H139.877C139.559 77.9228 139.255 77.7965 139.03 77.5718C138.805 77.3472 138.679 77.0427 138.679 76.7251V65.245C138.679 64.9273 138.805 64.6228 139.03 64.3982C139.255 64.1736 139.559 64.0472 139.877 64.0469H149.605C149.923 64.0472 150.227 64.1736 150.452 64.3982C150.677 64.6228 150.803 64.9273 150.803 65.245V76.7251C150.803 77.0427 150.677 77.3472 150.452 77.5719C150.227 77.7965 149.923 77.9228 149.605 77.9232Z" fill="#00B0FF"/>
<path d="M187.144 77.9232H177.416C177.098 77.9228 176.794 77.7965 176.569 77.5718C176.344 77.3472 176.218 77.0427 176.218 76.7251V65.245C176.218 64.9273 176.344 64.6228 176.569 64.3982C176.794 64.1736 177.098 64.0472 177.416 64.0469H187.144C187.462 64.0472 187.766 64.1736 187.991 64.3982C188.216 64.6228 188.342 64.9273 188.342 65.245V76.7251C188.342 77.0427 188.216 77.3472 187.991 77.5719C187.766 77.7965 187.462 77.9228 187.144 77.9232Z" fill="#00B0FF"/>
<path d="M204.45 81.1185H194.722C194.404 81.1181 194.099 80.9918 193.875 80.7672C193.65 80.5426 193.524 80.238 193.523 79.9204V68.4403C193.524 68.1226 193.65 67.8181 193.875 67.5935C194.099 67.3689 194.404 67.2425 194.722 67.2422H204.45C204.768 67.2425 205.072 67.3689 205.297 67.5935C205.521 67.8181 205.648 68.1226 205.648 68.4403V79.9204C205.648 80.238 205.521 80.5426 205.297 80.7672C205.072 80.9918 204.768 81.1181 204.45 81.1185Z" fill="#E6E6E6"/>
<path d="M196.729 101.618H187.001C186.683 101.618 186.379 101.492 186.154 101.267C185.929 101.043 185.803 100.738 185.803 100.42V88.9403C185.803 88.6226 185.929 88.3181 186.154 88.0935C186.379 87.8689 186.683 87.7425 187.001 87.7422H196.729C197.047 87.7425 197.351 87.8689 197.576 88.0935C197.801 88.3181 197.927 88.6226 197.927 88.9403V100.42C197.927 100.738 197.801 101.043 197.576 101.267C197.351 101.492 197.047 101.618 196.729 101.618Z" fill="#E6E6E6"/>
<path d="M163.716 97.3607H153.987C153.669 97.3603 153.365 97.234 153.14 97.0093C152.916 96.7847 152.789 96.4802 152.789 96.1626V84.6825C152.789 84.3648 152.916 84.0603 153.14 83.8357C153.365 83.6111 153.669 83.4847 153.987 83.4844H163.716C164.033 83.4847 164.338 83.6111 164.562 83.8357C164.787 84.0603 164.913 84.3648 164.914 84.6825V96.1626C164.913 96.4802 164.787 96.7847 164.562 97.0094C164.338 97.234 164.033 97.3603 163.716 97.3607Z" fill="#FF6584"/>
<path d="M144.811 101.618H135.083C134.765 101.618 134.461 101.492 134.236 101.267C134.011 101.043 133.885 100.738 133.885 100.42V88.9403C133.885 88.6226 134.011 88.3181 134.236 88.0935C134.461 87.8689 134.765 87.7425 135.083 87.7422H144.811C145.129 87.7425 145.433 87.8689 145.658 88.0935C145.883 88.3181 146.009 88.6226 146.009 88.9403V100.42C146.009 100.738 145.883 101.043 145.658 101.267C145.433 101.492 145.129 101.618 144.811 101.618Z" fill="#E6E6E6"/>
<path d="M104.077 119.724H94.3485C94.0308 119.724 93.7263 119.597 93.5017 119.373C93.2771 119.148 93.1507 118.843 93.1504 118.526V107.046C93.1507 106.728 93.2771 106.424 93.5017 106.199C93.7263 105.974 94.0308 105.848 94.3485 105.848H104.077C104.394 105.848 104.699 105.974 104.924 106.199C105.148 106.424 105.275 106.728 105.275 107.046V118.526C105.275 118.844 105.148 119.148 104.924 119.373C104.699 119.597 104.394 119.724 104.077 119.724Z" fill="#E6E6E6"/>
<path d="M54.8239 104.548H45.0955C44.7779 104.548 44.4734 104.421 44.2488 104.197C44.0242 103.972 43.8978 103.668 43.8975 103.35V91.87C43.8978 91.5523 44.0242 91.2478 44.2488 91.0232C44.4734 90.7986 44.7779 90.6722 45.0955 90.6719H54.8239C55.1416 90.6722 55.4461 90.7986 55.6707 91.0232C55.8953 91.2478 56.0216 91.5523 56.022 91.87V103.35C56.0216 103.668 55.8953 103.972 55.6707 104.197C55.4461 104.421 55.1416 104.548 54.8239 104.548Z" fill="#FF6584"/>
<path d="M82.2468 83.5169H72.5184C72.2007 83.5166 71.8962 83.3902 71.6716 83.1656C71.447 82.941 71.3207 82.6365 71.3203 82.3188V70.8387C71.3207 70.5211 71.447 70.2165 71.6716 69.9919C71.8962 69.7673 72.2007 69.641 72.5184 69.6406H82.2468C82.5644 69.641 82.8689 69.7673 83.0935 69.9919C83.3182 70.2165 83.4445 70.5211 83.4448 70.8387V82.3188C83.4445 82.6365 83.3182 82.941 83.0935 83.1656C82.8689 83.3902 82.5644 83.5166 82.2468 83.5169Z" fill="#E6E6E6"/>
<path d="M74.2816 51.6768H59.106C58.8235 51.6768 58.5527 51.5646 58.3529 51.3649C58.1532 51.1652 58.041 50.8943 58.041 50.6118C58.041 50.3294 58.1532 50.0585 58.3529 49.8588C58.5527 49.6591 58.8235 49.5469 59.106 49.5469H74.2816C74.564 49.5469 74.8349 49.6591 75.0346 49.8588C75.2344 50.0585 75.3466 50.3294 75.3466 50.6118C75.3466 50.8943 75.2344 51.1652 75.0346 51.3649C74.8349 51.5646 74.564 51.6768 74.2816 51.6768Z" fill="#CCCCCC"/>
<path d="M117.147 51.6768H101.971C101.689 51.6768 101.418 51.5646 101.218 51.3649C101.018 51.1652 100.906 50.8943 100.906 50.6118C100.906 50.3294 101.018 50.0585 101.218 49.8588C101.418 49.6591 101.689 49.5469 101.971 49.5469H117.147C117.429 49.5469 117.7 49.6591 117.9 49.8588C118.1 50.0585 118.212 50.3294 118.212 50.6118C118.212 50.8943 118.1 51.1652 117.9 51.3649C117.7 51.5646 117.429 51.6768 117.147 51.6768Z" fill="#CCCCCC"/>
<path d="M157.349 51.6768H142.173C141.891 51.6768 141.62 51.5646 141.42 51.3649C141.221 51.1652 141.108 50.8943 141.108 50.6118C141.108 50.3294 141.221 50.0585 141.42 49.8588C141.62 49.6591 141.891 49.5469 142.173 49.5469H157.349C157.631 49.5469 157.902 49.6591 158.102 49.8588C158.302 50.0585 158.414 50.3294 158.414 50.6118C158.414 50.8943 158.302 51.1652 158.102 51.3649C157.902 51.5646 157.631 51.6768 157.349 51.6768Z" fill="#CCCCCC"/>
<path d="M194.888 51.6768H179.712C179.43 51.6768 179.159 51.5646 178.959 51.3649C178.76 51.1652 178.647 50.8943 178.647 50.6118C178.647 50.3294 178.76 50.0585 178.959 49.8588C179.159 49.6591 179.43 49.5469 179.712 49.5469H194.888C195.17 49.5469 195.441 49.6591 195.641 49.8588C195.841 50.0585 195.953 50.3294 195.953 50.6118C195.953 50.8943 195.841 51.1652 195.641 51.3649C195.441 51.5646 195.17 51.6768 194.888 51.6768Z" fill="#CCCCCC"/>
<path d="M40.2921 129.657C39.9026 129.619 39.5262 129.496 39.1894 129.297C38.8526 129.097 38.5635 128.827 38.3427 128.504C38.1219 128.18 37.9746 127.813 37.9112 127.427C37.8478 127.04 37.8699 126.645 37.9758 126.268L31.1514 119.915L34.7596 119L41.4704 124.443C42.0916 124.663 42.6104 125.103 42.9287 125.68C43.247 126.257 43.3426 126.931 43.1974 127.574C43.0522 128.216 42.6762 128.783 42.1407 129.168C41.6053 129.552 40.9475 129.726 40.2921 129.657Z" fill="#FFB8B8"/>
<path d="M49.7154 176.609H52.9795L54.5322 164.02H49.7148L49.7154 176.609Z" fill="#FFB8B8"/>
<path d="M59.2744 179.641L49.016 179.641L49.0158 175.678L55.3108 175.677C56.3619 175.677 57.3701 176.095 58.1134 176.838C58.8567 177.581 59.2744 178.589 59.2744 179.641Z" fill="#2F2E41"/>
<path d="M27.334 174.252L30.4884 175.092L35.2277 163.325L30.5725 162.086L27.334 174.252Z" fill="#FFB8B8"/>
<path d="M35.793 179.641L25.8798 177.002L26.8993 173.172L32.9824 174.791C33.9982 175.061 34.865 175.724 35.392 176.634C35.9191 177.543 36.0634 178.625 35.793 179.641Z" fill="#2F2E41"/>
<path d="M53.8567 174.226H48.8761C48.5615 174.227 48.2578 174.11 48.025 173.899C47.7921 173.687 47.6468 173.396 47.6178 173.083L44.5943 141.685C44.5721 141.455 44.4706 141.239 44.3071 141.075C44.1436 140.912 43.9283 140.81 43.698 140.787C43.4678 140.765 43.2368 140.823 43.0448 140.952C42.8527 141.081 42.7114 141.273 42.6451 141.495L33.8663 170.834C33.7735 171.146 33.5638 171.41 33.2811 171.571C32.9983 171.732 32.6643 171.777 32.3487 171.698L27.7154 170.54C27.5536 170.499 27.4015 170.427 27.2677 170.328C27.134 170.228 27.0212 170.103 26.9359 169.96C26.8506 169.817 26.7944 169.658 26.7707 169.493C26.747 169.328 26.7561 169.16 26.7976 168.999C26.8732 168.703 34.3616 139.439 34.427 139.138C36.1237 126.633 38.1536 123.282 39.244 121.482C39.3343 121.333 39.4173 121.196 39.492 121.067C39.5854 120.905 40.1609 119.298 40.5259 118.254C40.5733 118.084 40.6554 117.926 40.767 117.79C40.8786 117.653 41.0172 117.542 41.1742 117.462C45.7564 115.118 51.1176 116.74 52.6516 117.293C52.9059 117.383 53.1243 117.552 53.2741 117.777C57.8759 124.718 55.6176 165.032 55.1181 173.043C55.0973 173.363 54.9554 173.664 54.7211 173.884C54.4869 174.103 54.1778 174.226 53.8567 174.226Z" fill="#2F2E41"/>
<path d="M41.0039 94.6954C44.6154 94.6954 47.5431 91.7677 47.5431 88.1563C47.5431 84.5448 44.6154 81.6172 41.0039 81.6172C37.3925 81.6172 34.4648 84.5448 34.4648 88.1563C34.4648 91.7677 37.3925 94.6954 41.0039 94.6954Z" fill="#FFB8B8"/>
<path d="M40.3101 119.524L40.2631 119.478C40.175 119.393 31.4624 110.858 32.5899 102.965C33.0722 99.5892 35.8035 97.4322 40.4887 96.7268C42.2099 96.4712 43.9655 96.8454 45.4329 97.7807C46.9003 98.716 47.9807 100.149 48.4758 101.818L53.1083 117.655L40.3101 119.524Z" fill="#CCCCCC"/>
<path d="M35.8516 125.597L29.6434 119.428C29.2189 119.004 28.9107 118.478 28.7484 117.9C28.5862 117.322 28.5753 116.712 28.7169 116.129L31.7224 103.904C31.8124 103.537 31.9767 103.193 32.205 102.893C32.4333 102.593 32.7208 102.342 33.0497 102.158C33.3787 101.973 33.742 101.858 34.1173 101.819C34.4925 101.781 34.8717 101.819 35.2314 101.933C35.9169 102.154 36.4895 102.633 36.8278 103.269C37.1662 103.905 37.2438 104.647 37.0442 105.339L33.8801 116.095L38.9968 121.589L35.8516 125.597Z" fill="#CCCCCC"/>
<path d="M69.1499 104.54C68.9858 104.895 68.7457 105.21 68.4467 105.462C68.1476 105.715 67.7968 105.899 67.419 106.001C67.0412 106.103 66.6456 106.121 66.26 106.054C65.8744 105.987 65.5083 105.836 65.1873 105.612L56.8994 109.908L57.2657 106.259L64.6131 101.712C65.0252 101.197 65.6115 100.852 66.2611 100.741C66.9107 100.631 67.5783 100.762 68.1376 101.111C68.6968 101.459 69.1087 102.001 69.2953 102.633C69.4819 103.265 69.4302 103.943 69.1499 104.54Z" fill="#FFB8B8"/>
<path d="M64.2823 107.257L56.2029 110.749C55.6652 110.979 55.0771 111.068 54.4954 111.005C53.9136 110.943 53.3577 110.732 52.8811 110.392L42.6072 103.031C42.3005 102.811 42.0423 102.531 41.8483 102.208C41.6544 101.884 41.5289 101.524 41.4797 101.15C41.4304 100.776 41.4584 100.396 41.562 100.033C41.6655 99.6705 41.8424 99.3329 42.0817 99.0413C42.5416 98.4869 43.1992 98.1333 43.9152 98.0553C44.6313 97.9774 45.3496 98.1813 45.9179 98.6238L54.7273 105.557L61.7295 102.848L64.2823 107.257Z" fill="#CCCCCC"/>
<path d="M42.0876 90.253C42.8943 89.2422 44.4015 89.1879 45.5096 88.5211C46.961 87.6478 47.5611 85.6961 47.0934 84.068C46.6256 82.4399 45.2462 81.1711 43.6646 80.5642C42.0831 79.9574 40.3235 79.9499 38.6551 80.2432C36.171 80.68 33.7254 81.8394 32.2104 83.8558C30.6954 85.8723 30.3098 88.8254 31.6828 90.9411C32.3139 91.9135 33.2881 92.7161 33.54 93.8477C33.8707 95.3331 32.8288 96.7659 31.7125 97.8002C30.4407 98.9787 28.9816 99.9657 27.8675 101.294C26.7533 102.622 26.0103 104.437 26.5187 106.095C26.9447 107.484 28.1843 108.507 29.5435 109.019C30.9028 109.532 32.3833 109.606 33.8357 109.634C35.246 109.662 36.7439 109.627 37.932 108.867C39.2039 108.053 39.883 106.509 39.9331 104.999C39.9833 103.49 39.479 102.011 38.803 100.661C38.4002 99.8563 37.9317 99.0763 37.664 98.217C37.3963 97.3577 37.3499 96.3826 37.7787 95.5911C38.2293 94.7592 39.141 94.2575 40.0694 94.0751C40.1176 94.0656 40.1687 94.0572 40.2221 94.0496C40.4862 94.0154 40.7407 93.9279 40.97 93.7925C41.1994 93.6571 41.3989 93.4766 41.5565 93.2619C41.7142 93.0471 41.8266 92.8027 41.887 92.5433C41.9475 92.2839 41.9547 92.0149 41.9082 91.7526C41.8025 91.1631 41.8116 90.5988 42.0876 90.253Z" fill="#2F2E41"/>
<path d="M129.274 176.891H126.01L124.457 164.301L129.274 164.301L129.274 176.891Z" fill="#A0616A"/>
<path d="M123.678 175.957H129.973V179.921H119.715C119.715 179.4 119.817 178.885 120.017 178.404C120.216 177.923 120.508 177.486 120.876 177.118C121.244 176.75 121.681 176.458 122.162 176.259C122.642 176.06 123.158 175.957 123.678 175.957Z" fill="#2F2E41"/>
<path d="M152.956 173.19L149.987 174.546L143.344 163.74L147.726 161.738L152.956 173.19Z" fill="#A0616A"/>
<path d="M147.479 174.67L153.205 172.054L154.852 175.66L145.521 179.922C145.304 179.448 145.184 178.937 145.165 178.417C145.146 177.896 145.23 177.378 145.412 176.89C145.594 176.402 145.87 175.955 146.225 175.574C146.58 175.193 147.006 174.886 147.479 174.67Z" fill="#2F2E41"/>
<path d="M143.451 134.438C143.764 134.203 144.021 133.902 144.205 133.557C144.389 133.211 144.495 132.829 144.515 132.438C144.535 132.048 144.47 131.657 144.323 131.294C144.176 130.931 143.951 130.605 143.664 130.339L147.501 121.633L142.627 122.459L139.731 130.6C139.315 131.111 139.101 131.757 139.129 132.415C139.158 133.073 139.427 133.698 139.886 134.172C140.344 134.645 140.961 134.933 141.618 134.983C142.275 135.032 142.927 134.838 143.451 134.438Z" fill="#A0616A"/>
<path d="M129.067 173.567H125.948C125.646 173.566 125.355 173.451 125.134 173.245C124.912 173.039 124.776 172.758 124.753 172.456L123.053 127.047C123.04 126.873 123.066 126.698 123.128 126.535C123.19 126.372 123.286 126.224 123.411 126.102C123.536 125.98 123.686 125.887 123.851 125.829C124.015 125.772 124.191 125.75 124.364 125.767L142.398 127.683C142.69 127.711 142.962 127.846 143.161 128.062C143.361 128.277 143.474 128.559 143.479 128.852L143.857 148.883C143.859 148.992 143.88 149.099 143.92 149.201L151.317 168.384C151.374 168.532 151.401 168.69 151.397 168.849C151.392 169.008 151.356 169.164 151.291 169.309C151.225 169.453 151.132 169.584 151.015 169.692C150.899 169.8 150.763 169.884 150.613 169.939L147.454 171.103C147.179 171.204 146.877 171.201 146.605 171.095C146.332 170.989 146.108 170.787 145.974 170.527L136.887 152.857C136.837 152.761 136.801 152.659 136.779 152.553L135.227 145.073C135.182 144.856 135.061 144.662 134.886 144.527C134.711 144.391 134.493 144.322 134.272 144.332C134.051 144.342 133.84 144.43 133.678 144.581C133.516 144.732 133.414 144.936 133.388 145.156L130.257 172.505C130.223 172.798 130.084 173.067 129.864 173.263C129.645 173.459 129.361 173.567 129.067 173.567Z" fill="#2F2E41"/>
<path d="M130.618 91.5431C134.23 91.5431 137.157 88.6154 137.157 85.004C137.157 81.3925 134.23 78.4648 130.618 78.4648C127.007 78.4648 124.079 81.3925 124.079 85.004C124.079 88.6154 127.007 91.5431 130.618 91.5431Z" fill="#A0616A"/>
<path d="M135.103 131.199C130.668 131.15 126.339 129.839 122.623 127.419L122.56 127.375L122.566 127.298L125.067 98.1674C125.154 97.1791 125.595 96.2554 126.309 95.5672C127.024 94.879 127.963 94.4727 128.954 94.4236C132.196 94.2747 136.55 94.4625 138.881 96.1985C142.404 98.8222 144.102 102.773 143.539 107.038C142.373 115.882 143.694 127.812 143.849 129.143L143.86 129.239L143.772 129.28C141.056 130.543 138.098 131.198 135.103 131.199Z" fill="#00B0FF"/>
<path d="M143.818 129.193C143.633 129.193 143.451 129.154 143.283 129.08C143.114 129.005 142.962 128.897 142.838 128.761L141.407 127.2C141.253 127.031 141.145 126.824 141.093 126.601C141.041 126.377 141.048 126.144 141.112 125.924L144.374 114.885L139.411 104.463C139.179 103.975 139.123 103.422 139.25 102.898C139.363 102.437 139.613 102.021 139.966 101.706C140.32 101.39 140.761 101.188 141.231 101.128C141.702 101.068 142.179 101.152 142.601 101.369C143.023 101.586 143.369 101.925 143.594 102.343L150.328 113.27C150.602 113.713 150.762 114.217 150.796 114.737C150.829 115.256 150.734 115.777 150.52 116.251L145.033 128.409C144.942 128.61 144.803 128.785 144.628 128.919C144.453 129.053 144.247 129.141 144.03 129.176C143.96 129.187 143.889 129.193 143.818 129.193Z" fill="#00B0FF"/>
<path d="M97.7262 108.108C98.0403 108.342 98.4017 108.503 98.7851 108.582C99.1685 108.661 99.5645 108.655 99.9452 108.564C100.326 108.473 100.682 108.3 100.989 108.057C101.295 107.813 101.545 107.506 101.719 107.155L111.154 108.379L108.986 103.936L100.359 103.455C99.7511 103.201 99.0711 103.178 98.4476 103.391C97.8241 103.604 97.3005 104.039 96.976 104.612C96.6515 105.186 96.5486 105.858 96.6869 106.503C96.8252 107.147 97.195 107.718 97.7262 108.108Z" fill="#A0616A"/>
<path d="M118.522 110.532C118.358 110.532 118.194 110.521 118.031 110.498L103.188 108.44C102.945 108.406 102.715 108.313 102.517 108.169C102.32 108.024 102.161 107.833 102.056 107.611C102.022 107.54 101.994 107.466 101.972 107.391C101.914 107.194 101.898 106.988 101.924 106.785C101.951 106.582 102.019 106.386 102.125 106.211L103.353 104.174C103.485 103.957 103.671 103.777 103.893 103.651C104.114 103.526 104.365 103.46 104.619 103.459H104.621L117.559 103.474L127.222 94.8167C127.672 94.4149 128.246 94.1799 128.848 94.1512C129.377 94.1267 129.901 94.2631 130.351 94.5424C130.8 94.8216 131.155 95.2306 131.367 95.7155C131.58 96.2003 131.641 96.7382 131.541 97.2582C131.442 97.7782 131.187 98.2558 130.811 98.6282L121.169 109.352C120.835 109.723 120.427 110.02 119.971 110.224C119.515 110.427 119.022 110.532 118.522 110.532Z" fill="#00B0FF"/>
<path d="M131.361 90.8221C131.959 89.4391 132.465 87.5972 131.318 86.6195C130.654 86.0523 129.696 86.0511 128.825 85.9806C126.371 85.7818 123.845 84.6526 122.645 82.5025C121.446 80.3524 122.116 77.1553 124.379 76.1852C125.904 75.5313 127.653 75.9768 129.249 76.4295L134.043 77.7889C135.468 78.1928 136.963 78.6383 137.989 79.7062C139.624 81.4095 139.502 84.2887 138.203 86.2605C136.904 88.2324 134.948 90.2889 132.708 91.0376L131.361 90.8221Z" fill="#2F2E41"/>
<path d="M197.5 180.005H0.937067C0.89536 180.005 0.85404 179.997 0.815473 179.981C0.776905 179.965 0.741852 179.942 0.712318 179.913C0.682784 179.883 0.65935 179.848 0.643361 179.81C0.627373 179.771 0.619141 179.73 0.619141 179.688C0.619141 179.646 0.627373 179.605 0.643361 179.567C0.65935 179.528 0.682784 179.493 0.712318 179.464C0.741852 179.434 0.776905 179.411 0.815473 179.395C0.85404 179.379 0.89536 179.371 0.937067 179.371H197.5C197.542 179.371 197.583 179.379 197.621 179.395C197.66 179.411 197.695 179.434 197.725 179.464C197.754 179.493 197.778 179.528 197.794 179.567C197.81 179.605 197.818 179.646 197.818 179.688C197.818 179.73 197.81 179.771 197.794 179.81C197.778 179.848 197.754 179.883 197.725 179.913C197.695 179.942 197.66 179.965 197.621 179.981C197.583 179.997 197.542 180.005 197.5 180.005Z" fill="#3F3D56"/>
</g>
</g>
</g>
<defs>
<clipPath id="clip0_148_6964">
<rect width="218.772" height="180" fill="white" transform="translate(0.614258)"/>
</clipPath>
<clipPath id="clip1_148_6964">
<rect width="218.772" height="154.145" fill="white" transform="translate(0.614258 25.8555)"/>
</clipPath>
<clipPath id="clip2_148_6964">
<rect width="218.762" height="154.155" fill="white" transform="translate(0.619141 25.8516)"/>
</clipPath>
</defs>
</svg>
