<svg width="161" height="162" viewBox="0 0 161 162" fill="none" xmlns="http://www.w3.org/2000/svg">
<g clip-path="url(#clip0_148_6937)">
<g clip-path="url(#clip1_148_6937)">
<path d="M15.6665 136.624L14.2525 131.048C11.7456 129.985 9.18066 129.065 6.57004 128.292L6.39157 130.883L5.66778 128.028C2.43015 127.102 0.227539 126.695 0.227539 126.695C0.227539 126.695 3.20199 138.009 9.44275 146.658L16.7138 147.935L11.0651 148.75C11.8501 149.694 12.6938 150.589 13.591 151.427C22.6685 159.853 32.7793 163.719 36.1739 160.062C39.5684 156.405 34.9615 146.61 25.884 138.184C23.0699 135.572 19.5348 133.476 15.9961 131.826L15.6665 136.624Z" fill="#F2F2F2"/>
<path d="M29.1137 130.565L30.7859 125.061C29.1891 122.855 27.4692 120.742 25.6344 118.73L24.142 120.856L24.9982 118.038C22.7046 115.573 21.0296 114.086 21.0296 114.086C21.0296 114.086 17.7286 125.308 18.5994 135.938L24.1636 140.79L18.9061 138.567C19.0901 139.782 19.3503 140.984 19.6851 142.166C23.1005 154.071 29.7575 162.606 34.5537 161.23C39.3499 159.854 40.4694 149.088 37.054 137.183C35.9953 133.492 34.0524 129.87 31.8761 126.629L29.1137 130.565Z" fill="#F2F2F2"/>
<path d="M112.255 39.1197H111.373V14.9576C111.373 13.121 111.011 11.3025 110.309 9.60577C109.606 7.90905 108.576 6.36736 107.277 5.06874C105.978 3.77012 104.437 2.74 102.74 2.03719C101.043 1.33439 99.2247 0.972656 97.3882 0.972656H46.1958C42.4868 0.972656 38.9297 2.44606 36.307 5.06874C33.6843 7.69142 32.2109 11.2485 32.2109 14.9576V147.515C32.2109 149.351 32.5727 151.17 33.2755 152.867C33.9783 154.563 35.0084 156.105 36.307 157.404C37.6056 158.702 39.1473 159.733 40.8441 160.435C42.5408 161.138 44.3593 161.5 46.1958 161.5H97.3882C101.097 161.5 104.654 160.026 107.277 157.404C109.9 154.781 111.373 151.224 111.373 147.515V56.3187H112.255L112.255 39.1197Z" fill="#E6E6E6"/>
<path d="M97.953 4.60938H91.2713C91.5786 5.36282 91.6959 6.18027 91.6129 6.98973C91.5298 7.79918 91.2489 8.57579 90.795 9.25112C90.3411 9.92646 89.7281 10.4798 89.0099 10.8624C88.2918 11.245 87.4905 11.4451 86.6768 11.445H57.3493C56.5357 11.445 55.7345 11.2448 55.0164 10.8622C54.2983 10.4796 53.6853 9.92627 53.2315 9.25095C52.7776 8.57562 52.4968 7.79904 52.4137 6.98962C52.3307 6.1802 52.448 5.36278 52.7553 4.60938H46.5141C43.7442 4.60938 41.0878 5.7097 39.1292 7.66829C37.1706 9.62688 36.0703 12.2833 36.0703 15.0532V147.418C36.0703 150.188 37.1706 152.844 39.1292 154.803C41.0878 156.762 43.7442 157.862 46.5141 157.862H97.953C100.723 157.862 103.379 156.762 105.338 154.803C107.297 152.844 108.397 150.188 108.397 147.418V15.053C108.397 12.2831 107.296 9.62676 105.338 7.66822C103.379 5.70967 100.723 4.60937 97.953 4.60938Z" fill="white"/>
<path d="M65.6787 57.3367C65.6786 56.4115 65.9221 55.5025 66.3849 54.7014C66.8477 53.9002 67.5133 53.235 68.3148 52.7728C67.5137 52.3102 66.6049 52.0665 65.6797 52.0664C64.7546 52.0663 63.8457 52.3097 63.0445 52.7723C62.2433 53.2348 61.5779 53.9 61.1153 54.7012C60.6527 55.5024 60.4092 56.4112 60.4092 57.3364C60.4092 58.2615 60.6527 59.1704 61.1153 59.9715C61.5779 60.7727 62.2433 61.438 63.0445 61.9005C63.8457 62.363 64.7546 62.6064 65.6797 62.6063C66.6049 62.6062 67.5137 62.3626 68.3148 61.8999C67.5133 61.4378 66.8477 60.7728 66.385 59.9717C65.9222 59.1707 65.6786 58.2618 65.6787 57.3367Z" fill="#CCCCCC"/>
<path d="M72.3038 57.3367C72.3036 56.4115 72.5471 55.5025 73.0099 54.7013C73.4726 53.9001 74.1383 53.235 74.9398 52.7728C74.1387 52.3102 73.2299 52.0665 72.3047 52.0664C71.3796 52.0663 70.4707 52.3097 69.6695 52.7723C68.8683 53.2348 68.2029 53.9 67.7403 54.7012C67.2777 55.5024 67.0342 56.4112 67.0342 57.3364C67.0342 58.2615 67.2777 59.1704 67.7403 59.9715C68.2029 60.7727 68.8683 61.438 69.6695 61.9005C70.4707 62.363 71.3796 62.6064 72.3047 62.6063C73.2299 62.6062 74.1387 62.3626 74.9398 61.8999C74.1383 61.4378 73.4727 60.7728 73.01 59.9717C72.5472 59.1707 72.3036 58.2618 72.3038 57.3367Z" fill="#CCCCCC"/>
<path d="M78.7778 62.6063C81.6883 62.6063 84.0477 60.2469 84.0477 57.3364C84.0477 54.4258 81.6883 52.0664 78.7778 52.0664C75.8673 52.0664 73.5078 54.4258 73.5078 57.3364C73.5078 60.2469 75.8673 62.6063 78.7778 62.6063Z" fill="#00B0FF"/>
<path d="M87.585 73.7954H56.8705C56.5781 73.795 56.2978 73.6787 56.091 73.4719C55.8842 73.2652 55.7679 72.9848 55.7676 72.6924V41.9779C55.7679 41.6855 55.8842 41.4052 56.091 41.1984C56.2978 40.9917 56.5781 40.8753 56.8705 40.875H87.585C87.8774 40.8753 88.1578 40.9917 88.3645 41.1984C88.5713 41.4052 88.6876 41.6855 88.6879 41.9779V72.6924C88.6876 72.9848 88.5713 73.2652 88.3645 73.4719C88.1578 73.6787 87.8774 73.795 87.585 73.7954ZM56.8705 41.3164C56.6951 41.3166 56.5268 41.3864 56.4028 41.5104C56.2787 41.6345 56.209 41.8027 56.2088 41.9781V72.6927C56.209 72.8681 56.2787 73.0363 56.4028 73.1604C56.5268 73.2844 56.6951 73.3542 56.8705 73.3544H87.585C87.7605 73.3542 87.9287 73.2844 88.0527 73.1604C88.1768 73.0363 88.2466 72.8681 88.2467 72.6927V41.9781C88.2466 41.8027 88.1768 41.6345 88.0527 41.5104C87.9287 41.3864 87.7605 41.3166 87.585 41.3164H56.8705Z" fill="#CCCCCC"/>
<path d="M94.4437 97.3398H47.3369V97.7811H94.4437V97.3398Z" fill="#CCCCCC"/>
<path d="M48.8246 94.5886C49.6462 94.5886 50.3122 93.9226 50.3122 93.1009C50.3122 92.2793 49.6462 91.6133 48.8246 91.6133C48.003 91.6133 47.3369 92.2793 47.3369 93.1009C47.3369 93.9226 48.003 94.5886 48.8246 94.5886Z" fill="#00B0FF"/>
<path d="M94.4437 112.219H47.3369V112.66H94.4437V112.219Z" fill="#CCCCCC"/>
<path d="M48.8246 109.464C49.6462 109.464 50.3122 108.798 50.3122 107.976C50.3122 107.154 49.6462 106.488 48.8246 106.488C48.003 106.488 47.3369 107.154 47.3369 107.976C47.3369 108.798 48.003 109.464 48.8246 109.464Z" fill="#00B0FF"/>
<path d="M93.5816 129.158H78.6945C78.4374 129.157 78.1908 129.055 78.009 128.873C77.8272 128.691 77.7249 128.445 77.7246 128.188V122.97C77.7249 122.713 77.8272 122.466 78.009 122.284C78.1908 122.103 78.4374 122 78.6945 122H93.5816C93.8387 122 94.0853 122.103 94.2671 122.284C94.4489 122.466 94.5512 122.713 94.5515 122.97V128.188C94.5512 128.445 94.4489 128.691 94.2671 128.873C94.0853 129.055 93.8387 129.157 93.5816 129.158Z" fill="#00B0FF"/>
<path d="M53.6771 94.5886C54.4987 94.5886 55.1648 93.9226 55.1648 93.1009C55.1648 92.2793 54.4987 91.6133 53.6771 91.6133C52.8555 91.6133 52.1895 92.2793 52.1895 93.1009C52.1895 93.9226 52.8555 94.5886 53.6771 94.5886Z" fill="#00B0FF"/>
<path d="M58.5297 94.5886C59.3513 94.5886 60.0173 93.9226 60.0173 93.1009C60.0173 92.2793 59.3513 91.6133 58.5297 91.6133C57.708 91.6133 57.042 92.2793 57.042 93.1009C57.042 93.9226 57.708 94.5886 58.5297 94.5886Z" fill="#00B0FF"/>
<path d="M53.6771 109.464C54.4987 109.464 55.1648 108.798 55.1648 107.976C55.1648 107.154 54.4987 106.488 53.6771 106.488C52.8555 106.488 52.1895 107.154 52.1895 107.976C52.1895 108.798 52.8555 109.464 53.6771 109.464Z" fill="#00B0FF"/>
<path d="M58.5297 109.464C59.3513 109.464 60.0173 108.798 60.0173 107.976C60.0173 107.154 59.3513 106.488 58.5297 106.488C57.708 106.488 57.042 107.154 57.042 107.976C57.042 108.798 57.708 109.464 58.5297 109.464Z" fill="#00B0FF"/>
<path d="M160.172 161.998H5.41702C5.08573 161.998 4.81738 161.88 4.81738 161.735C4.81738 161.591 5.08573 161.473 5.41702 161.473H160.172C160.503 161.473 160.772 161.59 160.772 161.735C160.772 161.88 160.503 161.998 160.172 161.998Z" fill="#3F3D56"/>
<path d="M121.939 106.472C122.044 106.52 122.146 106.577 122.243 106.642L131.91 102.516L132.255 99.9689L136.118 99.9453L135.89 105.786L123.13 109.161C123.103 109.249 123.071 109.336 123.034 109.421C122.849 109.815 122.552 110.145 122.181 110.371C121.809 110.596 121.379 110.707 120.945 110.689C120.51 110.671 120.091 110.525 119.739 110.269C119.388 110.014 119.119 109.66 118.968 109.253C118.817 108.845 118.789 108.402 118.889 107.979C118.989 107.556 119.211 107.171 119.529 106.874C119.846 106.577 120.244 106.381 120.673 106.309C121.102 106.237 121.542 106.294 121.939 106.472Z" fill="#FFB8B8"/>
<path d="M137.522 159.4H134.879L133.622 149.207L137.522 149.207L137.522 159.4Z" fill="#FFB8B8"/>
<path d="M132.993 158.645H138.089V161.853H129.784C129.784 161.002 130.122 160.186 130.724 159.584C131.326 158.983 132.142 158.645 132.993 158.645Z" fill="#2F2E41"/>
<path d="M147.799 158.651L145.169 158.91L142.919 148.89L146.8 148.508L147.799 158.651Z" fill="#FFB8B8"/>
<path d="M143.218 158.346L148.289 157.846L148.604 161.039L140.339 161.853C140.298 161.434 140.339 161.011 140.462 160.607C140.584 160.204 140.785 159.829 141.052 159.503C141.319 159.178 141.648 158.908 142.02 158.709C142.391 158.51 142.798 158.387 143.218 158.346Z" fill="#2F2E41"/>
<path d="M138.257 89.1581C141.181 89.1581 143.551 86.7879 143.551 83.8642C143.551 80.9405 141.181 78.5703 138.257 78.5703C135.333 78.5703 132.963 80.9405 132.963 83.8642C132.963 86.7879 135.333 89.1581 138.257 89.1581Z" fill="#FFB8B8"/>
<path d="M134.289 157.338C134.062 157.338 133.842 157.259 133.668 157.113C133.494 156.967 133.377 156.764 133.338 156.541C131.97 148.948 127.499 124.122 127.392 123.435C127.39 123.419 127.389 123.403 127.389 123.387V121.536C127.389 121.468 127.41 121.403 127.449 121.348L128.04 120.521C128.068 120.481 128.104 120.448 128.147 120.425C128.19 120.401 128.237 120.388 128.286 120.386C131.653 120.228 142.681 119.765 143.213 120.431C143.748 121.1 143.559 123.127 143.516 123.526L143.518 123.568L148.472 155.251C148.511 155.504 148.449 155.762 148.299 155.969C148.149 156.176 147.924 156.316 147.672 156.358L144.577 156.868C144.347 156.905 144.111 156.858 143.912 156.736C143.713 156.613 143.565 156.424 143.494 156.201C142.537 153.143 139.328 142.855 138.216 138.875C138.209 138.849 138.193 138.828 138.171 138.813C138.149 138.799 138.123 138.793 138.097 138.797C138.071 138.8 138.047 138.813 138.03 138.833C138.013 138.853 138.004 138.878 138.004 138.905C138.06 142.699 138.194 152.381 138.241 155.725L138.246 156.085C138.248 156.329 138.158 156.564 137.995 156.745C137.832 156.926 137.606 157.04 137.364 157.063L134.38 157.334C134.349 157.336 134.319 157.338 134.289 157.338Z" fill="#2F2E41"/>
<path d="M134.899 91.2386C133.975 91.7878 133.422 92.797 133.105 93.824C132.517 95.7253 132.164 97.6911 132.052 99.678L131.717 105.627L127.566 121.398C131.163 124.442 133.238 123.75 138.081 121.26C142.923 118.771 143.476 122.09 143.476 122.09L144.444 108.671L145.828 94.0075C145.517 93.6335 145.166 93.2956 144.78 93C143.501 92.0057 142.013 91.3145 140.429 90.9787C138.844 90.6428 137.204 90.671 135.632 91.0611L134.899 91.2386Z" fill="#00B0FF"/>
<path d="M133.55 109.657C133.662 109.699 133.77 109.749 133.874 109.808L143.432 105.024L143.591 102.432L147.534 102.16L147.746 108.069L134.971 112.293C134.867 112.741 134.629 113.146 134.289 113.454C133.949 113.763 133.523 113.961 133.067 114.022C132.612 114.083 132.149 114.003 131.74 113.794C131.331 113.586 130.995 113.257 130.777 112.853C130.559 112.448 130.469 111.987 130.52 111.531C130.57 111.074 130.758 110.644 131.059 110.297C131.361 109.95 131.76 109.703 132.205 109.588C132.65 109.474 133.119 109.498 133.55 109.657Z" fill="#FFB8B8"/>
<path d="M145.758 94.0745C148.11 94.9046 148.524 103.898 148.524 103.898C145.757 102.376 142.437 104.866 142.437 104.866C142.437 104.866 141.745 102.514 140.915 99.4705C140.665 98.6144 140.635 97.7088 140.828 96.838C141.022 95.9672 141.432 95.1596 142.022 94.4902C142.022 94.4902 143.406 93.2439 145.758 94.0745Z" fill="#00B0FF"/>
<path d="M143.005 85.2621C142.346 84.7344 141.446 85.6936 141.446 85.6936L140.918 80.9445C140.918 80.9445 137.62 81.3395 135.51 80.8126C133.399 80.2858 133.069 82.7256 133.069 82.7256C132.96 81.74 132.938 80.7468 133.003 79.7574C133.135 78.5701 134.85 77.3828 137.884 76.5913C140.918 75.7997 142.501 79.2297 142.501 79.2297C144.612 80.2849 143.665 85.7899 143.005 85.2621Z" fill="#2F2E41"/>
</g>
</g>
<defs>
<clipPath id="clip0_148_6937">
<rect width="160.545" height="161.027" fill="white" transform="translate(0.227539 0.972656)"/>
</clipPath>
<clipPath id="clip1_148_6937">
<rect width="160.545" height="161.025" fill="white" transform="translate(0.227539 0.972656)"/>
</clipPath>
</defs>
</svg>
