<svg width="498" height="468" viewBox="0 0 498 468" fill="none" xmlns="http://www.w3.org/2000/svg">
<g clip-path="url(#clip0_148_7206)">
<path d="M399.116 362.415C395.061 362.415 391.097 361.214 387.725 358.963C384.353 356.711 381.725 353.512 380.173 349.768C378.621 346.025 378.215 341.906 379.006 337.932C379.797 333.957 381.75 330.307 384.618 327.442C387.485 324.577 391.139 322.626 395.116 321.835C399.094 321.045 403.216 321.45 406.963 323.001C410.71 324.551 413.912 327.177 416.165 330.546C418.418 333.915 419.621 337.876 419.621 341.928C419.614 347.36 417.452 352.567 413.608 356.408C409.764 360.249 404.553 362.409 399.116 362.415Z" fill="#CCCCCC"/>
<path d="M408.58 341.137H399.905V331.288C399.905 331.079 399.822 330.879 399.674 330.731C399.526 330.583 399.325 330.5 399.116 330.5C398.907 330.5 398.707 330.583 398.559 330.731C398.411 330.879 398.328 331.079 398.328 331.288V341.137H389.653C389.444 341.137 389.243 341.22 389.095 341.368C388.947 341.516 388.864 341.716 388.864 341.925C388.864 342.134 388.947 342.335 389.095 342.483C389.243 342.63 389.444 342.713 389.653 342.713H398.328V352.563C398.328 352.772 398.411 352.972 398.559 353.12C398.707 353.268 398.907 353.351 399.116 353.351C399.325 353.351 399.526 353.268 399.674 353.12C399.822 352.972 399.905 352.772 399.905 352.563V342.713H408.58C408.789 342.713 408.989 342.63 409.137 342.483C409.285 342.335 409.368 342.134 409.368 341.925C409.368 341.716 409.285 341.516 409.137 341.368C408.989 341.22 408.789 341.137 408.58 341.137Z" fill="white"/>
<path d="M478.077 458.418L469.061 458.418L464.774 423.672L478.08 423.673L478.077 458.418Z" fill="#FFB8B8"/>
<path d="M462.621 455.844H480.009V466.782H451.674C451.674 465.346 451.957 463.923 452.507 462.596C453.057 461.269 453.864 460.063 454.88 459.048C455.897 458.032 457.104 457.226 458.432 456.676C459.76 456.127 461.184 455.844 462.621 455.844Z" fill="#2F2E41"/>
<path d="M442.195 458.418L433.18 458.418L428.893 423.672L442.198 423.673L442.195 458.418Z" fill="#FFB8B8"/>
<path d="M426.74 455.844H444.127V466.782H415.792C415.792 465.346 416.075 463.923 416.625 462.596C417.175 461.269 417.982 460.063 418.998 459.048C420.015 458.032 421.222 457.226 422.55 456.676C423.878 456.127 425.302 455.844 426.74 455.844Z" fill="#2F2E41"/>
<path d="M485.022 338.292C484.297 337.491 483.756 336.541 483.437 335.509C483.119 334.477 483.031 333.387 483.18 332.317C483.328 331.247 483.71 330.223 484.297 329.316C484.885 328.41 485.664 327.643 486.581 327.07L483.788 310.418L493.503 306.254L497.115 329.825C497.977 331.427 498.22 333.289 497.8 335.059C497.379 336.828 496.323 338.382 494.833 339.425C493.342 340.469 491.52 340.93 489.712 340.721C487.904 340.512 486.235 339.648 485.022 338.292Z" fill="#FFB8B8"/>
<path d="M408.97 330.423C409.818 329.753 410.508 328.906 410.993 327.94C411.478 326.975 411.745 325.915 411.775 324.835C411.806 323.755 411.599 322.682 411.169 321.691C410.739 320.7 410.097 319.815 409.288 319.098L414.796 303.136L405.903 297.426L398.443 320.077C397.328 321.515 396.78 323.311 396.903 325.126C397.025 326.94 397.809 328.647 399.107 329.922C400.404 331.197 402.125 331.953 403.943 332.045C405.761 332.138 407.549 331.56 408.97 330.423Z" fill="#FFB8B8"/>
<path d="M455.144 212.831C465.841 212.831 474.513 204.166 474.513 193.478C474.513 182.79 465.841 174.125 455.144 174.125C444.446 174.125 435.774 182.79 435.774 193.478C435.774 204.166 444.446 212.831 455.144 212.831Z" fill="#FFB8B8"/>
<path d="M408.371 318.482C408.039 318.481 407.708 318.435 407.389 318.343L401.744 316.723C400.842 316.463 400.08 315.857 399.624 315.038C399.168 314.218 399.054 313.252 399.309 312.349L410.959 271.248L427.207 231.397C428.822 227.435 432.198 224.837 436.015 224.616C437.759 224.531 439.49 224.953 440.999 225.831C442.507 226.709 443.729 228.005 444.515 229.562C445.389 231.229 445.869 233.074 445.918 234.955C445.967 236.836 445.583 238.703 444.797 240.413L426.33 280.764L411.649 316.288C411.381 316.937 410.927 317.492 410.343 317.882C409.76 318.273 409.073 318.481 408.371 318.482Z" fill="#3F3D56"/>
<path d="M466.074 209.706L455.312 209.897C454.191 209.919 453.081 209.678 452.07 209.192C451.06 208.707 450.178 207.991 449.495 207.102C448.812 206.213 448.348 205.177 448.14 204.076C447.932 202.975 447.985 201.841 448.297 200.765C448.527 199.987 448.699 199.194 448.814 198.391C448.935 197.515 448.958 196.629 448.884 195.748C448.816 194.866 448.45 194.034 447.846 193.387C447.242 192.74 446.436 192.318 445.56 192.189C444.684 192.06 443.791 192.232 443.026 192.677C442.261 193.122 441.67 193.814 441.35 194.639C439.54 194.664 435.685 194.075 433.875 194.101C430.033 184.259 438.406 171.381 447.419 166.544C456.607 161.613 468.534 166.63 472.057 176.907C476.945 176.995 480.916 181.812 481.546 187.235C482.176 192.657 479.944 198.319 476.528 202.475C473.113 206.631 468.628 209.66 466.074 209.706Z" fill="#2F2E41"/>
<path d="M430.698 455.173C429.826 455.168 428.986 454.844 428.338 454.261C427.689 453.679 427.277 452.879 427.18 452.013L423.187 317.875L473.491 321.453L473.529 321.776C484.897 416.853 481.011 449.765 480.97 450.086C480.943 450.573 480.815 451.048 480.594 451.483C480.374 451.918 480.067 452.303 479.691 452.613C479.316 452.924 478.88 453.154 478.411 453.289C477.943 453.424 477.451 453.461 476.968 453.398L465.851 453.664C465.008 453.569 464.227 453.175 463.65 452.554C463.073 451.933 462.738 451.126 462.705 450.279L452.318 353.124C452.254 352.872 452.103 352.65 451.891 352.498C451.68 352.346 451.422 352.273 451.162 352.292C450.894 352.291 450.635 352.383 450.428 352.552C450.221 352.722 450.079 352.957 450.027 353.22L446.014 450.693C446.056 451.598 445.749 452.484 445.156 453.169C444.563 453.854 443.729 454.285 442.827 454.373L431.051 455.155C430.934 455.167 430.816 455.173 430.698 455.173Z" fill="#2F2E41"/>
<path d="M451.572 333.901C451.271 333.901 450.971 333.896 450.669 333.887C436.204 333.452 424.888 322.518 421.764 319.176C421.366 318.751 421.08 318.233 420.931 317.669C420.783 317.106 420.776 316.515 420.911 315.948L429.256 280.676L427.042 250.011C426.694 245.755 427.253 241.474 428.681 237.449C430.109 233.425 432.374 229.748 435.327 226.661C437.788 224.064 440.778 222.026 444.097 220.684C447.415 219.343 450.983 218.73 454.559 218.887C468.639 219.559 479.748 232.134 479.849 247.516C480.004 271.34 479.302 272.976 479.072 273.514C472.045 289.901 475.883 312.904 477.226 319.564C477.346 320.158 477.312 320.773 477.128 321.35C476.943 321.928 476.614 322.448 476.172 322.863C468.443 330.19 460.171 333.901 451.572 333.901Z" fill="#3F3D56"/>
<path d="M487.899 324.937C487.096 324.936 486.318 324.664 485.69 324.164C485.063 323.664 484.623 322.966 484.445 322.184L475.835 284.711L464.297 241.879C463.805 240.063 463.735 238.159 464.094 236.311C464.453 234.464 465.232 232.724 466.369 231.224C467.403 229.819 468.822 228.743 470.455 228.126C472.087 227.509 473.864 227.379 475.57 227.749C479.299 228.597 482.198 231.717 483.136 235.891L492.564 277.833L497.266 320.336C497.368 321.268 497.096 322.203 496.51 322.935C495.925 323.668 495.073 324.14 494.141 324.248L488.306 324.914C488.171 324.929 488.035 324.937 487.899 324.937Z" fill="#3F3D56"/>
<path d="M24.3149 328.98C25.3364 328.28 26.192 327.365 26.8214 326.299C27.4507 325.233 27.8385 324.042 27.9574 322.811C28.0764 321.579 27.9236 320.336 27.5098 319.17C27.096 318.003 26.4312 316.942 25.5624 316.06L28.8487 242.766L12.1177 244.642L13.0897 316.334C11.7037 317.891 10.9372 319.901 10.9355 321.985C10.9339 324.068 11.6972 326.08 13.0809 327.638C14.4645 329.197 16.3724 330.195 18.4429 330.442C20.5134 330.689 22.6027 330.169 24.3149 328.98Z" fill="#FFB8B8"/>
<path d="M54.8359 453.05L64.3585 454.723L73.7699 418.82L61.2932 416.352L54.8359 453.05Z" fill="#FFB8B8"/>
<path d="M81.168 466.781L51.2408 461.524L53.2736 449.971L71.6379 453.197C73.1564 453.464 74.6074 454.027 75.9081 454.854C77.2088 455.681 78.3337 456.756 79.2187 458.017C80.1036 459.279 80.7312 460.702 81.0657 462.205C81.4002 463.709 81.4349 465.264 81.168 466.781Z" fill="#2F2E41"/>
<path d="M28.6998 457.812H38.3683L42.9675 420.551L28.6982 420.552L28.6998 457.812Z" fill="#FFB8B8"/>
<path d="M57.0146 466.781L26.6285 466.783L26.628 455.052L45.274 455.052C48.3877 455.051 51.3739 456.287 53.5757 458.487C55.7775 460.687 57.0145 463.67 57.0146 466.781Z" fill="#2F2E41"/>
<path d="M69.8287 447.609C69.6778 447.609 69.527 447.6 69.3772 447.582L57.9974 446.647C57.4793 446.586 56.979 446.42 56.5268 446.16C56.0747 445.9 55.6802 445.551 55.3673 445.134C55.0544 444.717 54.8296 444.241 54.7065 443.734C54.5835 443.227 54.5649 442.701 54.6517 442.187L65.1598 383.342L58.0594 345.934C58.0015 345.63 57.8356 345.358 57.5922 345.166C57.3489 344.975 57.0445 344.878 56.7353 344.894C56.426 344.909 56.1328 345.036 55.9096 345.25C55.6864 345.464 55.5483 345.752 55.5209 346.06L46.6443 445.838C46.5468 446.839 46.0639 447.763 45.2974 448.415C44.5309 449.068 43.5408 449.397 42.536 449.334L31.8148 448.935C30.8753 448.868 29.9926 448.461 29.3335 447.788C28.6744 447.116 28.2844 446.226 28.2373 445.286L27.5166 325.699L83.0995 318.758L86.9823 378.675L86.9669 378.738L73.5677 444.67C73.3635 445.508 72.8842 446.252 72.2063 446.785C71.5284 447.318 70.6912 447.608 69.8287 447.609Z" fill="#2F2E41"/>
<path d="M45.842 195.269C56.5394 195.269 65.2113 186.604 65.2113 175.916C65.2113 165.227 56.5394 156.562 45.842 156.562C35.1446 156.562 26.4727 165.227 26.4727 175.916C26.4727 186.604 35.1446 195.269 45.842 195.269Z" fill="#FFB8B8"/>
<path d="M64.0922 334.439C61.0629 334.457 58.0917 333.608 55.5302 331.992C46.1477 326.133 35.4909 328.462 29.9735 330.371C29.426 330.563 28.8423 330.628 28.2659 330.563C27.6896 330.497 27.1355 330.302 26.6452 329.992C26.1604 329.688 25.7508 329.279 25.447 328.794C25.1432 328.309 24.9531 327.762 24.891 327.194L14.8577 237.662C13.1764 222.661 22.2202 208.557 36.3616 204.127C36.8928 203.96 37.4331 203.802 37.9823 203.653C42.383 202.461 46.9917 202.247 51.4841 203.026C55.9765 203.805 60.2434 205.558 63.9847 208.162C67.7956 210.795 70.9826 214.23 73.3216 218.226C75.6606 222.222 77.0946 226.682 77.5228 231.291L85.9693 321.423C86.0268 322.007 85.948 322.595 85.739 323.143C85.53 323.691 85.1965 324.183 84.7649 324.58C81.8041 327.317 73.2103 334.438 64.0922 334.439Z" fill="#00B0FF"/>
<path d="M33.5408 256.862L10.9047 254.375C10.2607 254.304 9.63944 254.095 9.08335 253.763C8.52727 253.431 8.0494 252.983 7.68228 252.449C7.31516 251.916 7.06741 251.31 6.95592 250.672C6.84443 250.034 6.87182 249.38 7.03621 248.754L12.7979 226.812C13.1789 223.522 14.8502 220.516 17.4454 218.455C20.0406 216.394 23.3479 215.446 26.6421 215.817C29.9363 216.189 32.9486 217.851 35.0184 220.438C37.0883 223.025 38.0468 226.327 37.6839 229.62L38.5393 252.215C38.5635 252.862 38.448 253.506 38.2005 254.104C37.953 254.703 37.5793 255.241 37.105 255.682C36.6306 256.123 36.0667 256.456 35.4516 256.66C34.8366 256.864 34.1848 256.932 33.5408 256.862Z" fill="#00B0FF"/>
<path d="M85.8789 325.839C86.8086 325.021 87.5476 324.01 88.0438 322.876C88.54 321.742 88.7813 320.513 88.7508 319.276C88.7203 318.039 88.4187 316.823 87.8673 315.715C87.3158 314.607 86.5279 313.634 85.559 312.863L79.9811 239.707L63.5869 243.394L73.2103 314.637C72.0221 316.349 71.5037 318.437 71.7534 320.506C72.003 322.574 73.0034 324.479 74.565 325.86C76.1266 327.241 78.1408 328.001 80.226 327.997C82.3113 327.993 84.3226 327.225 85.8789 325.839Z" fill="#FFB8B8"/>
<path d="M57.3016 252.264C56.827 251.823 56.4533 251.285 56.2058 250.686C55.9583 250.088 55.8429 249.444 55.8675 248.797L56.7229 226.202C56.3599 222.909 57.3185 219.607 59.3883 217.02C61.4582 214.433 64.4705 212.771 67.7647 212.399C71.0588 212.028 74.3661 212.976 76.9613 215.037C79.5565 217.098 81.2278 220.104 81.6088 223.394L87.3706 245.336C87.5349 245.962 87.5623 246.616 87.4508 247.254C87.3394 247.892 87.0916 248.498 86.7245 249.031C86.3574 249.565 85.8795 250.013 85.3234 250.345C84.7673 250.678 84.1461 250.886 83.502 250.957L60.866 253.444C60.2219 253.515 59.57 253.446 58.9548 253.242C58.3397 253.039 57.7757 252.705 57.3016 252.264Z" fill="#00B0FF"/>
<path d="M44.69 195.999C44.3457 195.998 44.0026 195.958 43.6675 195.88L43.5691 195.856C26.5393 193.253 22.7758 183.397 21.9496 179.281C21.0946 175.019 22.0682 170.906 24.2683 169.309C23.0688 165.524 23.2614 162.169 24.8419 159.332C27.5984 154.383 33.5806 152.71 34.3829 152.505C39.1605 148.983 44.8766 151.334 45.9167 151.811C55.1581 148.395 58.6903 151.238 59.3292 151.873C63.4602 152.615 65.9782 154.209 66.8141 156.613C68.3843 161.129 63.4188 166.746 63.2066 166.983L63.0965 167.106L55.6991 167.458C54.9972 167.492 54.3102 167.672 53.6825 167.988C53.0549 168.304 52.5008 168.748 52.056 169.292C51.6113 169.835 51.2858 170.466 51.1008 171.143C50.9159 171.821 50.8755 172.53 50.9822 173.223C51.1825 174.119 51.4354 175.002 51.7397 175.867C53.003 179.812 53.9496 183.182 52.7287 184.463C52.4521 184.711 52.1112 184.876 51.7451 184.94C51.379 185.003 51.0024 184.962 50.6584 184.822C49.5019 184.513 48.7165 184.578 48.3253 185.015C47.7178 185.692 47.9032 187.406 48.8474 189.841C49.1437 190.611 49.2234 191.448 49.078 192.26C48.9326 193.072 48.5677 193.829 48.0226 194.449C47.6122 194.932 47.1018 195.321 46.5265 195.589C45.9512 195.857 45.3246 195.996 44.69 195.999Z" fill="#2F2E41"/>
<path d="M111.195 468.002H0.78862C0.579465 468.002 0.378864 467.919 0.230969 467.771C0.0830739 467.623 0 467.423 0 467.214C0 467.005 0.0830739 466.804 0.230969 466.657C0.378864 466.509 0.579465 466.426 0.78862 466.426H111.195C111.405 466.426 111.605 466.509 111.753 466.657C111.901 466.804 111.984 467.005 111.984 467.214C111.984 467.423 111.901 467.623 111.753 467.771C111.605 467.919 111.405 468.002 111.195 468.002Z" fill="#CCCCCC"/>
<path d="M496.042 468.002H385.635C385.426 468.002 385.226 467.919 385.078 467.771C384.93 467.623 384.847 467.423 384.847 467.214C384.847 467.005 384.93 466.804 385.078 466.657C385.226 466.509 385.426 466.426 385.635 466.426H496.042C496.251 466.426 496.452 466.509 496.6 466.657C496.748 466.804 496.831 467.005 496.831 467.214C496.831 467.423 496.748 467.623 496.6 467.771C496.452 467.919 496.251 468.002 496.042 468.002Z" fill="#CCCCCC"/>
<path d="M338.091 334.094H147.245C139.927 334.086 132.912 331.177 127.737 326.007C122.563 320.837 119.652 313.827 119.644 306.515V27.5785C119.652 20.2668 122.563 13.2569 127.737 8.08672C132.912 2.91655 139.927 0.00829825 147.245 0H338.091C345.409 0.00829825 352.425 2.91655 357.6 8.08672C362.774 13.2569 365.685 20.2668 365.693 27.5785V306.515C365.685 313.827 362.774 320.837 357.6 326.007C352.425 331.177 345.409 334.086 338.091 334.094Z" fill="white"/>
<path d="M308.124 221.44H177.213C163.841 221.376 163.785 201.023 177.214 200.953L308.124 200.953C321.487 201.016 321.56 221.37 308.124 221.44Z" fill="#CCCCCC"/>
<path d="M308.124 57.4986H177.213C163.841 57.4342 163.785 37.0814 177.214 37.0118L308.124 37.0117C321.487 37.0743 321.56 57.4286 308.124 57.4986Z" fill="#CCCCCC"/>
<path d="M308.124 259.26H177.213C163.841 259.196 163.785 238.843 177.214 238.773L308.124 238.773C321.487 238.836 321.56 259.19 308.124 259.26Z" fill="#CCCCCC"/>
<path d="M308.124 297.085H177.213C163.841 297.02 163.785 276.667 177.214 276.598L308.124 276.598C321.487 276.66 321.56 297.015 308.124 297.085Z" fill="#CCCCCC"/>
<path d="M305.758 176.369H179.579C176.129 176.365 172.821 174.994 170.382 172.557C167.942 170.119 166.57 166.815 166.566 163.368V92.7669C166.57 89.32 167.942 86.0153 170.382 83.5779C172.821 81.1405 176.129 79.7695 179.579 79.7656H305.758C309.208 79.7695 312.515 81.1405 314.955 83.5779C317.394 86.0153 318.766 89.32 318.77 92.7669V163.368C318.766 166.815 317.394 170.119 314.955 172.557C312.515 174.994 309.208 176.365 305.758 176.369Z" fill="#00B0FF"/>
<path d="M338.091 334.094H147.245C139.927 334.086 132.912 331.177 127.737 326.007C122.563 320.837 119.652 313.827 119.644 306.515V27.5785C119.652 20.2668 122.563 13.2569 127.737 8.08672C132.912 2.91655 139.927 0.00829825 147.245 0H338.091C345.409 0.00829825 352.425 2.91655 357.6 8.08672C362.774 13.2569 365.685 20.2668 365.693 27.5785V306.515C365.685 313.827 362.774 320.837 357.6 326.007C352.425 331.177 345.409 334.086 338.091 334.094ZM147.245 4.72774C141.182 4.73459 135.369 7.14428 131.081 11.4281C126.794 15.712 124.382 21.5202 124.375 27.5785V306.515C124.382 312.574 126.794 318.382 131.081 322.666C135.369 326.95 141.182 329.359 147.245 329.366H338.091C344.155 329.359 349.968 326.95 354.255 322.666C358.543 318.382 360.954 312.574 360.961 306.515V27.5785C360.954 21.5202 358.543 15.712 354.255 11.4281C349.968 7.14425 344.155 4.73458 338.091 4.72774H147.245Z" fill="#E6E6E6"/>
</g>
<defs>
<clipPath id="clip0_148_7206">
<rect width="498" height="468" fill="white"/>
</clipPath>
</defs>
</svg>
