<svg width="502" height="341" viewBox="0 0 502 341" fill="none" xmlns="http://www.w3.org/2000/svg">
<rect x="98.7793" width="40" height="3" fill="#00587A"/>
<mask id="mask0_1790_8738" style="mask-type:alpha" maskUnits="userSpaceOnUse" x="0" y="30" width="502" height="311">
<path d="M5.02 92.444L391.56 30.5V256.596L0 318.54L5.02 92.444Z" fill="black"/>
</mask>
<g mask="url(#mask0_1790_8738)">
<rect opacity="0.1" x="-0.220703" y="9" width="502" height="309.72" fill="url(#paint0_linear_1790_8738)"/>
</g>
<path d="M120.499 64.28C120.499 66.6 119.699 68.5333 118.099 70.08C116.526 71.6 114.113 72.36 110.859 72.36H105.499V84H101.859V56.12H110.859C114.006 56.12 116.393 56.88 118.019 58.4C119.673 59.92 120.499 61.88 120.499 64.28ZM110.859 69.36C112.886 69.36 114.379 68.92 115.339 68.04C116.299 67.16 116.779 65.9067 116.779 64.28C116.779 60.84 114.806 59.12 110.859 59.12H105.499V69.36H110.859ZM128.663 81.04H138.423V84H125.023V56.12H128.663V81.04ZM164.209 84H160.569L145.929 61.8V84H142.289V56.08H145.929L160.569 78.24V56.08H164.209V84ZM185.094 84L178.454 72.6H174.054V84H170.414V56.12H179.414C181.521 56.12 183.294 56.48 184.734 57.2C186.201 57.92 187.294 58.8933 188.014 60.12C188.734 61.3467 189.094 62.7467 189.094 64.32C189.094 66.24 188.534 67.9333 187.414 69.4C186.321 70.8667 184.667 71.84 182.454 72.32L189.454 84H185.094ZM174.054 69.68H179.414C181.387 69.68 182.867 69.2 183.854 68.24C184.841 67.2533 185.334 65.9467 185.334 64.32C185.334 62.6667 184.841 61.3867 183.854 60.48C182.894 59.5733 181.414 59.12 179.414 59.12H174.054V69.68ZM119.539 102.92V108.4H108.099V114.32H116.659V119.64H108.099V131H101.259V102.92H119.539ZM129.974 112.4C130.774 111.173 131.774 110.213 132.974 109.52C134.174 108.8 135.508 108.44 136.974 108.44V115.68H135.094C133.388 115.68 132.108 116.053 131.254 116.8C130.401 117.52 129.974 118.8 129.974 120.64V131H123.134V108.68H129.974V112.4ZM161.284 119.48C161.284 120.12 161.244 120.787 161.164 121.48H145.684C145.79 122.867 146.23 123.933 147.004 124.68C147.804 125.4 148.777 125.76 149.924 125.76C151.63 125.76 152.817 125.04 153.484 123.6H160.764C160.39 125.067 159.71 126.387 158.724 127.56C157.764 128.733 156.55 129.653 155.084 130.32C153.617 130.987 151.977 131.32 150.164 131.32C147.977 131.32 146.03 130.853 144.324 129.92C142.617 128.987 141.284 127.653 140.324 125.92C139.364 124.187 138.884 122.16 138.884 119.84C138.884 117.52 139.35 115.493 140.284 113.76C141.244 112.027 142.577 110.693 144.284 109.76C145.99 108.827 147.95 108.36 150.164 108.36C152.324 108.36 154.244 108.813 155.924 109.72C157.604 110.627 158.91 111.92 159.844 113.6C160.804 115.28 161.284 117.24 161.284 119.48ZM154.284 117.68C154.284 116.507 153.884 115.573 153.084 114.88C152.284 114.187 151.284 113.84 150.084 113.84C148.937 113.84 147.964 114.173 147.164 114.84C146.39 115.507 145.91 116.453 145.724 117.68H154.284ZM163.532 119.88C163.532 117.667 163.985 115.693 164.892 113.96C165.825 112.227 167.065 110.88 168.612 109.92C170.185 108.933 171.892 108.44 173.732 108.44C175.145 108.44 176.412 108.693 177.532 109.2C178.652 109.68 179.559 110.36 180.252 111.24V108.68H187.092V141.64H180.252V128.2C179.479 129.133 178.532 129.88 177.412 130.44C176.319 131 175.065 131.28 173.652 131.28C171.839 131.28 170.159 130.8 168.612 129.84C167.065 128.88 165.825 127.533 164.892 125.8C163.985 124.067 163.532 122.093 163.532 119.88ZM180.252 119.84C180.252 118.64 180.012 117.64 179.532 116.84C179.079 116.013 178.479 115.4 177.732 115C176.985 114.573 176.199 114.36 175.372 114.36C174.572 114.36 173.799 114.573 173.052 115C172.305 115.4 171.692 116.013 171.212 116.84C170.732 117.667 170.492 118.68 170.492 119.88C170.492 121.08 170.732 122.093 171.212 122.92C171.692 123.72 172.305 124.333 173.052 124.76C173.799 125.16 174.572 125.36 175.372 125.36C176.172 125.36 176.945 125.16 177.692 124.76C178.465 124.333 179.079 123.707 179.532 122.88C180.012 122.053 180.252 121.04 180.252 119.84ZM214.081 108.68V131H207.241V127.96C206.547 128.947 205.601 129.747 204.401 130.36C203.227 130.947 201.921 131.24 200.481 131.24C198.774 131.24 197.267 130.867 195.961 130.12C194.654 129.347 193.641 128.24 192.921 126.8C192.201 125.36 191.841 123.667 191.841 121.72V108.68H198.641V120.8C198.641 122.293 199.027 123.453 199.801 124.28C200.574 125.107 201.614 125.52 202.921 125.52C204.254 125.52 205.307 125.107 206.081 124.28C206.854 123.453 207.241 122.293 207.241 120.8V108.68H214.081ZM240.034 119.48C240.034 120.12 239.994 120.787 239.914 121.48H224.434C224.54 122.867 224.98 123.933 225.754 124.68C226.554 125.4 227.527 125.76 228.674 125.76C230.38 125.76 231.567 125.04 232.234 123.6H239.514C239.14 125.067 238.46 126.387 237.474 127.56C236.514 128.733 235.3 129.653 233.834 130.32C232.367 130.987 230.727 131.32 228.914 131.32C226.727 131.32 224.78 130.853 223.074 129.92C221.367 128.987 220.034 127.653 219.074 125.92C218.114 124.187 217.634 122.16 217.634 119.84C217.634 117.52 218.1 115.493 219.034 113.76C219.994 112.027 221.327 110.693 223.034 109.76C224.74 108.827 226.7 108.36 228.914 108.36C231.074 108.36 232.994 108.813 234.674 109.72C236.354 110.627 237.66 111.92 238.594 113.6C239.554 115.28 240.034 117.24 240.034 119.48ZM233.034 117.68C233.034 116.507 232.634 115.573 231.834 114.88C231.034 114.187 230.034 113.84 228.834 113.84C227.687 113.84 226.714 114.173 225.914 114.84C225.14 115.507 224.66 116.453 224.474 117.68H233.034ZM257.242 108.44C259.855 108.44 261.935 109.293 263.482 111C265.055 112.68 265.842 115 265.842 117.96V131H259.042V118.88C259.042 117.387 258.655 116.227 257.882 115.4C257.109 114.573 256.069 114.16 254.762 114.16C253.455 114.16 252.415 114.573 251.642 115.4C250.869 116.227 250.482 117.387 250.482 118.88V131H243.642V108.68H250.482V111.64C251.175 110.653 252.109 109.88 253.282 109.32C254.455 108.733 255.775 108.44 257.242 108.44ZM283.035 125.2V131H279.555C277.075 131 275.142 130.4 273.755 129.2C272.369 127.973 271.675 125.987 271.675 123.24V114.36H268.955V108.68H271.675V103.24H278.515V108.68H282.995V114.36H278.515V123.32C278.515 123.987 278.675 124.467 278.995 124.76C279.315 125.053 279.849 125.2 280.595 125.2H283.035ZM293.685 101.4V131H286.845V101.4H293.685ZM321.442 108.68L307.442 141.6H300.082L305.202 130.24L296.122 108.68H303.762L308.922 122.64L314.042 108.68H321.442ZM99.8993 166.8C99.8993 164.507 100.326 162.493 101.179 160.76C102.059 159.027 103.246 157.693 104.739 156.76C106.233 155.827 107.899 155.36 109.739 155.36C111.313 155.36 112.686 155.68 113.859 156.32C115.059 156.96 115.979 157.8 116.619 158.84V155.68H123.459V178H116.619V174.84C115.953 175.88 115.019 176.72 113.819 177.36C112.646 178 111.273 178.32 109.699 178.32C107.886 178.32 106.233 177.853 104.739 176.92C103.246 175.96 102.059 174.613 101.179 172.88C100.326 171.12 99.8993 169.093 99.8993 166.8ZM116.619 166.84C116.619 165.133 116.139 163.787 115.179 162.8C114.246 161.813 113.099 161.32 111.739 161.32C110.379 161.32 109.219 161.813 108.259 162.8C107.326 163.76 106.859 165.093 106.859 166.8C106.859 168.507 107.326 169.867 108.259 170.88C109.219 171.867 110.379 172.36 111.739 172.36C113.099 172.36 114.246 171.867 115.179 170.88C116.139 169.893 116.619 168.547 116.619 166.84ZM137.488 178.32C135.541 178.32 133.808 177.987 132.288 177.32C130.768 176.653 129.568 175.747 128.688 174.6C127.808 173.427 127.314 172.12 127.208 170.68H133.968C134.048 171.453 134.408 172.08 135.048 172.56C135.688 173.04 136.474 173.28 137.408 173.28C138.261 173.28 138.914 173.12 139.368 172.8C139.848 172.453 140.088 172.013 140.088 171.48C140.088 170.84 139.754 170.373 139.088 170.08C138.421 169.76 137.341 169.413 135.848 169.04C134.248 168.667 132.914 168.28 131.848 167.88C130.781 167.453 129.861 166.8 129.088 165.92C128.314 165.013 127.928 163.8 127.928 162.28C127.928 161 128.274 159.84 128.968 158.8C129.688 157.733 130.728 156.893 132.088 156.28C133.474 155.667 135.114 155.36 137.008 155.36C139.808 155.36 142.008 156.053 143.608 157.44C145.234 158.827 146.168 160.667 146.408 162.96H140.088C139.981 162.187 139.634 161.573 139.048 161.12C138.488 160.667 137.741 160.44 136.808 160.44C136.008 160.44 135.394 160.6 134.968 160.92C134.541 161.213 134.328 161.627 134.328 162.16C134.328 162.8 134.661 163.28 135.328 163.6C136.021 163.92 137.088 164.24 138.528 164.56C140.181 164.987 141.528 165.413 142.568 165.84C143.608 166.24 144.514 166.907 145.288 167.84C146.088 168.747 146.501 169.973 146.528 171.52C146.528 172.827 146.154 174 145.408 175.04C144.688 176.053 143.634 176.853 142.248 177.44C140.888 178.027 139.301 178.32 137.488 178.32ZM164.352 178L157.552 168.64V178H150.712V148.4H157.552V164.76L164.312 155.68H172.752L163.472 166.88L172.832 178H164.352ZM196.479 166.48C196.479 167.12 196.439 167.787 196.359 168.48H180.879C180.986 169.867 181.426 170.933 182.199 171.68C182.999 172.4 183.972 172.76 185.119 172.76C186.826 172.76 188.012 172.04 188.679 170.6H195.959C195.586 172.067 194.906 173.387 193.919 174.56C192.959 175.733 191.746 176.653 190.279 177.32C188.812 177.987 187.172 178.32 185.359 178.32C183.172 178.32 181.226 177.853 179.519 176.92C177.812 175.987 176.479 174.653 175.519 172.92C174.559 171.187 174.079 169.16 174.079 166.84C174.079 164.52 174.546 162.493 175.479 160.76C176.439 159.027 177.772 157.693 179.479 156.76C181.186 155.827 183.146 155.36 185.359 155.36C187.519 155.36 189.439 155.813 191.119 156.72C192.799 157.627 194.106 158.92 195.039 160.6C195.999 162.28 196.479 164.24 196.479 166.48ZM189.479 164.68C189.479 163.507 189.079 162.573 188.279 161.88C187.479 161.187 186.479 160.84 185.279 160.84C184.132 160.84 183.159 161.173 182.359 161.84C181.586 162.507 181.106 163.453 180.919 164.68H189.479ZM198.727 166.8C198.727 164.507 199.154 162.493 200.007 160.76C200.887 159.027 202.074 157.693 203.567 156.76C205.061 155.827 206.727 155.36 208.567 155.36C210.034 155.36 211.367 155.667 212.567 156.28C213.794 156.893 214.754 157.72 215.447 158.76V148.4H222.287V178H215.447V174.8C214.807 175.867 213.887 176.72 212.687 177.36C211.514 178 210.141 178.32 208.567 178.32C206.727 178.32 205.061 177.853 203.567 176.92C202.074 175.96 200.887 174.613 200.007 172.88C199.154 171.12 198.727 169.093 198.727 166.8ZM215.447 166.84C215.447 165.133 214.967 163.787 214.007 162.8C213.074 161.813 211.927 161.32 210.567 161.32C209.207 161.32 208.047 161.813 207.087 162.8C206.154 163.76 205.687 165.093 205.687 166.8C205.687 168.507 206.154 169.867 207.087 170.88C208.047 171.867 209.207 172.36 210.567 172.36C211.927 172.36 213.074 171.867 214.007 170.88C214.967 169.893 215.447 168.547 215.447 166.84ZM234.352 166.88C234.352 164.667 234.806 162.693 235.712 160.96C236.646 159.227 237.886 157.88 239.432 156.92C241.006 155.933 242.712 155.44 244.552 155.44C245.966 155.44 247.232 155.693 248.352 156.2C249.472 156.68 250.379 157.36 251.072 158.24V155.68H257.912V188.64H251.072V175.2C250.299 176.133 249.352 176.88 248.232 177.44C247.139 178 245.886 178.28 244.472 178.28C242.659 178.28 240.979 177.8 239.432 176.84C237.886 175.88 236.646 174.533 235.712 172.8C234.806 171.067 234.352 169.093 234.352 166.88ZM251.072 166.84C251.072 165.64 250.832 164.64 250.352 163.84C249.899 163.013 249.299 162.4 248.552 162C247.806 161.573 247.019 161.36 246.192 161.36C245.392 161.36 244.619 161.573 243.872 162C243.126 162.4 242.512 163.013 242.032 163.84C241.552 164.667 241.312 165.68 241.312 166.88C241.312 168.08 241.552 169.093 242.032 169.92C242.512 170.72 243.126 171.333 243.872 171.76C244.619 172.16 245.392 172.36 246.192 172.36C246.992 172.36 247.766 172.16 248.512 171.76C249.286 171.333 249.899 170.707 250.352 169.88C250.832 169.053 251.072 168.04 251.072 166.84ZM284.901 155.68V178H278.061V174.96C277.368 175.947 276.421 176.747 275.221 177.36C274.048 177.947 272.741 178.24 271.301 178.24C269.594 178.24 268.088 177.867 266.781 177.12C265.474 176.347 264.461 175.24 263.741 173.8C263.021 172.36 262.661 170.667 262.661 168.72V155.68H269.461V167.8C269.461 169.293 269.848 170.453 270.621 171.28C271.394 172.107 272.434 172.52 273.741 172.52C275.074 172.52 276.128 172.107 276.901 171.28C277.674 170.453 278.061 169.293 278.061 167.8V155.68H284.901ZM310.854 166.48C310.854 167.12 310.814 167.787 310.734 168.48H295.254C295.361 169.867 295.801 170.933 296.574 171.68C297.374 172.4 298.347 172.76 299.494 172.76C301.201 172.76 302.387 172.04 303.054 170.6H310.334C309.961 172.067 309.281 173.387 308.294 174.56C307.334 175.733 306.121 176.653 304.654 177.32C303.187 177.987 301.547 178.32 299.734 178.32C297.547 178.32 295.601 177.853 293.894 176.92C292.187 175.987 290.854 174.653 289.894 172.92C288.934 171.187 288.454 169.16 288.454 166.84C288.454 164.52 288.921 162.493 289.854 160.76C290.814 159.027 292.147 157.693 293.854 156.76C295.561 155.827 297.521 155.36 299.734 155.36C301.894 155.36 303.814 155.813 305.494 156.72C307.174 157.627 308.481 158.92 309.414 160.6C310.374 162.28 310.854 164.24 310.854 166.48ZM303.854 164.68C303.854 163.507 303.454 162.573 302.654 161.88C301.854 161.187 300.854 160.84 299.654 160.84C298.507 160.84 297.534 161.173 296.734 161.84C295.961 162.507 295.481 163.453 295.294 164.68H303.854ZM323.542 178.32C321.596 178.32 319.862 177.987 318.342 177.32C316.822 176.653 315.622 175.747 314.742 174.6C313.862 173.427 313.369 172.12 313.262 170.68H320.022C320.102 171.453 320.462 172.08 321.102 172.56C321.742 173.04 322.529 173.28 323.462 173.28C324.316 173.28 324.969 173.12 325.422 172.8C325.902 172.453 326.142 172.013 326.142 171.48C326.142 170.84 325.809 170.373 325.142 170.08C324.476 169.76 323.396 169.413 321.902 169.04C320.302 168.667 318.969 168.28 317.902 167.88C316.836 167.453 315.916 166.8 315.142 165.92C314.369 165.013 313.982 163.8 313.982 162.28C313.982 161 314.329 159.84 315.022 158.8C315.742 157.733 316.782 156.893 318.142 156.28C319.529 155.667 321.169 155.36 323.062 155.36C325.862 155.36 328.062 156.053 329.662 157.44C331.289 158.827 332.222 160.667 332.462 162.96H326.142C326.036 162.187 325.689 161.573 325.102 161.12C324.542 160.667 323.796 160.44 322.862 160.44C322.062 160.44 321.449 160.6 321.022 160.92C320.596 161.213 320.382 161.627 320.382 162.16C320.382 162.8 320.716 163.28 321.382 163.6C322.076 163.92 323.142 164.24 324.582 164.56C326.236 164.987 327.582 165.413 328.622 165.84C329.662 166.24 330.569 166.907 331.342 167.84C332.142 168.747 332.556 169.973 332.582 171.52C332.582 172.827 332.209 174 331.462 175.04C330.742 176.053 329.689 176.853 328.302 177.44C326.942 178.027 325.356 178.32 323.542 178.32ZM349.207 172.2V178H345.727C343.247 178 341.314 177.4 339.927 176.2C338.54 174.973 337.847 172.987 337.847 170.24V161.36H335.127V155.68H337.847V150.24H344.687V155.68H349.167V161.36H344.687V170.32C344.687 170.987 344.847 171.467 345.167 171.76C345.487 172.053 346.02 172.2 346.767 172.2H349.207ZM356.457 153.36C355.257 153.36 354.27 153.013 353.497 152.32C352.75 151.6 352.377 150.72 352.377 149.68C352.377 148.613 352.75 147.733 353.497 147.04C354.27 146.32 355.257 145.96 356.457 145.96C357.63 145.96 358.59 146.32 359.337 147.04C360.11 147.733 360.497 148.613 360.497 149.68C360.497 150.72 360.11 151.6 359.337 152.32C358.59 153.013 357.63 153.36 356.457 153.36ZM359.857 155.68V178H353.017V155.68H359.857ZM374.974 178.32C372.787 178.32 370.814 177.853 369.054 176.92C367.321 175.987 365.947 174.653 364.934 172.92C363.947 171.187 363.454 169.16 363.454 166.84C363.454 164.547 363.961 162.533 364.974 160.8C365.987 159.04 367.374 157.693 369.134 156.76C370.894 155.827 372.867 155.36 375.054 155.36C377.241 155.36 379.214 155.827 380.974 156.76C382.734 157.693 384.121 159.04 385.134 160.8C386.147 162.533 386.654 164.547 386.654 166.84C386.654 169.133 386.134 171.16 385.094 172.92C384.081 174.653 382.681 175.987 380.894 176.92C379.134 177.853 377.161 178.32 374.974 178.32ZM374.974 172.4C376.281 172.4 377.387 171.92 378.294 170.96C379.227 170 379.694 168.627 379.694 166.84C379.694 165.053 379.241 163.68 378.334 162.72C377.454 161.76 376.361 161.28 375.054 161.28C373.721 161.28 372.614 161.76 371.734 162.72C370.854 163.653 370.414 165.027 370.414 166.84C370.414 168.627 370.841 170 371.694 170.96C372.574 171.92 373.667 172.4 374.974 172.4ZM403.883 155.44C406.496 155.44 408.576 156.293 410.123 158C411.696 159.68 412.483 162 412.483 164.96V178H405.683V165.88C405.683 164.387 405.296 163.227 404.523 162.4C403.749 161.573 402.709 161.16 401.403 161.16C400.096 161.16 399.056 161.573 398.283 162.4C397.509 163.227 397.123 164.387 397.123 165.88V178H390.283V155.68H397.123V158.64C397.816 157.653 398.749 156.88 399.923 156.32C401.096 155.733 402.416 155.44 403.883 155.44ZM426.316 178.32C424.369 178.32 422.636 177.987 421.116 177.32C419.596 176.653 418.396 175.747 417.516 174.6C416.636 173.427 416.143 172.12 416.036 170.68H422.796C422.876 171.453 423.236 172.08 423.876 172.56C424.516 173.04 425.303 173.28 426.236 173.28C427.089 173.28 427.743 173.12 428.196 172.8C428.676 172.453 428.916 172.013 428.916 171.48C428.916 170.84 428.583 170.373 427.916 170.08C427.249 169.76 426.169 169.413 424.676 169.04C423.076 168.667 421.743 168.28 420.676 167.88C419.609 167.453 418.689 166.8 417.916 165.92C417.143 165.013 416.756 163.8 416.756 162.28C416.756 161 417.103 159.84 417.796 158.8C418.516 157.733 419.556 156.893 420.916 156.28C422.303 155.667 423.943 155.36 425.836 155.36C428.636 155.36 430.836 156.053 432.436 157.44C434.063 158.827 434.996 160.667 435.236 162.96H428.916C428.809 162.187 428.463 161.573 427.876 161.12C427.316 160.667 426.569 160.44 425.636 160.44C424.836 160.44 424.223 160.6 423.796 160.92C423.369 161.213 423.156 161.627 423.156 162.16C423.156 162.8 423.489 163.28 424.156 163.6C424.849 163.92 425.916 164.24 427.356 164.56C429.009 164.987 430.356 165.413 431.396 165.84C432.436 166.24 433.343 166.907 434.116 167.84C434.916 168.747 435.329 169.973 435.356 171.52C435.356 172.827 434.983 174 434.236 175.04C433.516 176.053 432.463 176.853 431.076 177.44C429.716 178.027 428.129 178.32 426.316 178.32Z" fill="#13171F"/>
<defs>
<linearGradient id="paint0_linear_1790_8738" x1="501.779" y1="163.86" x2="-0.220703" y2="163.86" gradientUnits="userSpaceOnUse">
<stop stop-color="#4A90E2" stop-opacity="0"/>
<stop offset="1" stop-color="#00587A"/>
</linearGradient>
</defs>
</svg>
