<svg width="18" height="19" viewBox="0 0 18 19" fill="none" xmlns="http://www.w3.org/2000/svg">
<g id="Group">
<path id="Vector" d="M8.9902 4.0625C10.3177 4.0625 11.5064 4.52 12.4439 5.4125L15.0127 2.84375C13.4527 1.3925 11.4164 0.5 8.9902 0.5C5.4727 0.5 2.43145 2.5175 0.950195 5.4575L3.9427 7.77875C4.65145 5.645 6.6427 4.0625 8.9902 4.0625Z" fill="#EA4335"/>
<path id="Vector_2" d="M17.6077 9.70625C17.6077 9.1175 17.5515 8.5475 17.4652 8H8.99023V11.3825H13.8427C13.6252 12.4925 12.9952 13.4375 12.0502 14.075L14.949 16.325C16.6402 14.7575 17.6077 12.44 17.6077 9.70625Z" fill="#4285F4"/>
<path id="Vector_3" d="M3.93898 11.2208C3.75898 10.677 3.65398 10.0995 3.65398 9.49953C3.65398 8.89953 3.75523 8.32203 3.93898 7.77828L0.946484 5.45703C0.335234 6.67203 -0.00976562 8.04453 -0.00976562 9.49953C-0.00976562 10.9545 0.335234 12.327 0.950234 13.542L3.93898 11.2208Z" fill="#FBBC05"/>
<path id="Vector_4" d="M8.99004 18.5013C11.42 18.5013 13.4638 17.7025 14.9488 16.3225L12.05 14.0725C11.2438 14.6162 10.205 14.935 8.99004 14.935C6.64254 14.935 4.65129 13.3525 3.93879 11.2188L0.946289 13.54C2.43129 16.4838 5.47254 18.5013 8.99004 18.5013Z" fill="#34A853"/>
</g>
</svg>
