<svg width="250" height="70" viewBox="0 0 250 70" fill="none" xmlns="http://www.w3.org/2000/svg">
<g clip-path="url(#clip0_1236_8829)">
<path d="M59.5231 34.7196C59.5231 48.4171 48.419 59.5211 34.7215 59.5211C21.024 59.5211 9.91992 48.4171 9.91992 34.7196C9.91992 21.022 21.024 9.91797 34.7215 9.91797C48.419 9.91797 59.5231 21.022 59.5231 34.7196ZM17.3363 34.7196C17.3363 44.3212 25.1199 52.1048 34.7215 52.1048C44.3231 52.1048 52.1068 44.3212 52.1068 34.7196C52.1068 25.1179 44.3231 17.3343 34.7215 17.3343C25.1199 17.3343 17.3363 25.1179 17.3363 34.7196Z" fill="#00B0FF"/>
<path d="M34.8016 59.6032C38.0586 59.6032 41.2837 58.9617 44.2927 57.7153C47.3018 56.4689 50.0359 54.642 52.339 52.339C54.642 50.0359 56.4689 47.3018 57.7153 44.2927C58.9617 41.2837 59.6032 38.0586 59.6032 34.8016C59.6032 31.5446 58.9617 28.3195 57.7153 25.3104C56.4689 22.3014 54.642 19.5673 52.339 17.2642C50.0359 14.9612 47.3018 13.1343 44.2927 11.8879C41.2837 10.6415 38.0586 10 34.8016 10L34.8016 17.4163C37.0847 17.4163 39.3454 17.866 41.4546 18.7397C43.5639 19.6134 45.4804 20.894 47.0948 22.5084C48.7092 24.1227 49.9898 26.0393 50.8635 28.1485C51.7372 30.2578 52.1868 32.5185 52.1868 34.8016C52.1868 37.0847 51.7372 39.3454 50.8635 41.4546C49.9898 43.5639 48.7092 45.4804 47.0948 47.0948C45.4804 48.7092 43.5639 49.9898 41.4546 50.8635C39.3454 51.7372 37.0847 52.1868 34.8016 52.1868L34.8016 59.6032Z" fill="url(#paint0_linear_1236_8829)"/>
<path d="M103.566 52.5572C93.7176 43.0374 93.451 27.3362 102.971 17.4875C112.49 7.63879 128.192 7.37213 138.04 16.8919C147.889 26.4116 148.156 42.1129 138.636 51.9616C129.116 61.8103 113.415 62.0769 103.566 52.5572ZM132.886 22.2243C125.982 15.5512 114.976 15.7382 108.303 22.6418C101.63 29.5455 101.817 40.5517 108.721 47.2247C115.624 53.8978 126.63 53.7109 133.304 46.8072C139.977 39.9035 139.79 28.8974 132.886 22.2243Z" fill="#00B0FF"/>
<path d="M102.856 17.4875C100.593 19.8293 98.8127 22.594 97.6176 25.6238C96.4224 28.6536 95.8358 31.8892 95.8911 35.1457C95.9464 38.4022 96.6426 41.616 97.9399 44.6034C99.2372 47.5909 101.11 50.2936 103.452 52.5572C105.794 54.8208 108.559 56.601 111.588 57.7961C114.618 58.9912 117.854 59.5778 121.11 59.5225C124.367 59.4672 127.581 58.771 130.568 57.4737C133.555 56.1764 136.258 54.3034 138.522 51.9616L133.189 46.8072C131.603 48.4488 129.708 49.7617 127.614 50.6711C125.52 51.5805 123.267 52.0685 120.984 52.1073C118.702 52.146 116.434 51.7348 114.31 50.8971C112.186 50.0593 110.248 48.8115 108.606 47.2247C106.965 45.638 105.652 43.7435 104.743 41.6494C103.833 39.5552 103.345 37.3025 103.306 35.0198C103.268 32.737 103.679 30.469 104.517 28.3452C105.354 26.2214 106.602 24.2834 108.189 22.6418L102.856 17.4875Z" fill="url(#paint1_linear_1236_8829)"/>
<path d="M197.515 11.0817C210.573 6.94435 224.512 14.1757 228.649 27.2335C232.787 40.2912 225.555 54.2306 212.498 58.368C199.44 62.5054 185.5 55.274 181.363 42.2162C177.226 29.1585 184.457 15.2191 197.515 11.0817ZM210.258 51.2981C219.411 48.3979 224.48 38.6267 221.579 29.4736C218.679 20.3205 208.908 15.2515 199.755 18.1516C190.602 21.0518 185.533 30.823 188.433 39.9761C191.333 49.1292 201.104 54.1983 210.258 51.2981Z" fill="#00B0FF"/>
<path d="M228.703 27.1319C227.719 24.0271 226.134 21.1464 224.037 18.6543C221.939 16.1623 219.372 14.1077 216.481 12.6079C213.59 11.108 210.432 10.1923 207.187 9.91306C203.942 9.63378 200.673 9.99638 197.569 10.9802C194.464 11.9639 191.583 13.5496 189.091 15.6467C186.599 17.7438 184.544 20.3112 183.045 23.2023C181.545 26.0934 180.629 29.2516 180.35 32.4966C180.07 35.7416 180.433 39.0098 181.417 42.1147L188.487 39.8746C187.797 37.6981 187.543 35.4072 187.739 33.1325C187.935 30.8579 188.576 28.6441 189.628 26.6175C190.679 24.5909 192.119 22.7912 193.866 21.3212C195.613 19.8512 197.632 18.7397 199.809 18.0501C201.985 17.3605 204.276 17.1063 206.551 17.3021C208.825 17.4979 211.039 18.1397 213.066 19.1911C215.092 20.2424 216.892 21.6826 218.362 23.4295C219.832 25.1763 220.944 27.1956 221.633 29.372L228.703 27.1319Z" fill="url(#paint2_linear_1236_8829)"/>
</g>
<rect x="0.248016" y="0.248016" width="249.504" height="68.9484" rx="2.23214" stroke="#9747FF" stroke-width="0.496032" stroke-dasharray="4.96 2.48"/>
<defs>
<linearGradient id="paint0_linear_1236_8829" x1="34.8016" y1="10" x2="35" y2="53" gradientUnits="userSpaceOnUse">
<stop stop-color="white"/>
<stop offset="0.55" stop-color="white"/>
<stop offset="1" stop-color="white" stop-opacity="0"/>
</linearGradient>
<linearGradient id="paint1_linear_1236_8829" x1="138.522" y1="51.9616" x2="107.466" y2="22.2193" gradientUnits="userSpaceOnUse">
<stop stop-color="white"/>
<stop offset="0.55" stop-color="white"/>
<stop offset="1" stop-color="white" stop-opacity="0"/>
</linearGradient>
<linearGradient id="paint2_linear_1236_8829" x1="181.417" y1="42.1147" x2="222.348" y2="28.9373" gradientUnits="userSpaceOnUse">
<stop stop-color="white"/>
<stop offset="0.55" stop-color="white"/>
<stop offset="1" stop-color="white" stop-opacity="0"/>
</linearGradient>
<clipPath id="clip0_1236_8829">
<rect width="250" height="69.4445" rx="2.48016" fill="white"/>
</clipPath>
</defs>
</svg>
