<svg width="70" height="70" viewBox="0 0 70 70" fill="none" xmlns="http://www.w3.org/2000/svg">
  <g clip-path="url(#clip0_1236_8829)">
    <path d="M59.5231 34.7196C59.5231 48.4171 48.419 59.5211 34.7215 59.5211C21.024 59.5211 9.91992 48.4171 9.91992 34.7196C9.91992 21.022 21.024 9.91797 34.7215 9.91797C48.419 9.91797 59.5231 21.022 59.5231 34.7196ZM17.3363 34.7196C17.3363 44.3212 25.1199 52.1048 34.7215 52.1048C44.3231 52.1048 52.1068 44.3212 52.1068 34.7196C52.1068 25.1179 44.3231 17.3343 34.7215 17.3343C25.1199 17.3343 17.3363 25.1179 17.3363 34.7196Z" fill="#00B0FF" />
    <path d="M34.8016 59.6032C38.0586 59.6032 41.2837 58.9617 44.2927 57.7153C47.3018 56.4689 50.0359 54.642 52.339 52.339C54.642 50.0359 56.4689 47.3018 57.7153 44.2927C58.9617 41.2837 59.6032 38.0586 59.6032 34.8016C59.6032 31.5446 58.9617 28.3195 57.7153 25.3104C56.4689 22.3014 54.642 19.5673 52.339 17.2642C50.0359 14.9612 47.3018 13.1343 44.2927 11.8879C41.2837 10.6415 38.0586 10 34.8016 10L34.8016 17.4163C37.0847 17.4163 39.3454 17.866 41.4546 18.7397C43.5639 19.6134 45.4804 20.894 47.0948 22.5084C48.7092 24.1227 49.9898 26.0393 50.8635 28.1485C51.7372 30.2578 52.1868 32.5185 52.1868 34.8016C52.1868 37.0847 51.7372 39.3454 50.8635 41.4546C49.9898 43.5639 48.7092 45.4804 47.0948 47.0948C45.4804 48.7092 43.5639 49.9898 41.4546 50.8635C39.3454 51.7372 37.0847 52.1868 34.8016 52.1868L34.8016 59.6032Z" fill="url(#paint0_linear_1236_8829)" />
  </g>
  <defs>
    <linearGradient id="paint0_linear_1236_8829" x1="34.8016" y1="10" x2="35" y2="53" gradientUnits="userSpaceOnUse">
      <stop stop-color="white" />
      <stop offset="0.55" stop-color="white" />
      <stop offset="1" stop-color="white" stop-opacity="0" />
    </linearGradient>
    <linearGradient id="paint1_linear_1236_8829" x1="138.522" y1="51.9616" x2="107.466" y2="22.2193" gradientUnits="userSpaceOnUse">
      <stop stop-color="white" />
      <stop offset="0.55" stop-color="white" />
      <stop offset="1" stop-color="white" stop-opacity="0" />
    </linearGradient>
    <linearGradient id="paint2_linear_1236_8829" x1="181.417" y1="42.1147" x2="222.348" y2="28.9373" gradientUnits="userSpaceOnUse">
      <stop stop-color="white" />
      <stop offset="0.55" stop-color="white" />
      <stop offset="1" stop-color="white" stop-opacity="0" />
    </linearGradient>
    <clipPath id="clip0_1236_8829">
      <rect width="250" height="69.4445" rx="2.48016" fill="white" />
    </clipPath>
  </defs>
</svg>
