<svg width="20" height="20" viewBox="0 0 20 20" fill="none" xmlns="http://www.w3.org/2000/svg">
<g id="eye-off" clip-path="url(#clip0_1673_6309)">
<path id="Vector" d="M14.9502 14.9487C13.5257 16.0346 11.7911 16.6361 10.0002 16.6654C4.16683 16.6654 0.833496 9.99872 0.833496 9.99872C1.87007 8.06696 3.30778 6.37923 5.05016 5.04872M8.25016 3.53205C8.82377 3.39778 9.41105 3.33067 10.0002 3.33205C15.8335 3.33205 19.1668 9.99872 19.1668 9.99872C18.661 10.9451 18.0577 11.836 17.3668 12.6571M11.7668 11.7654C11.538 12.011 11.262 12.208 10.9553 12.3447C10.6486 12.4813 10.3176 12.5548 9.98191 12.5607C9.64623 12.5666 9.3128 12.5049 9.0015 12.3791C8.69021 12.2534 8.40743 12.0662 8.17004 11.8288C7.93264 11.5915 7.74549 11.3087 7.61975 10.9974C7.49402 10.6861 7.43227 10.3527 7.43819 10.017C7.44411 9.6813 7.51759 9.35026 7.65423 9.04359C7.79087 8.73693 7.98787 8.46093 8.2335 8.23205" stroke="#667085" stroke-width="1.5" stroke-linecap="round" stroke-linejoin="round"/>
<path id="Vector_2" d="M0.833496 0.832031L19.1668 19.1654" stroke="#667085" stroke-width="1.5" stroke-linecap="round" stroke-linejoin="round"/>
</g>
<defs>
<clipPath id="clip0_1673_6309">
<rect width="20" height="20" fill="white"/>
</clipPath>
</defs>
</svg>
