<svg width="69" height="49" viewBox="0 0 69 49" fill="none" xmlns="http://www.w3.org/2000/svg">
<path d="M67.0083 8.66969C66.2283 5.73969 64.5183 3.25969 61.5883 2.47969C56.2783 1.05969 34.4883 0.929688 34.4883 0.929688C34.4883 0.929688 12.6983 1.05969 7.38828 2.47969C4.45828 3.25969 2.75828 5.73969 1.96828 8.66969C0.548281 13.9797 0.488281 24.9297 0.488281 24.9297C0.488281 24.9297 0.548281 35.8797 1.96828 41.1897C2.74828 44.1197 4.45828 46.5997 7.38828 47.3797C12.6983 48.7997 34.4883 48.9297 34.4883 48.9297C34.4883 48.9297 56.2783 48.7997 61.5883 47.3797C64.5183 46.5997 66.2283 44.1197 67.0083 41.1897C68.4283 35.8797 68.4883 24.9297 68.4883 24.9297C68.4883 24.9297 68.4283 13.9797 67.0083 8.66969Z" fill="#FF0000"/>
<path d="M45.4883 24.9297L27.4883 14.9297V34.9297" fill="white"/>
</svg>
