<svg width="125" height="90" viewBox="0 0 125 90" fill="none" xmlns="http://www.w3.org/2000/svg">
<path fill-rule="evenodd" clip-rule="evenodd" d="M22.0395 76.491C21.5808 74.3513 19.7689 73.7998 17.7505 73.6234C11.1909 73.0278 10.0212 77.7484 10.0212 79.7557C10.0212 83.1528 11.0533 85.9763 17.4982 85.9763C18.6909 85.9763 21.9707 84.8072 21.9707 82.8881H31.2368C30.8698 88.5572 20.9386 89.9028 16.6267 89.9028C7.65878 89.9028 -0.00177011 88.2925 0.365202 79.8219C0.640432 73.7778 6.60374 69.5204 18.4386 69.7851C25.0441 69.9395 31.3744 71.9248 31.3973 76.5131H22.0395V76.491Z" fill="black"/>
<path fill-rule="evenodd" clip-rule="evenodd" d="M114.871 76.491C114.412 74.3513 112.6 73.7998 110.559 73.6234C103.999 73.0278 102.829 77.7484 102.829 79.7557C102.829 83.1528 103.861 85.9763 110.306 85.9763C111.499 85.9763 114.779 84.8072 114.779 82.8881H124.045C123.678 88.5572 113.747 89.9028 109.435 89.9028C100.49 89.9028 92.8293 88.3145 93.1963 79.8219C93.4715 73.7778 99.4119 69.5204 111.247 69.7851C117.829 69.9395 124.182 71.9248 124.205 76.5131H114.871V76.491Z" fill="black"/>
<path fill-rule="evenodd" clip-rule="evenodd" d="M33.0488 70.1875H45.0901L55.3424 84.0184H55.4342V70.1875H63.1406V89.4007H51.6039L40.847 75.5699H40.7553V89.4007H33.0488V70.1875Z" fill="black"/>
<path d="M118.025 48.11C116.374 43.1026 111.007 39.0438 105.548 38.7791L105.365 38.6026C107.222 36.9923 108.667 35.0953 109.516 32.9997C111.213 28.8305 110.479 23.4703 107.658 20.007C103.897 15.1761 97.7041 13.4555 91.8325 15.0438C90.8463 15.3747 89.9288 15.9482 88.9885 16.1026C89.9059 11.0511 87.9793 6.55114 84.1949 3.24231C80.2958 -0.0665095 73.8738 -0.970921 69.0802 1.12467C66.305 2.20555 63.7132 4.76437 62.1536 7.2129C61.0068 5.4482 59.4243 3.50702 57.4977 2.38202C53.2316 -0.640039 46.2821 -0.706215 41.9243 2.13937C37.0389 5.24967 34.4243 10.3673 35.4564 16.0364L35.3417 16.1688C31.9243 14.2276 26.8554 13.985 23.1169 15.4188C18.8738 16.8747 15.2041 21.0879 14.4013 25.257C13.3004 30.3967 15.1811 35.1835 19.1261 38.6908C15.6399 39.2202 12.4518 40.2791 9.88297 42.86C5.8004 46.5879 4.74536 52.8526 6.90132 57.7717C9.67655 63.485 14.8371 66.3305 21.5114 66.1761H102.773C107.245 66.2644 111.282 65.2276 114.401 62.2497C118.255 58.5438 119.814 53.1614 118.025 48.11Z" fill="white"/>
<path d="M85.6859 79.3483V79.2822C89.5391 78.6645 91.2823 76.591 91.2823 74.9145C91.2823 72.0689 87.1538 70.1719 80.1355 70.1719H65.5254V89.3851H80.1814C88.0483 89.3851 92.0621 87.488 92.0621 84.113C92.0621 82.4366 90.3419 79.6131 85.6859 79.3483ZM73.9658 73.7454H77.108C80.4566 73.7454 82.108 74.2748 82.108 75.863C82.108 77.363 80.1355 77.6278 76.3969 77.6278H73.9887V73.7454H73.9658ZM76.3969 85.3704H73.9887V81.2895H77.1309C80.4795 81.2895 82.5667 81.8189 82.5667 83.4072C82.5437 84.9292 80.8924 85.3704 76.3969 85.3704Z" fill="black"/>
<path fill-rule="evenodd" clip-rule="evenodd" d="M85.1593 9.33013C84.5171 7.83013 83.3933 6.50661 82.0401 5.33749C78.7373 2.62425 73.3703 2.05072 69.563 4.16837C65.9162 6.04337 63.7602 9.57278 63.7373 13.4331L63.8749 13.5654L68.6456 13.6095C68.9667 13.8081 69.4483 13.786 69.563 14.2272C67.6364 15.661 64.3336 16.9184 64.7235 19.8963L69.8382 50.8448L69.9529 50.7125L84.0584 20.1831C85.8703 17.161 86.9024 12.7051 85.1593 9.33013Z" fill="#645FA9"/>
<path fill-rule="evenodd" clip-rule="evenodd" d="M54.8601 50.6703L60.594 15.2217C61.0069 12.6408 60.3417 10.3247 59.195 8.2732C57.9564 6.28791 55.9381 4.67761 53.828 3.81732C49.8601 2.20703 44.8601 3.00114 41.8096 5.97908C38.7821 8.82467 37.5436 12.9938 38.8738 16.9864L53.3005 47.935L54.7683 50.7806C54.8372 50.7585 54.8601 50.7144 54.8601 50.6703Z" fill="#C8234A"/>
<path fill-rule="evenodd" clip-rule="evenodd" d="M106.007 23.1842C107.956 26.3606 107.521 31.1694 105.365 34.1253C104.034 36.1989 101.832 37.2356 99.9517 38.6033L70.0893 58.3239H70.0205L70.3645 57.3753L86.1902 23.0077C88.5526 18.9489 93.0939 16.8974 97.8645 17.5371C101.144 18.1106 104.424 20.1621 106.007 23.1842Z" fill="#0088CF"/>
<path fill-rule="evenodd" clip-rule="evenodd" d="M21.1909 36.3057L54.402 58.3204H54.6543L38.1864 23.0043C35.4111 18.2616 29.5166 16.2984 24.2873 18.1513C21.0992 19.2984 18.4157 22.2102 17.5671 25.3204C16.4203 29.4454 17.8194 33.5484 21.1909 36.3057Z" fill="#F26F21"/>
<path fill-rule="evenodd" clip-rule="evenodd" d="M113.324 58.9374C115.687 56.0697 116.352 51.4594 114.678 48.1065C113.6 45.8124 111.306 43.4962 108.852 42.5697C105.687 41.1138 101.283 41.4447 98.3933 43.2315L68.7373 63.0844L104.15 63.0623C107.82 63.1726 110.962 61.6726 113.324 58.9374Z" fill="#0DB04B"/>
<path fill-rule="evenodd" clip-rule="evenodd" d="M55.7778 63.1078L26.1219 43.2549C23.209 41.4681 18.8283 41.1373 15.6632 42.5931C13.209 43.4976 10.9155 45.8137 9.83748 48.1078C8.1861 51.4608 8.8283 56.0711 11.1907 58.9387C13.5301 61.674 16.6723 63.174 20.365 63.0858L55.7778 63.1078Z" fill="#FCB813"/>
</svg>
