<svg width="247" height="90" viewBox="0 0 247 90" fill="none" xmlns="http://www.w3.org/2000/svg">
<path d="M49.5143 53.9776H55.2914V39.3037L62.2783 19.5116H56.6525L52.7204 32.1723H52.6146L48.6674 19.5116H42.5273L49.5143 39.3037V53.9776ZM72.3051 54.4738C73.5009 54.5496 74.7003 54.3866 75.8239 53.9955C76.9475 53.6045 77.9698 52.9943 78.8232 52.2054C80.4255 50.426 81.2328 48.1352 81.0765 45.8112V27.6921C81.236 25.3591 80.4288 23.0584 78.8232 21.2696C77.9676 20.4836 76.9449 19.8754 75.8219 19.4845C74.6988 19.0937 73.5005 18.929 72.3051 19.0012C71.1118 18.9283 69.9156 19.0928 68.7949 19.4837C67.6742 19.8746 66.6543 20.4832 65.8021 21.2696C64.1891 23.0497 63.3759 25.347 63.5336 27.6779V45.8112C63.3751 48.1379 64.1886 50.4311 65.8021 52.2054C66.6526 52.994 67.6722 53.604 68.7934 53.9951C69.9145 54.3862 71.1115 54.5494 72.3051 54.4738ZM69.2804 27.3377C69.2804 25.0834 70.2785 23.9492 72.3051 23.9492C74.3316 23.9492 75.3297 25.0834 75.3297 27.3377V46.1515C75.3297 48.4199 74.3215 49.5541 72.3051 49.5541C70.2886 49.5541 69.2804 48.4199 69.2804 46.1515V27.3377ZM93.3718 54.4738C94.5488 54.5472 95.7291 54.3854 96.8345 53.9993C97.9399 53.6131 98.9452 53.0113 99.784 52.2337C101.358 50.4315 102.142 48.1354 101.977 45.8112V19.5116H96.4115V46.194C96.5049 47.1075 96.2357 48.0212 95.6554 48.7602C95.3743 49.0311 95.0343 49.2422 94.6586 49.3792C94.2829 49.5161 93.8801 49.5758 93.4776 49.5541C93.065 49.5872 92.6496 49.5331 92.2622 49.3957C91.8749 49.2583 91.5253 49.0411 91.2394 48.7602C90.6537 48.0231 90.3791 47.1093 90.4681 46.194V19.5116H84.7515V45.8112C84.5919 48.1371 85.3811 50.4329 86.9595 52.2337C87.7977 53.0121 88.803 53.6143 89.9085 54.0006C91.0141 54.3868 92.1946 54.5481 93.3718 54.4738ZM111.852 39.2044H113.924C114.438 39.1529 114.957 39.2102 115.444 39.3722C115.931 39.5341 116.373 39.7966 116.737 40.1401C117.384 41.1294 117.67 42.2886 117.554 43.4435V49.7384C117.505 50.6455 117.515 51.5546 117.584 52.4606C117.661 52.9986 117.803 53.5266 118.008 54.0343H123.891C123.609 53.4656 123.43 52.8572 123.361 52.2337C123.279 51.4422 123.244 50.647 123.255 49.8519V43.7413C123.326 42.0775 123.032 40.4177 122.393 38.8641C122.117 38.2738 121.701 37.75 121.177 37.3325C120.653 36.9149 120.035 36.6145 119.369 36.4539V36.3547C121.889 35.4095 123.149 33.1458 123.149 29.5636V27.4369C123.339 25.2681 122.605 23.1172 121.108 21.4539C120.212 20.7422 119.175 20.2041 118.056 19.8707C116.937 19.5373 115.759 19.4152 114.59 19.5116H106.075V53.9776H111.852V39.2044ZM111.852 24.4313H114.484C114.9 24.4003 115.319 24.4596 115.707 24.6047C116.095 24.7497 116.443 24.9766 116.722 25.2677C117.259 26.0766 117.503 27.0264 117.418 27.9757V30.6411C117.531 31.6551 117.222 32.6709 116.556 33.4766C116.206 33.7745 115.794 34.0023 115.347 34.1461C114.9 34.2899 114.426 34.3467 113.955 34.3131H111.852V24.4313ZM134.764 54.4738C135.953 54.5508 137.146 54.3882 138.263 53.9969C139.379 53.6056 140.393 52.9947 141.237 52.2054C142.846 50.3913 143.648 48.0657 143.475 45.712C143.524 43.7456 143.057 41.798 142.114 40.0409C140.796 37.9958 139.107 36.1822 137.123 34.6817C135.633 33.5409 134.315 32.2149 133.206 30.7403C132.482 29.6974 132.089 28.4829 132.072 27.2384C132.072 25.0409 133.04 23.9492 134.961 23.9492C135.361 23.9237 135.761 23.9831 136.133 24.123C136.505 24.263 136.838 24.4798 137.108 24.7573C137.672 25.5088 137.934 26.4226 137.849 27.3377V29.1099H143.309V27.6921C143.486 25.3851 142.748 23.098 141.237 21.2696C140.428 20.4906 139.447 19.8865 138.363 19.4996C137.279 19.1127 136.118 18.9523 134.961 19.0296C133.786 18.9555 132.608 19.1169 131.505 19.5032C130.402 19.8894 129.399 20.4916 128.564 21.2696C126.988 23.0387 126.198 25.3073 126.356 27.6071C126.321 29.4883 126.811 31.3454 127.777 32.9946C129.12 35.0021 130.806 36.7888 132.768 38.2829C134.247 39.4351 135.541 40.7818 136.609 42.281C137.319 43.44 137.68 44.7583 137.653 46.0948C137.739 47.0297 137.471 47.9632 136.897 48.7318C136.61 49.0138 136.261 49.2336 135.875 49.3756C135.488 49.5177 135.073 49.5786 134.658 49.5541C132.642 49.5541 131.634 48.4341 131.634 46.194V43.8405H126.25V45.8112C126.085 48.1283 126.851 50.4193 128.397 52.2337C129.224 53.0148 130.221 53.6193 131.32 54.0059C132.418 54.3925 133.593 54.5521 134.764 54.4738ZM151.294 53.9776H157.071V24.4313H163.12V19.5116H145.26V24.4313H151.294V53.9776ZM174.039 54.4738C175.235 54.5496 176.434 54.3866 177.558 53.9955C178.682 53.6045 179.704 52.9943 180.557 52.2054C182.16 50.426 182.967 48.1352 182.811 45.8112V27.6921C182.97 25.3591 182.163 23.0584 180.557 21.2696C178.748 19.8058 176.437 19.0005 174.047 19.0005C171.657 19.0005 169.346 19.8058 167.536 21.2696C165.923 23.0497 165.11 25.347 165.268 27.6779V45.8112C165.109 48.1379 165.923 50.4311 167.536 52.2054C168.387 52.994 169.406 53.604 170.528 53.9951C171.649 54.3862 172.846 54.5494 174.039 54.4738ZM171.015 27.3377C171.015 25.0834 172.013 23.9492 174.039 23.9492C176.066 23.9492 177.064 25.0834 177.064 27.3377V46.1515C177.064 48.4199 176.056 49.5541 174.039 49.5541C172.023 49.5541 171.015 48.4199 171.015 46.1515V27.3377ZM192.475 39.2044H194.471C194.984 39.1529 195.504 39.2102 195.991 39.3722C196.478 39.5341 196.92 39.7966 197.284 40.1401C197.93 41.1294 198.217 42.2886 198.1 43.4435V49.7384C198.079 50.6281 198.115 51.5181 198.206 52.4038C198.283 52.9419 198.425 53.4699 198.63 53.9776H204.498C204.227 53.4063 204.053 52.7987 203.983 52.177C203.901 51.3855 203.866 50.5903 203.877 49.7951V43.7413C203.948 42.0775 203.655 40.4177 203.015 38.8641C202.739 38.2738 202.323 37.75 201.799 37.3325C201.275 36.9149 200.657 36.6145 199.991 36.4539V36.3547C202.521 35.4095 203.782 33.1458 203.772 29.5636V27.4369C203.961 25.2681 203.227 23.1172 201.73 21.4539C200.834 20.7422 199.797 20.2041 198.678 19.8707C197.56 19.5373 196.381 19.4152 195.212 19.5116H186.652V53.9776H192.429L192.475 39.2044ZM192.475 24.4313H195.106C195.52 24.3992 195.937 24.4582 196.323 24.6034C196.709 24.7485 197.053 24.976 197.329 25.2677C197.884 26.0698 198.134 27.0238 198.04 27.9757V30.6411C198.153 31.6551 197.844 32.6709 197.178 33.4766C196.828 33.7745 196.416 34.0023 195.969 34.1461C195.522 34.2899 195.048 34.3467 194.577 34.3131H192.475V24.4313ZM212.331 53.9776H218.108V39.3037L225.095 19.5116H219.47L215.538 32.1723H215.432L211.484 19.5116H205.344L212.331 39.3037V53.9776Z" fill="#FF0000"/>
<path d="M240.959 0H20.2959V73.0576H247.009V0H240.959ZM240.959 67.4007H26.2091V5.67108H240.959V67.4007Z" fill="#FF0000"/>
<path d="M223.75 72.166C222.872 72.1552 222.008 71.9564 221.224 71.5847V84.3446H6.54931V22.6008H23.3664C22.9544 21.6796 22.8007 20.6749 22.9198 19.6822C23.0389 18.6896 23.4269 17.7421 24.0469 16.9297H0.5V90.0015H227.258V71.5705C226.134 71.9585 224.947 72.16 223.75 72.166Z" fill="#FF0000"/>
<path d="M27.4346 69.5005L5.21857 88.768L0.953806 84.7699L23.1699 65.5024L27.4346 69.5005ZM24.5461 4.01373L4.88586 20.9703L0.621094 16.9721L20.2813 0.015625L24.5461 4.01373Z" fill="#FF0000"/>
</svg>
