<svg width="12" height="12" viewBox="0 0 12 12" fill="none" xmlns="http://www.w3.org/2000/svg">
<path d="M5.99496 0.164062C9.21671 0.164062 11.8283 2.77565 11.8283 5.9974C11.8283 9.21915 9.21671 11.8307 5.99496 11.8307C4.96407 11.8325 3.9513 11.5597 3.0608 11.0403L0.163963 11.8307L0.95263 8.93273C0.432856 8.04194 0.159823 7.02874 0.16163 5.9974C0.16163 2.77565 2.77321 0.164062 5.99496 0.164062ZM4.00696 3.25573L3.8903 3.2604C3.81487 3.26559 3.74117 3.28541 3.6733 3.31873C3.61005 3.35461 3.55229 3.3994 3.5018 3.45173C3.4318 3.51765 3.39213 3.57481 3.34955 3.63023C3.13378 3.91076 3.01761 4.25516 3.01938 4.60906C3.02055 4.8949 3.09521 5.17315 3.21188 5.43331C3.45046 5.95948 3.84305 6.51656 4.36105 7.03281C4.48588 7.15706 4.60838 7.2819 4.74021 7.39798C5.38388 7.96463 6.15088 8.37329 6.98021 8.59148L7.31155 8.64223C7.41946 8.64806 7.52738 8.6399 7.63588 8.63465C7.80574 8.62569 7.97158 8.5797 8.1218 8.4999C8.19812 8.46043 8.27267 8.41761 8.34521 8.37156C8.34521 8.37156 8.36991 8.35484 8.41813 8.31906C8.49688 8.26073 8.5453 8.21931 8.61063 8.15106C8.65963 8.10051 8.70046 8.04178 8.73313 7.9749C8.77863 7.87981 8.82413 7.6984 8.8428 7.54731C8.8568 7.43181 8.85271 7.36881 8.85096 7.32973C8.84863 7.26731 8.79671 7.20256 8.74013 7.17515L8.40063 7.0229C8.40063 7.0229 7.89313 6.80181 7.5828 6.66065C7.55031 6.6465 7.51552 6.6384 7.48013 6.63673C7.44021 6.63255 7.39987 6.63701 7.36182 6.64979C7.32378 6.66257 7.28893 6.68338 7.25963 6.71081C7.25671 6.70965 7.21763 6.7429 6.79588 7.2539C6.77167 7.28642 6.73833 7.31101 6.7001 7.32451C6.66187 7.33802 6.62048 7.33983 6.58121 7.32973C6.5432 7.3196 6.50596 7.30673 6.4698 7.29123C6.39746 7.2609 6.37238 7.24923 6.3228 7.22823C5.98789 7.08234 5.67789 6.88492 5.40405 6.64315C5.33055 6.57898 5.2623 6.50898 5.1923 6.44131C4.96282 6.22152 4.76282 5.97289 4.5973 5.70165L4.56288 5.64623C4.53853 5.60878 4.51857 5.56865 4.50338 5.52665C4.48121 5.4409 4.53896 5.37206 4.53896 5.37206C4.53896 5.37206 4.68071 5.2169 4.74663 5.1329C4.8108 5.05123 4.86505 4.9719 4.90005 4.91531C4.96888 4.80448 4.99046 4.69073 4.9543 4.60265C4.79096 4.20365 4.62219 3.80678 4.44796 3.41206C4.41355 3.3339 4.31146 3.2779 4.21871 3.26681C4.18721 3.26292 4.15571 3.25981 4.12421 3.25748C4.04589 3.25299 3.96735 3.25377 3.88913 3.25981L4.00696 3.25573Z" fill="white"/>
</svg>
