<svg width="20" height="21" viewBox="0 0 20 21" fill="none" xmlns="http://www.w3.org/2000/svg">
<path fill-rule="evenodd" clip-rule="evenodd" d="M4.62 9.77828C6.06 12.6083 8.38 14.9183 11.21 16.3683L13.41 14.1683C13.68 13.8983 14.08 13.8083 14.43 13.9283C15.55 14.2983 16.76 14.4983 18 14.4983C18.55 14.4983 19 14.9483 19 15.4983V18.9883C19 19.5383 18.55 19.9883 18 19.9883C8.61 19.9883 1 12.3783 1 2.98828C1 2.43828 1.45 1.98828 2 1.98828H5.5C6.05 1.98828 6.5 2.43828 6.5 2.98828C6.5 4.23828 6.7 5.43828 7.07 6.55828C7.18 6.90828 7.1 7.29828 6.82 7.57828L4.62 9.77828Z" stroke="#A2A7B3"/>
</svg>
