<svg width="16" height="23" viewBox="0 0 16 23" fill="none" xmlns="http://www.w3.org/2000/svg">
<path fill-rule="evenodd" clip-rule="evenodd" d="M8 1.98828C4.13 1.98828 1 5.11828 1 8.98828C1 14.2383 8 21.9883 8 21.9883C8 21.9883 15 14.2383 15 8.98828C15 5.11828 11.87 1.98828 8 1.98828ZM8 11.4883C7.33696 11.4883 6.70107 11.2249 6.23223 10.756C5.76339 10.2872 5.5 9.65132 5.5 8.98828C5.5 8.32524 5.76339 7.68936 6.23223 7.22051C6.70107 6.75167 7.33696 6.48828 8 6.48828C8.66304 6.48828 9.29893 6.75167 9.76777 7.22051C10.2366 7.68936 10.5 8.32524 10.5 8.98828C10.5 9.65132 10.2366 10.2872 9.76777 10.756C9.29893 11.2249 8.66304 11.4883 8 11.4883Z" stroke="#A2A7B3"/>
</svg>
