<svg width="28" height="29" viewBox="0 0 28 29" fill="none" xmlns="http://www.w3.org/2000/svg">
<g clip-path="url(#clip0_825_1435)">
<mask id="mask0_825_1435" style="mask-type:alpha" maskUnits="userSpaceOnUse" x="1" y="2" width="26" height="25">
<path d="M13.9997 26.7475C20.6868 26.7475 26.1078 21.3265 26.1078 14.6394C26.1078 7.95223 20.6868 2.53125 13.9997 2.53125C7.31259 2.53125 1.8916 7.95223 1.8916 14.6394C1.8916 21.3265 7.31259 26.7475 13.9997 26.7475Z" fill="#D9D9D9"/>
</mask>
<g mask="url(#mask0_825_1435)">
<path d="M13.9958 2.53125C8.94079 2.53125 7.46243 2.53646 7.17505 2.56031C6.13767 2.64656 5.49215 2.80995 4.7889 3.16018C4.24693 3.42938 3.8195 3.74142 3.39766 4.17884C2.62941 4.97655 2.1638 5.95795 1.99525 7.12452C1.9133 7.69086 1.88946 7.80636 1.88462 10.6992C1.88275 11.6634 1.88462 12.9324 1.88462 14.6346C1.88462 19.6869 1.8902 21.1642 1.91442 21.4512C1.99823 22.4608 2.15653 23.0961 2.49177 23.791C3.13245 25.1211 4.35607 26.1197 5.79759 26.4922C6.29673 26.6208 6.84801 26.6915 7.55574 26.7251C7.8556 26.7382 10.9118 26.7475 13.97 26.7475C17.0281 26.7475 20.0862 26.7438 20.3786 26.7288C21.1981 26.6903 21.6739 26.6264 22.2001 26.4904C22.9148 26.307 23.581 25.9698 24.152 25.5023C24.723 25.0348 25.185 24.4482 25.5059 23.7836C25.8346 23.1054 26.0013 22.4459 26.0767 21.4889C26.0931 21.2803 26.1 17.9537 26.1 14.6314C26.1 11.3087 26.0925 7.98819 26.0762 7.77953C25.9998 6.80708 25.8331 6.15319 25.4938 5.46203C25.2154 4.89626 24.9062 4.47374 24.4573 4.04172C23.6565 3.27643 22.6768 2.81069 21.5093 2.64228C20.9436 2.5605 20.831 2.53628 17.9367 2.53125H13.9958Z" fill="url(#paint0_radial_825_1435)"/>
<path d="M13.9958 2.53125C8.94079 2.53125 7.46243 2.53646 7.17505 2.56031C6.13767 2.64656 5.49215 2.80995 4.7889 3.16018C4.24693 3.42938 3.8195 3.74142 3.39766 4.17884C2.62941 4.97655 2.1638 5.95795 1.99525 7.12452C1.9133 7.69086 1.88946 7.80636 1.88462 10.6992C1.88275 11.6634 1.88462 12.9324 1.88462 14.6346C1.88462 19.6869 1.8902 21.1642 1.91442 21.4512C1.99823 22.4608 2.15653 23.0961 2.49177 23.791C3.13245 25.1211 4.35607 26.1197 5.79759 26.4922C6.29673 26.6208 6.84801 26.6915 7.55574 26.7251C7.8556 26.7382 10.9118 26.7475 13.97 26.7475C17.0281 26.7475 20.0862 26.7438 20.3786 26.7288C21.1981 26.6903 21.6739 26.6264 22.2001 26.4904C22.9148 26.307 23.581 25.9698 24.152 25.5023C24.723 25.0348 25.185 24.4482 25.5059 23.7836C25.8346 23.1054 26.0013 22.4459 26.0767 21.4889C26.0931 21.2803 26.1 17.9537 26.1 14.6314C26.1 11.3087 26.0925 7.98819 26.0762 7.77953C25.9998 6.80708 25.8331 6.15319 25.4938 5.46203C25.2154 4.89626 24.9062 4.47374 24.4573 4.04172C23.6565 3.27643 22.6768 2.81069 21.5093 2.64228C20.9436 2.5605 20.831 2.53628 17.9367 2.53125H13.9958Z" fill="url(#paint1_radial_825_1435)"/>
<path d="M13.9928 6.76953C11.8554 6.76953 11.5872 6.77888 10.7476 6.81709C9.90983 6.85545 9.33788 6.9881 8.83751 7.18272C8.31981 7.38374 7.88074 7.65264 7.44329 8.09026C7.00551 8.5277 6.7366 8.96685 6.53493 9.48432C6.33981 9.98484 6.207 10.5569 6.16929 11.3944C6.13191 12.234 6.12207 12.5023 6.12207 14.6398C6.12207 16.7773 6.13158 17.0447 6.16962 17.8842C6.20815 18.722 6.3408 19.2939 6.53526 19.7944C6.73644 20.312 7.00534 20.7511 7.44296 21.1885C7.88029 21.6263 8.31936 21.8959 8.83668 22.0969C9.33742 22.2915 9.90946 22.4242 10.7472 22.4625C11.5867 22.5008 11.8548 22.5101 13.992 22.5101C16.1296 22.5101 16.3971 22.5008 17.2365 22.4625C18.0744 22.4242 18.647 22.2915 19.1477 22.0969C19.6652 21.8959 20.1036 21.6263 20.5409 21.1885C20.9787 20.7511 21.2476 20.312 21.4492 19.7945C21.6427 19.2939 21.7756 18.7218 21.8149 17.8843C21.8526 17.0448 21.8624 16.7773 21.8624 14.6398C21.8624 12.5023 21.8526 12.2341 21.8149 11.3946C21.7756 10.5568 21.6427 9.98484 21.4492 9.48447C21.2476 8.96685 20.9787 8.5277 20.5409 8.09026C20.1031 7.65248 19.6653 7.38358 19.1472 7.18272C18.6455 6.9881 18.0733 6.85545 17.2354 6.81709C16.3959 6.77888 16.1286 6.76953 13.9906 6.76953H13.9928ZM13.2868 8.18782C13.4963 8.1875 13.7302 8.18782 13.9928 8.18782C16.0942 8.18782 16.3433 8.19537 17.1731 8.2331C17.9405 8.26814 18.3569 8.39641 18.6343 8.50409C19.0016 8.64674 19.2634 8.81731 19.5387 9.09277C19.8142 9.36823 19.9847 9.63053 20.1277 9.99786C20.2354 10.2749 20.3638 10.6914 20.3987 11.4588C20.4365 12.2884 20.4446 12.5376 20.4446 14.638C20.4446 16.7384 20.4365 16.9876 20.3987 17.8173C20.3637 18.5846 20.2354 19.0011 20.1277 19.2782C19.9851 19.6454 19.8142 19.907 19.5387 20.1823C19.2633 20.4577 19.0017 20.6282 18.6343 20.7709C18.3572 20.8791 17.9405 21.007 17.1731 21.0421C16.3434 21.0798 16.0942 21.088 13.9928 21.088C11.8913 21.088 11.6423 21.0798 10.8126 21.0421C10.0452 21.0067 9.62878 20.8785 9.3512 20.7707C8.98387 20.6281 8.72158 20.4576 8.44612 20.1821C8.17066 19.9067 8.00008 19.645 7.85713 19.2775C7.74945 19.0005 7.62102 18.5839 7.58614 17.8166C7.54839 16.987 7.54085 16.7378 7.54085 14.636C7.54085 12.5344 7.54839 12.2864 7.58614 11.4568C7.62118 10.6895 7.74945 10.2729 7.85713 9.99551C7.99978 9.62825 8.17066 9.36589 8.44612 9.09043C8.72158 8.81497 8.98387 8.64447 9.3512 8.50152C9.62862 8.3933 10.0452 8.26541 10.8126 8.23015C11.5386 8.19733 11.82 8.1875 13.2868 8.18585V8.18782ZM18.1939 9.49461C18.0071 9.49461 17.8245 9.55001 17.6692 9.65383C17.5139 9.75758 17.3928 9.90508 17.3214 10.0777C17.2498 10.2503 17.2312 10.4402 17.2676 10.6234C17.3041 10.8066 17.3941 10.9749 17.5262 11.107C17.6583 11.239 17.8266 11.329 18.0099 11.3654C18.1931 11.4018 18.383 11.383 18.5556 11.3115C18.7281 11.24 18.8756 11.1188 18.9793 10.9635C19.0831 10.8081 19.1384 10.6255 19.1383 10.4387C19.1383 9.91734 18.7153 9.49461 18.1939 9.49461ZM13.9928 10.5981C11.7608 10.5981 9.95115 12.4077 9.95115 14.6398C9.95115 16.8719 11.7608 18.6807 13.9928 18.6807C16.2249 18.6807 18.0341 16.8719 18.0341 14.6398C18.0341 12.4077 16.2249 10.5981 13.9928 10.5981ZM13.9928 12.0164C15.4417 12.0164 16.6163 13.1908 16.6163 14.6398C16.6163 16.0886 15.4417 17.2632 13.9928 17.2632C12.5439 17.2632 11.3694 16.0886 11.3694 14.6398C11.3694 13.1908 12.5439 12.0164 13.9928 12.0164Z" fill="white"/>
</g>
</g>
<defs>
<radialGradient id="paint0_radial_825_1435" cx="0" cy="0" r="1" gradientUnits="userSpaceOnUse" gradientTransform="translate(8.31624 28.6126) rotate(-90) scale(24.0001 22.322)">
<stop stop-color="#FFDD55"/>
<stop offset="0.1" stop-color="#FFDD55"/>
<stop offset="0.5" stop-color="#FF543E"/>
<stop offset="1" stop-color="#C837AB"/>
</radialGradient>
<radialGradient id="paint1_radial_825_1435" cx="0" cy="0" r="1" gradientUnits="userSpaceOnUse" gradientTransform="translate(-2.17255 4.27575) rotate(78.6806) scale(10.7282 44.2218)">
<stop stop-color="#3771C8"/>
<stop offset="0.128" stop-color="#3771C8"/>
<stop offset="1" stop-color="#6600FF" stop-opacity="0"/>
</radialGradient>
<clipPath id="clip0_825_1435">
<rect width="28" height="28" fill="white" transform="translate(0 0.640625)"/>
</clipPath>
</defs>
</svg>
