<svg width="28" height="29" viewBox="0 0 28 29" fill="none" xmlns="http://www.w3.org/2000/svg">
<g clip-path="url(#clip0_825_1422)">
<g clip-path="url(#clip1_825_1422)">
<path d="M13.9987 2.97266C7.58201 2.97266 2.33203 8.22269 2.33203 14.6393C2.33203 21.056 7.58201 26.306 13.9987 26.306C20.4154 26.306 25.6654 21.056 25.6654 14.6393C25.6654 8.22269 20.4154 2.97266 13.9987 2.97266Z" fill="#03A9F4"/>
<path d="M21 10.6156C20.475 10.849 19.8333 11.0823 19.25 11.1406C19.8333 10.7906 20.7667 10.0323 21 9.39062C20.4167 9.74063 19.425 10.0906 18.7833 10.2073C18.2583 9.62393 17.5 9.39062 16.6833 9.39062C15.1083 9.39062 14 10.7323 14 12.3073V13.4739C11.6667 13.4739 9.39165 11.7239 7.99165 9.97393C7.75835 10.3823 7.58331 10.9073 7.58331 11.4323C7.58331 12.4823 8.57496 13.5906 9.33331 14.0573C8.86669 14.0573 7.99165 13.7073 7.58331 13.4739C7.58331 13.4739 7.58331 13.4739 7.58331 13.5323C7.58331 14.9323 8.57496 15.8656 9.85835 16.099C9.62496 16.1573 9.33331 16.3906 8.22504 16.3906C8.57504 17.499 10.4417 18.1406 11.6667 18.1406C10.675 18.899 8.92496 19.3073 7.58331 19.3073C7.35 19.3073 7.23333 19.3073 7 19.3073C8.28331 20.1239 10.0333 20.4739 11.6667 20.4739C16.975 20.4739 19.8333 16.449 19.8333 12.6573C19.8333 12.5406 19.8333 12.1323 19.8333 12.0156C20.4167 11.6073 20.5917 11.199 21 10.6156Z" fill="white"/>
</g>
</g>
<defs>
<clipPath id="clip0_825_1422">
<rect y="0.640625" width="28" height="28" rx="14" fill="white"/>
</clipPath>
<clipPath id="clip1_825_1422">
<rect width="28" height="28" fill="white" transform="translate(0 0.640625)"/>
</clipPath>
</defs>
</svg>
